<svg width="122" height="72" viewBox="0 0 122 72" fill="none" xmlns="http://www.w3.org/2000/svg">
<path d="M1.05519 45.4111C1.05519 45.0887 1.08323 44.7101 1.13932 44.2755C1.1954 43.8409 1.30055 43.3502 1.45477 42.8034C1.609 42.2425 1.84033 41.6186 2.14878 40.9316L4.73553 41.836C4.58131 42.2706 4.44812 42.6702 4.33595 43.0347C4.22379 43.3852 4.13967 43.7147 4.08359 44.0231C4.02751 44.3176 3.99947 44.612 3.99947 44.9064C3.99947 45.6215 4.15369 46.2103 4.46214 46.673C4.78461 47.1356 5.23326 47.4791 5.80809 47.7035C6.38292 47.9278 7.04889 48.04 7.80599 48.04C8.81545 48.04 9.61461 47.8717 10.2035 47.5352C10.7923 47.1987 11.2199 46.7291 11.4863 46.1262C11.7527 45.5373 11.914 44.8503 11.97 44.0652C12.0401 43.266 12.0612 42.4178 12.0331 41.5205L11.6335 30.6057H14.5988L14.9564 41.3312C14.9844 42.2425 14.9494 43.1539 14.8512 44.0652C14.7671 44.9765 14.5778 45.8388 14.2834 46.6519C14.003 47.4651 13.5894 48.1872 13.0426 48.8181C12.4958 49.449 11.7878 49.9467 10.9185 50.3113C10.0633 50.6758 9.00473 50.858 7.7429 50.858C6.83158 50.858 5.96932 50.7529 5.15614 50.5426C4.35698 50.3323 3.64896 50.0028 3.03206 49.5542C2.41517 49.1195 1.93147 48.5587 1.58096 47.8717C1.23045 47.1847 1.05519 46.3645 1.05519 45.4111ZM22.7631 46.1052C21.4592 46.1052 20.4498 45.972 19.7347 45.7056C19.0337 45.4392 18.543 45.0256 18.2626 44.4648C17.9822 43.8899 17.821 43.1679 17.7789 42.2986L17.3373 30.6057H20.2815L20.7232 40.8896C20.7512 41.5345 20.8213 42.0182 20.9335 42.3407C21.0456 42.6632 21.2559 42.8805 21.5644 42.9926C21.8869 43.1048 22.3565 43.1609 22.9734 43.1609C23.5062 43.1609 23.8848 43.3011 24.1091 43.5815C24.3474 43.8479 24.4666 44.1844 24.4666 44.591C24.4666 45.0256 24.3194 45.3901 24.025 45.6845C23.7305 45.9649 23.3099 46.1052 22.7631 46.1052ZM22.7917 46.1052L23.002 43.1609C23.3525 43.1609 23.6189 43.0908 23.8012 42.9506C23.9834 42.8104 24.1657 42.565 24.348 42.2145C24.5302 41.864 24.7826 41.3873 25.1051 40.7844C25.4556 40.1115 25.8201 39.5506 26.1987 39.102C26.5772 38.6393 26.9558 38.2748 27.3343 38.0084C27.7269 37.728 28.1124 37.5317 28.491 37.4195C28.8836 37.2934 29.2691 37.2303 29.6477 37.2303C30.1664 37.2303 30.6501 37.3424 31.0988 37.5668C31.5614 37.7771 32.0031 38.1486 32.4237 38.6814C32.8443 39.2001 33.2439 39.9152 33.6224 40.8265C33.8888 41.4574 34.1552 41.9411 34.4216 42.2776C34.688 42.6141 34.9614 42.8454 35.2418 42.9716C35.5362 43.0978 35.8306 43.1609 36.1251 43.1609C36.6578 43.1609 37.0364 43.3011 37.2607 43.5815C37.485 43.8479 37.5972 44.1844 37.5972 44.591C37.5972 45.0256 37.45 45.3901 37.1556 45.6845C36.8611 45.9649 36.4475 46.1052 35.9148 46.1052C35.2278 46.1052 34.6039 45.993 34.043 45.7687C33.4822 45.5443 33.0406 45.2079 32.7181 44.7592L33.328 44.2965C33.2018 44.591 33.0125 44.8994 32.7602 45.2219C32.5218 45.5443 32.2064 45.8177 31.8138 46.0421C31.4353 46.2664 30.9796 46.3785 30.4468 46.3785C30.0963 46.3785 29.6827 46.3084 29.206 46.1682C28.7433 46.0421 28.2596 45.8247 27.7549 45.5163C27.2642 45.1938 26.8085 44.7592 26.3879 44.2124C26.1215 44.7031 25.8271 45.0887 25.5046 45.3691C25.1822 45.6355 24.8036 45.8247 24.369 45.9369C23.9344 46.0491 23.4086 46.1052 22.7917 46.1052ZM27.6077 41.7308C27.7479 41.9411 27.9161 42.1514 28.1124 42.3617C28.3087 42.572 28.526 42.7613 28.7644 42.9295C29.0027 43.0838 29.2551 43.21 29.5215 43.3081C29.8019 43.4062 30.0753 43.4553 30.3417 43.4553C30.6221 43.4553 30.8534 43.3502 31.0357 43.1398C31.2179 42.9155 31.2249 42.586 31.0567 42.1514C30.9866 41.9692 30.8885 41.7659 30.7623 41.5415C30.6501 41.3032 30.5169 41.0789 30.3627 40.8686C30.2225 40.6582 30.0613 40.483 29.879 40.3428C29.7108 40.2026 29.5355 40.1325 29.3532 40.1325C29.171 40.1325 28.9817 40.1886 28.7854 40.3007C28.5891 40.4129 28.3928 40.5881 28.1966 40.8265C28.0003 41.0508 27.804 41.3523 27.6077 41.7308ZM35.9152 46.1052L36.1256 43.1609C36.5882 43.1609 36.9668 43.1258 37.2612 43.0557C37.5556 42.9716 37.794 42.7964 37.9762 42.53C38.1725 42.2496 38.3408 41.836 38.481 41.2892C38.6352 40.7284 38.8034 39.9713 38.9857 39.0179L41.7197 39.5226C41.6776 39.7329 41.6285 39.9783 41.5725 40.2587C41.5164 40.5391 41.4673 40.8265 41.4252 41.1209C41.3832 41.4013 41.3621 41.6537 41.3621 41.878C41.3621 42.2706 41.4883 42.586 41.7407 42.8244C41.9931 43.0487 42.4698 43.1609 43.1708 43.1609C43.5213 43.1609 43.8227 43.1258 44.0751 43.0557C44.3415 42.9716 44.5658 42.7964 44.7481 42.53C44.9443 42.2496 45.1126 41.8219 45.2528 41.2471C45.407 40.6582 45.5542 39.8661 45.6944 38.8707L48.4705 39.3123C48.4144 39.6348 48.3583 39.9783 48.3022 40.3428C48.2461 40.7073 48.1971 41.0438 48.155 41.3523C48.1129 41.6607 48.0919 41.9131 48.0919 42.1094C48.0919 42.2916 48.141 42.4669 48.2391 42.6351C48.3513 42.7893 48.5476 42.9155 48.828 43.0137C49.1224 43.1118 49.536 43.1609 50.0688 43.1609C50.4473 43.1609 50.7698 43.1118 51.0362 43.0137C51.3166 42.9155 51.5269 42.7543 51.6671 42.53C51.8213 42.3056 51.8984 42.0112 51.8984 41.6467C51.8984 41.1279 51.7793 40.4479 51.5409 39.6067C51.3026 38.7655 51.0222 37.8822 50.6997 36.9569L53.665 36.0736C53.8893 36.6765 54.0856 37.3214 54.2539 38.0084C54.4361 38.6814 54.5763 39.3403 54.6745 39.9853C54.7866 40.6162 54.8427 41.17 54.8427 41.6467C54.8427 42.3617 54.7305 42.9996 54.5062 43.5605C54.2819 44.1073 53.9664 44.5699 53.5599 44.9485C53.1533 45.327 52.6696 45.6144 52.1087 45.8107C51.5479 46.007 50.931 46.1052 50.2581 46.1052C49.4449 46.1052 48.7789 46.028 48.2602 45.8738C47.7414 45.7056 47.3418 45.4322 47.0614 45.0536C46.795 44.6611 46.6198 44.1283 46.5357 43.4553H47.2507C46.9563 44.2825 46.6268 44.8854 46.2623 45.2639C45.8977 45.6285 45.4631 45.8598 44.9584 45.9579C44.4677 46.0561 43.8508 46.1052 43.1077 46.1052C42.645 46.1052 42.1683 46.0561 41.6776 45.9579C41.2009 45.8458 40.7733 45.5934 40.3947 45.2008C40.0162 44.8083 39.7358 44.1984 39.5535 43.3712L40.6892 43.3291C40.3947 44.1563 40.0092 44.7662 39.5325 45.1588C39.0698 45.5513 38.537 45.8107 37.9342 45.9369C37.3313 46.0491 36.6583 46.1052 35.9152 46.1052ZM46.9142 33.0873C46.5637 33.0873 46.2553 32.9541 45.9889 32.6877C45.7365 32.4213 45.6103 32.1058 45.6103 31.7413C45.6103 31.3768 45.7365 31.0683 45.9889 30.816C46.2553 30.5636 46.5637 30.4374 46.9142 30.4374C47.2787 30.4374 47.5872 30.5636 47.8395 30.816C48.0919 31.0683 48.2181 31.3768 48.2181 31.7413C48.2181 32.1058 48.0919 32.4213 47.8395 32.6877C47.5872 32.9541 47.2787 33.0873 46.9142 33.0873ZM45.2318 35.8633C44.8813 35.8633 44.5728 35.7301 44.3064 35.4637C44.0541 35.1973 43.9279 34.8819 43.9279 34.5173C43.9279 34.1528 44.0541 33.8444 44.3064 33.592C44.5728 33.3396 44.8813 33.2134 45.2318 33.2134C45.5963 33.2134 45.9047 33.3396 46.1571 33.592C46.4095 33.8444 46.5357 34.1528 46.5357 34.5173C46.5357 34.8819 46.4095 35.1973 46.1571 35.4637C45.9047 35.7301 45.5963 35.8633 45.2318 35.8633ZM48.4915 35.8633C48.141 35.8633 47.8325 35.7301 47.5662 35.4637C47.3138 35.1973 47.1876 34.8819 47.1876 34.5173C47.1876 34.1528 47.3138 33.8444 47.5662 33.592C47.8325 33.3396 48.141 33.2134 48.4915 33.2134C48.856 33.2134 49.1645 33.3396 49.4168 33.592C49.6692 33.8444 49.7954 34.1528 49.7954 34.5173C49.7954 34.8819 49.6692 35.1973 49.4168 35.4637C49.1645 35.7301 48.856 35.8633 48.4915 35.8633Z" fill="#1C85B2"/>
<path d="M29.043 69.837L27.9705 67.1451C29.1762 66.7245 30.1506 66.2618 30.8937 65.7571C31.6508 65.2524 32.2046 64.7126 32.5551 64.1377C32.9197 63.5629 33.1019 62.967 33.1019 62.3502C33.1019 61.9576 33.0458 61.551 32.9337 61.1304C32.8215 60.6958 32.6603 60.2401 32.45 59.7634C32.2537 59.2867 32.0153 58.789 31.7349 58.2702L34.4899 56.9453C34.9806 57.8847 35.3592 58.782 35.6256 59.6372C35.906 60.4925 36.0462 61.2916 36.0462 62.0347C36.0462 62.7217 35.9551 63.3807 35.7728 64.0116C35.6046 64.6425 35.3382 65.2313 34.9736 65.7781C34.6231 66.3389 34.1675 66.8647 33.6067 67.3554C33.0458 67.8461 32.3869 68.2948 31.6298 68.7014C30.8727 69.122 30.0104 69.5005 29.043 69.837ZM38.5105 69.837L37.9007 66.8927C38.8961 66.7666 39.7654 66.6123 40.5084 66.4301C41.2515 66.2618 41.8754 66.0235 42.3802 65.715C42.8849 65.4066 43.2634 64.986 43.5158 64.4532C43.7682 63.9064 43.8944 63.2054 43.8944 62.3502C43.8944 61.523 43.7682 60.864 43.5158 60.3733C43.2634 59.8826 42.927 59.6372 42.5063 59.6372C42.2119 59.6372 41.9666 59.7424 41.7703 59.9527C41.574 60.149 41.4268 60.3873 41.3286 60.6677C41.2445 60.9341 41.2025 61.1724 41.2025 61.3828C41.2025 61.5089 41.2375 61.6421 41.3076 61.7823C41.3777 61.9225 41.5319 62.0417 41.7703 62.1398C42.0086 62.238 42.3802 62.2941 42.8849 62.3081C43.4036 62.3221 44.1047 62.273 44.9879 62.1609H48.5211C49.0538 62.1609 49.4324 62.3011 49.6567 62.5815C49.8951 62.8479 50.0142 63.1844 50.0142 63.591C50.0142 64.0256 49.867 64.3901 49.5726 64.6845C49.2782 64.9649 48.8576 65.1052 48.3108 65.1052H42.5274C41.6441 65.1052 40.887 65 40.2561 64.7897C39.6252 64.5794 39.1415 64.2429 38.805 63.7802C38.4685 63.3035 38.3002 62.6726 38.3002 61.8875C38.3002 61.2566 38.4054 60.6257 38.6157 59.9947C38.84 59.3638 39.1485 58.789 39.541 58.2702C39.9336 57.7375 40.3893 57.3169 40.908 57.0084C41.4408 56.6859 42.0156 56.5247 42.6325 56.5247C43.4737 56.5247 44.2098 56.7841 44.8407 57.3028C45.4716 57.8216 45.9624 58.5086 46.3129 59.3638C46.6774 60.2191 46.8597 61.1514 46.8597 62.1609C46.8597 63.7452 46.5232 65.0911 45.8502 66.1987C45.1772 67.3063 44.2168 68.1616 42.969 68.7645C41.7212 69.3814 40.235 69.7389 38.5105 69.837ZM48.3405 65.1052L48.5508 62.1609C49.392 62.1609 50.037 62.1188 50.4856 62.0347C50.9343 61.9506 51.2427 61.7964 51.411 61.572C51.5932 61.3337 51.6844 60.9972 51.6844 60.5626C51.6844 60.17 51.6283 59.7003 51.5161 59.1535C51.418 58.6067 51.2848 58.0389 51.1165 57.45C50.9623 56.8612 50.7941 56.3214 50.6118 55.8307L53.514 55.0315C53.6963 55.5082 53.8715 56.062 54.0398 56.6929C54.208 57.3239 54.3482 57.9758 54.4604 58.6488C54.5725 59.3077 54.6286 59.9457 54.6286 60.5626C54.6286 61.5159 54.4744 62.2941 54.166 62.8969C53.8575 63.4858 53.4229 63.9415 52.8621 64.2639C52.3153 64.5864 51.6563 64.8107 50.8852 64.9369C50.1141 65.0491 49.2658 65.1052 48.3405 65.1052ZM54.0398 53.3281C53.6332 53.3281 53.2827 53.1879 52.9882 52.9075C52.7078 52.613 52.5676 52.2695 52.5676 51.877C52.5676 51.4704 52.7078 51.1199 52.9882 50.8254C53.2827 50.531 53.6332 50.3838 54.0398 50.3838C54.4323 50.3838 54.7688 50.531 55.0492 50.8254C55.3296 51.1199 55.4698 51.4704 55.4698 51.877C55.4698 52.2695 55.3296 52.613 55.0492 52.9075C54.7688 53.1879 54.4323 53.3281 54.0398 53.3281ZM50.4015 53.307C49.9949 53.307 49.6444 53.1668 49.35 52.8864C49.0696 52.592 48.9294 52.2485 48.9294 51.8559C48.9294 51.4493 49.0696 51.0988 49.35 50.8044C49.6444 50.51 49.9949 50.3628 50.4015 50.3628C50.7941 50.3628 51.1306 50.51 51.411 50.8044C51.6914 51.0988 51.8316 51.4493 51.8316 51.8559C51.8316 52.2485 51.6914 52.592 51.411 52.8864C51.1306 53.1668 50.7941 53.307 50.4015 53.307Z" fill="#4BB5E6"/>
<path fill-rule="evenodd" clip-rule="evenodd" d="M81.8238 1.3025L82.1797 2.95794L73.6793 2.07782L73.6581 1.79327L73.6865 0.530011L73.7278 0.36377L81.8238 1.3025Z" fill="#BCE1F7"/>
<path fill-rule="evenodd" clip-rule="evenodd" d="M88.5078 2.37898L88.2161 3.06007C87.1084 2.80238 86.0252 2.34052 84.7685 2.02929C84.1405 1.87423 83.5844 1.75656 82.958 1.60094C82.3791 1.45815 81.4989 1.02082 81.283 1.01245L81.4113 0.56569L81.8218 0.434636L81.7895 0.335938C82.4666 0.351555 84.6464 0.935486 85.3737 1.13294C85.9025 1.27628 86.4491 1.44981 87.0108 1.63722C87.2562 1.71865 87.6249 1.81121 87.8156 1.90324C88.3098 2.1403 87.8669 2.23006 88.5078 2.37898Z" fill="#BCE1F7"/>
<path fill-rule="evenodd" clip-rule="evenodd" d="M94.155 4.90819C93.431 4.37943 90.7008 2.95048 89.6761 2.86515L89.4804 2.47689L89.5596 2.54051L90.1631 1.69775C91.4688 2.0023 93.291 4.00578 94.4707 4.65L94.155 4.90819Z" fill="#BCE1F7"/>
<path fill-rule="evenodd" clip-rule="evenodd" d="M89.8711 5.29818L83.6051 3.46593L83.6464 3.34882L83.0563 1.89307C85.2662 2.07601 89.6803 3.00352 89.8711 5.29818Z" fill="#95D1F2"/>
<path fill-rule="evenodd" clip-rule="evenodd" d="M94.1558 4.90779L95.0449 5.50303L94.6417 6.07529C94.2456 5.98326 92.5048 5.10307 91.9789 4.84482C91.4836 4.60219 91.1528 4.46883 90.6207 4.25688C90.006 4.0109 89.663 3.56974 89.3267 3.52121L89.677 2.86475C90.7016 2.95008 93.4319 4.37903 94.1558 4.90779Z" fill="#4BB5E6"/>
<path fill-rule="evenodd" clip-rule="evenodd" d="M84.9159 4.13095L85.0994 4.71389V5.10313L85.3147 5.15226L86.0732 6.27008C84.5829 6.27008 81.5023 5.87179 80.1955 5.62581C77.9471 5.20247 78.0074 3.86215 76.435 2.86486L76.4908 2.56201L84.9159 4.13095Z" fill="#95D1F2"/>
<path fill-rule="evenodd" clip-rule="evenodd" d="M75.5091 2.42578L75.5593 3.44992L75.7841 3.50733L77.1172 4.90839V5.20068C73.8197 5.20068 65.7292 7.9723 65.6277 3.44992L65.6037 3.09456L75.5091 2.42578Z" fill="#BCE1F7"/>
<path fill-rule="evenodd" clip-rule="evenodd" d="M95.6147 7.43745V8.02191C95.0034 7.97115 93.3011 7.1585 92.7584 6.88742C91.5263 6.27164 91.3166 6.11498 90.9418 4.71387C91.7918 4.78415 95.6147 6.73076 95.6147 7.43745Z" fill="#2893D1"/>
<path fill-rule="evenodd" clip-rule="evenodd" d="M100.192 8.21655C99.7529 8.47257 100.125 8.11894 99.802 8.11894C99.5789 8.11894 99.6893 8.15297 99.4133 8.21655C98.8019 7.30516 96.2306 6.53489 95.3215 5.29274L95.6154 5.20068C96.3372 5.82762 100.015 7.55393 100.192 8.21655Z" fill="#95D1F3"/>
<path fill-rule="evenodd" clip-rule="evenodd" d="M92.7422 7.53854L87.0753 6.41026L87.242 5.97908L87.0106 5.93442L86.0936 4.69894L86.2782 4.30469L92.7422 7.53854Z" fill="#2893D1"/>
<path fill-rule="evenodd" clip-rule="evenodd" d="M96.7834 9.67581L96.9775 10.4545C96.8453 10.4194 94.9238 9.54249 94.7063 9.41588C93.9695 8.98863 93.4904 8.44822 93.2784 7.53516C93.7006 7.57085 94.7855 8.23451 95.1687 8.46822C95.49 8.66344 95.7159 8.78174 96.0271 8.9725C96.6646 9.36294 96.176 9.5135 96.7834 9.67581Z" fill="#4BB5E6"/>
<path fill-rule="evenodd" clip-rule="evenodd" d="M99.5911 8.53326L99.7065 9.00681L99.315 9.18983C98.9965 9.10505 97.8414 8.28347 97.4465 8.0414C97.1163 7.83837 96.877 7.7022 96.5317 7.49583C96.0336 7.19575 95.8362 6.80754 95.7124 6.75679L95.6348 6.66255L96.2227 6.18115V6.38639L99.5911 8.53326Z" fill="#2893D1"/>
<path fill-rule="evenodd" clip-rule="evenodd" d="M90.1626 9.87065C87.5199 10.4853 82.6813 8.44162 82.1793 6.5625C85.083 6.80401 89.4782 6.93512 90.1626 9.87065Z" fill="#2893D1"/>
<path fill-rule="evenodd" clip-rule="evenodd" d="M83.3467 9.18993C80.8211 9.39965 79.8696 10.1889 76.6546 9.84695C74.6684 9.63555 72.2739 7.02686 71.3714 6.95156V6.75689C73.3202 6.59569 76.2324 5.56443 78.3892 5.86228C79.9627 6.07925 82.8218 8.19822 83.3467 9.18993Z" fill="#95D1F2"/>
<path fill-rule="evenodd" clip-rule="evenodd" d="M99.6069 10.0656V10.6496C99.2628 10.557 98.3051 9.81459 97.9515 9.57866C96.9916 8.93834 96.8538 9.21664 96.8806 8.02246C97.3775 8.28517 97.8806 8.5769 98.3252 8.91435C98.8116 9.28415 99.3292 9.91836 99.6069 10.0656Z" fill="#4BB5E6"/>
<path fill-rule="evenodd" clip-rule="evenodd" d="M94.9336 10.746V11.2329H94.6408C94.4684 11.2329 94.1003 10.9373 93.9597 10.8436C92.7867 10.8436 90.5585 9.457 90.4547 8.50879H91.0387C91.1642 8.50879 93.1532 9.15303 93.3004 9.2657C93.6758 9.55462 94.5292 10.6523 94.9336 10.746Z" fill="#4BB5E6"/>
<path fill-rule="evenodd" clip-rule="evenodd" d="M102.236 9.87068L103.734 11.0888L103.697 11.4269L103.49 11.5384L103.203 11.3119L102.945 11.3934L102.236 10.8434C102.016 10.0196 100.34 9.42172 100.289 8.7998H100.678C100.914 8.7998 101.981 9.70056 102.236 9.87068Z" fill="#4BB5E6"/>
<path fill-rule="evenodd" clip-rule="evenodd" d="M102.236 10.8428C102.37 11.4134 102.724 11.3928 102.724 11.7191V11.8161C102.724 12.1882 102.753 11.8512 102.626 12.1072C101.756 11.5255 100.973 10.8422 100.36 9.92747L100.783 9.66699L102.236 10.8428Z" fill="#2893D1"/>
<path fill-rule="evenodd" clip-rule="evenodd" d="M100.678 13.1787C100.252 12.8925 100.019 12.5546 99.4497 12.3638C98.4719 12.0381 98.6677 11.5405 98.2694 11.4206L98.1267 10.6698L97.855 10.3569C98.4513 10.3703 99.2863 11.1317 99.7068 11.4256C100.304 11.8428 100.868 12.2829 100.678 13.1787Z" fill="#4AB4E5"/>
<path fill-rule="evenodd" clip-rule="evenodd" d="M99.1206 13.2767H98.7307C98.4948 13.2767 98.3275 13.014 98.1004 12.9332C97.6459 12.7708 97.7641 12.9979 97.2861 12.6771C96.5928 12.212 96.7032 11.8885 96.199 11.6224L96.1499 11.2777L95.7366 10.812L95.8102 10.7461C96.3083 10.9854 96.3184 10.6804 96.9213 11.0954C97.4189 11.4373 97.3168 11.3508 97.8868 11.5895C98.2516 11.7423 99.11 12.8066 99.1206 13.2767Z" fill="#4AB4E5"/>
<path fill-rule="evenodd" clip-rule="evenodd" d="M93.9598 13.4703C92.5124 13.4703 92.1465 13.4391 90.8447 12.7893C90.3226 12.5294 88.7324 11.319 88.6047 10.88L90.9417 10.8438C91.5709 11.1767 92.3596 11.4735 92.8086 11.9945C93.1165 12.3542 93.2113 12.3821 93.6307 12.6325C93.8561 12.767 94.4903 13.4703 93.9598 13.4703Z" fill="#4BB5E6"/>
<path fill-rule="evenodd" clip-rule="evenodd" d="M102.917 13.179V13.4701H102.723V13.6653C102.194 13.3865 100.677 12.3909 100.677 11.7199V11.3306C101.036 11.4142 102.917 12.9202 102.917 13.179Z" fill="#4BB5E6"/>
<path fill-rule="evenodd" clip-rule="evenodd" d="M73.8066 9.96848V10.1626C71.3363 10.7377 68.6908 12.7428 66.1055 13.2688C63.0228 13.8952 60.0404 12.2972 58.9098 10.1626C60.877 9.21998 64.1433 7.31405 66.39 6.92919C70.7791 6.17732 72.3046 9.84298 73.8066 9.96848Z" fill="#BCE1F7"/>
<path fill-rule="evenodd" clip-rule="evenodd" d="M104.669 12.3034L104.864 12.5957L106.132 14.0593L105.643 14.249C105.403 13.8914 105.071 13.6059 104.744 13.2986C104.299 12.8803 104.232 12.6716 103.913 12.1289L104.378 12.3034H104.669Z" fill="#2893D1"/>
<path fill-rule="evenodd" clip-rule="evenodd" d="M89.7744 13.1788C89.1865 13.9803 85.9029 14.5514 84.4633 13.7192C83.7355 13.2981 80.4218 11.3671 80.2327 10.8433C81.4324 10.5645 84.5286 9.87514 85.7524 10.2823C86.9019 10.6661 89.3165 13.0717 89.7744 13.1788Z" fill="#2893D1"/>
<path fill-rule="evenodd" clip-rule="evenodd" d="M105.06 12.1082L105.352 12.2058L106.131 12.8869L107.493 14.3465V14.7354L107.337 14.7922L104.864 12.5957L104.67 12.3034L104.673 12L105.06 12.1082Z" fill="#4BB5E6"/>
<path fill-rule="evenodd" clip-rule="evenodd" d="M96.683 12.6132C96.862 12.7119 97.4962 13.0913 97.6228 13.2157C97.9452 13.5314 97.716 13.8877 98.3423 14.0539C98.3524 14.5392 98.832 14.8622 98.4411 14.8137L97.1309 14.7813L94.5445 12.4085L94.6521 12.2451L96.683 12.6132Z" fill="#4AB4E5"/>
<path fill-rule="evenodd" clip-rule="evenodd" d="M105.448 14.7352L104.864 14.9298C104.646 14.6041 103.306 13.5331 103.306 13.2766V13.179C103.306 12.8744 103.482 12.9028 103.696 12.7891C104.248 13.0819 105.093 14.2042 105.448 14.7352Z" fill="#4BB5E6"/>
<path fill-rule="evenodd" clip-rule="evenodd" d="M106.519 15.0336L107.785 16.3901C107.785 17.0143 108.024 16.9552 107.609 17.0634L107.493 16.7783L107.051 16.7493L105.84 14.9873L106.519 15.0336Z" fill="#4BB5E6"/>
<path fill-rule="evenodd" clip-rule="evenodd" d="M109.343 17.2656C108.194 16.9594 108.357 16.449 107.688 16.0011L107.666 15.536L107.298 15.1255C107.83 15.1696 109.213 16.7787 109.343 17.2656Z" fill="#2893D1"/>
<path fill-rule="evenodd" clip-rule="evenodd" d="M98.3413 16.5836L97.5621 17.1676C97.2068 16.9975 96.9703 17.0299 96.4906 16.7794C96.1225 16.5865 95.934 16.3812 95.5982 16.1146C95.1709 15.7755 94.2082 15.1067 93.9572 14.7162L95.5168 14.5405H95.9072C96.5581 14.5405 98.0117 16.0933 98.3413 16.5836Z" fill="#4AB4E5"/>
<path fill-rule="evenodd" clip-rule="evenodd" d="M83.3467 14.5417C80.9366 15.1028 79.8567 18.3751 75.7198 17.3979C72.8707 16.7247 71.2548 14.7759 68.1586 14.0547C68.3633 13.5483 74.8446 10.8074 75.9434 10.8091C78.2219 10.8108 81.9801 13.3547 83.3467 14.5417Z" fill="#95D1F2"/>
<path fill-rule="evenodd" clip-rule="evenodd" d="M91.6234 14.6384C92.1567 14.8542 94.0665 15.9771 94.4446 16.343C95.5172 17.3821 93.0307 17.8065 92.1528 17.5315C91.7685 17.4105 89.7315 16.0663 89.3628 15.7813C88.1636 14.8543 91.0004 14.3852 91.6234 14.6384Z" fill="#4BB5E6"/>
<path fill-rule="evenodd" clip-rule="evenodd" d="M109.441 16.3906L110.122 17.2657L111.388 19.0171L111.194 19.1147C110.982 18.7154 110.61 18.0572 110.018 18.0477L109.491 16.9148L108.662 15.709L109.441 16.3906Z" fill="#4BB5E6"/>
<path fill-rule="evenodd" clip-rule="evenodd" d="M109.928 18.5299L109.994 19.0765L110.31 19.647L110.197 19.723L108.741 18.4535L108.849 18.392L108.37 17.459C109.163 17.5259 109.422 18.1918 109.928 18.5299Z" fill="#4BB5E6"/>
<path fill-rule="evenodd" clip-rule="evenodd" d="M97.5621 17.8491L99.5093 19.5028C99.4451 20.2686 99.2376 20.7015 98.5064 20.9095L95.3221 18.9189C95.9825 17.9333 96.2776 17.8491 97.5621 17.8491Z" fill="#4AB4E5"/>
<path fill-rule="evenodd" clip-rule="evenodd" d="M112.069 20.8651L111.484 20.1841C110.711 20.1673 110.354 18.6608 110.413 18.5303C111.123 19.0044 111.844 19.9023 112.069 20.8651Z" fill="#2893D1"/>
<path fill-rule="evenodd" clip-rule="evenodd" d="M81.1077 18.1403C84.7678 13.1483 91.1124 17.4778 91.0578 18.5754C90.9691 20.3508 88.8724 21.6833 86.4885 20.7429C85.0763 20.1857 82.5088 18.8822 81.1077 18.1403Z" fill="#2893D1"/>
<path fill-rule="evenodd" clip-rule="evenodd" d="M112.227 21.6809C112.1 21.8593 112.069 21.8454 112.069 22.0328C112.069 22.2348 112.22 21.9954 112.264 22.5197L112.188 22.5933L110.742 21.1203L110.852 21.0466L110.666 20.127L112.227 21.6809Z" fill="#4BB5E6"/>
<path fill-rule="evenodd" clip-rule="evenodd" d="M113.334 21.644L114.015 22.8108L114.405 23.5895H114.112C114.021 23.1952 113.81 22.9414 113.624 22.619C113.287 22.0345 113.165 22.2826 112.827 21.8593C112.296 21.1944 112.644 21.2597 112.464 20.867C112.316 20.5458 111.983 20.3003 111.874 19.8926H112.069L113.334 21.644Z" fill="#4BB5E6"/>
<path fill-rule="evenodd" clip-rule="evenodd" d="M93.5695 19.6975C94.4574 20.2057 95.8162 20.4439 96.8045 21.1495C97.7042 21.792 96.1754 23.5507 95.2444 23.5194C94.7648 23.5033 92.7919 22.3386 92.1522 21.9699C91.1493 21.3909 92.9911 19.3662 93.5695 19.6975Z" fill="#4BB5E6"/>
<path fill-rule="evenodd" clip-rule="evenodd" d="M114.406 24.7571C114.092 24.5273 112.945 23.3314 112.945 22.9086C112.945 22.5366 112.915 22.8735 113.057 22.6052L112.846 22.3196L113.139 22.2275C113.314 22.8818 114.617 24.2462 114.406 24.7571Z" fill="#2893D1"/>
<path fill-rule="evenodd" clip-rule="evenodd" d="M101.554 25.0493L98.3418 23.9794C98.3418 19.7632 102.2 22.2766 101.554 25.0493Z" fill="#4AB4E5"/>
<path fill-rule="evenodd" clip-rule="evenodd" d="M113.918 25.0487L113.822 25.6326C113.7 25.5997 113.062 24.8272 112.82 24.5896C112.469 24.2438 112.246 23.6592 112.458 23.2002C113.458 23.869 113.294 24.1161 113.918 25.0487Z" fill="#4BB5E6"/>
<path fill-rule="evenodd" clip-rule="evenodd" d="M74.001 18.4328C73.2642 19.8256 68.1857 24.8695 66.4856 25.7106C63.8239 27.0275 56.4898 23.6033 56.0247 22.485C55.5673 21.389 61.6631 15.8504 63.3872 15.3172C67.1488 14.1548 70.9148 16.9525 74.001 18.4328Z" fill="#BCE1F7"/>
<path fill-rule="evenodd" clip-rule="evenodd" d="M115.184 24.9521L116.256 26.8975C116.295 27.0481 116.645 27.7532 116.645 27.7738C116.645 27.9958 116.612 27.886 116.547 28.1632H116.256L116.061 27.9673C116.203 27.723 115.536 26.6293 115.347 26.2489C115.047 25.651 114.304 24.7468 115.184 24.9521Z" fill="#4BB5E6"/>
<path fill-rule="evenodd" clip-rule="evenodd" d="M116.061 27.9671L116.256 28.1629V28.8434C115.714 28.6989 114.699 27.0401 114.699 26.411C114.699 26.324 114.807 26.2163 114.893 26.2163C115.332 26.2163 115.616 27.6419 116.061 27.9671Z" fill="#2893D1"/>
<path fill-rule="evenodd" clip-rule="evenodd" d="M115.318 28.3329L115.087 28.6492H114.795C114.443 28.6492 113.716 26.861 113.528 26.5068L113.794 26.0718L115.318 28.3329Z" fill="#4BB5E6"/>
<path fill-rule="evenodd" clip-rule="evenodd" d="M70.3983 25.7302C70.9767 24.6381 75.5075 19.5195 76.6615 19.1608C79.061 18.4151 84.7921 21.1085 85.9818 22.2151C86.4458 22.6469 84.1952 29.2034 80.3556 28.6379C77.0525 28.1521 73.4599 25.7302 70.3983 25.7302Z" fill="#95D1F2"/>
<path fill-rule="evenodd" clip-rule="evenodd" d="M102.917 25.924C103.821 26.4232 104.271 26.295 104.556 27.507C104.797 28.5294 105.223 29.521 103.707 29.3704C101.143 29.1155 101.547 25.1665 102.917 25.924Z" fill="#4AB4E5"/>
<path fill-rule="evenodd" clip-rule="evenodd" d="M95.0317 24.9523C95.0317 33.0589 91.8519 29.463 86.2686 28.1634C87.1008 26.591 87.4701 23.5718 89.1663 22.9716C91.2713 22.227 93.798 24.9523 95.0317 24.9523Z" fill="#2893D1"/>
<path fill-rule="evenodd" clip-rule="evenodd" d="M96.7842 29.3283C96.7842 28.6066 96.6102 26.3253 97.1663 25.9578C97.6912 25.6114 99.9808 26.1368 100.394 26.5981C100.961 27.2323 100.765 29.5565 100.125 29.9587C99.4353 30.392 97.5283 29.5024 96.7842 29.3283Z" fill="#4BB5E6"/>
<path fill-rule="evenodd" clip-rule="evenodd" d="M108.077 32.4432C107.737 32.9502 107.073 33.4517 106.324 33.5136C106.324 32.4868 104.358 29.4268 106.13 29.4268H106.812C107.322 29.4268 108.02 31.7571 108.077 32.4432Z" fill="#4AB4E5"/>
<path fill-rule="evenodd" clip-rule="evenodd" d="M113.918 29.8164L113.382 31.2292L112.348 30.2157L112.196 30.3049L112.191 31.8199L111.043 30.3841L110.873 30.4919L110.652 31.8908L109.537 29.8164L108.969 29.8258L108.564 30.5945H108.369L108.735 30.2481L106.326 27.7047L106.21 27.8888L103.603 24.6219L101.177 21.2814L101.38 21.2317L99.5615 18.1334L99.2296 18.366L100.328 17.9527L100.381 17.7635L98.7304 15.9018L100.089 16.0439L100.189 15.9336L99.1365 14.3009L100.749 14.9034L100.801 14.8181L100.076 13.5L101.944 14.5408C101.944 12.863 101.381 13.4799 103.14 14.6111C104.388 15.4143 103.036 14.0878 104.159 14.8687C104.657 15.2162 104.602 15.4907 105.268 15.7913C107.552 16.8204 108.16 18.8188 109.506 19.7347C110.118 20.153 111.879 23.5505 112.44 24.5003C112.452 24.5193 113.2 26.8557 113.245 27.1062C113.416 28.0538 112.819 26.926 113.281 28.3835C113.473 28.9831 113.826 29.417 113.918 29.8164Z" fill="#1AA4DC"/>
<path fill-rule="evenodd" clip-rule="evenodd" d="M115.866 31.6655H115.282C115.078 31.1607 115.114 31.8038 114.829 31.1451C114.706 30.8595 114.656 30.6509 114.534 30.3698C114.361 29.9682 114.004 29.3073 113.92 28.9548L114.308 28.8438C115.073 29.3558 114.825 29.0875 115.223 30.0698C115.422 30.5578 115.752 31.1752 115.866 31.6655Z" fill="#4BB5E6"/>
<path fill-rule="evenodd" clip-rule="evenodd" d="M116.938 31.275L117.328 31.8596L117.5 32.7013L117.23 32.9299C116.623 32.5239 116.62 32.2779 116.367 31.5534C116.214 31.1144 115.805 30.3435 115.769 29.918L116.283 30.0463L116.938 31.275Z" fill="#2893D1"/>
<path fill-rule="evenodd" clip-rule="evenodd" d="M116.937 29.5242L117.226 29.6352L118.008 31.6649L118.479 33.0192L118.299 33.5134L118.158 33.4905L117.327 31.8596L116.937 31.275L116.547 30.0111H116.741C116.712 29.6525 116.463 29.329 116.937 29.5242Z" fill="#4BB5E6"/>
<path fill-rule="evenodd" clip-rule="evenodd" d="M117.814 36.8215L117.133 36.6263C117.121 36.1455 115.964 34.2837 115.964 33.1235C116.901 33.4627 116.798 33.8508 117.227 34.5859C117.466 34.9937 117.764 36.223 117.814 36.8215Z" fill="#4BB5E6"/>
<path fill-rule="evenodd" clip-rule="evenodd" d="M114.589 31.2103C114.754 31.8384 115.034 31.574 115.207 32.6153C115.3 33.1714 115.627 33.756 115.671 34.2925L115.608 34.369L114.917 33.7979L114.99 33.7086C114.459 33.6646 114.569 33.2902 114.367 32.7737C114.31 32.6287 113.919 31.6817 113.919 31.6655L113.931 30.9521L114.589 31.2103Z" fill="#4AB4E5"/>
<path fill-rule="evenodd" clip-rule="evenodd" d="M104.572 31.5677C104.976 31.9136 105.328 34.129 105.314 34.8898C105.288 36.345 103.353 36.6139 102.75 36.2201C102.425 36.0076 101.984 33.4519 101.997 32.9181C102.026 31.6576 103.975 31.0557 104.572 31.5677Z" fill="#4BB5E6"/>
<path fill-rule="evenodd" clip-rule="evenodd" d="M114.6 34.2915L114.794 35.7507C114.81 35.8533 114.74 35.9543 114.698 36.1395C114.183 36.0201 113.889 35.2124 113.554 34.8498C113.073 34.3283 113.042 33.7767 113.075 33.0265L113.042 32.1509C113.606 32.3009 114.486 33.5497 114.6 34.2915Z" fill="#4AB4E5"/>
<path fill-rule="evenodd" clip-rule="evenodd" d="M110.9 34.5832C110.9 34.6864 110.208 36.0752 110.122 36.2376C109.898 36.0741 108.662 33.1943 108.662 32.8323C108.662 32.1162 109.179 31.6181 109.732 31.4697C109.765 31.8585 110.18 32.684 110.388 32.9557C110.561 33.1799 110.9 34.345 110.9 34.5832Z" fill="#4AB4E5"/>
<path fill-rule="evenodd" clip-rule="evenodd" d="M100.385 32.0539C100.385 33.7573 101.698 36.4105 100.866 38.1731C100.173 39.6395 96.6947 39.0906 94.7593 39.2529L94.641 36.4323V33.5135C94.641 29.4301 98.6218 32.0935 100.385 32.0539Z" fill="#2893D1"/>
<path fill-rule="evenodd" clip-rule="evenodd" d="M112.848 37.017L111.387 34.6812C111.387 34.0632 111.209 33.931 111.205 33.613C111.198 33.1646 111.473 33.0323 111.484 32.5415C112.087 32.6809 112.695 33.6933 112.909 34.3297C113.313 35.5328 112.848 35.819 112.848 37.017Z" fill="#4AB4E5"/>
<path fill-rule="evenodd" clip-rule="evenodd" d="M115.612 35.7321C115.968 35.7846 115.947 35.972 116.268 36.3233C116.469 36.5437 116.376 36.5872 116.48 36.7924C116.602 37.0356 116.571 36.8237 116.78 37.1729C117.198 37.8628 117.035 38.6453 117.035 39.4485C117.035 39.8149 117.098 39.6332 117.12 40.0487L116.547 39.7408V39.4485C115.989 39.4016 116.262 39.1195 116.095 38.637C115.961 38.2493 115.819 38.2309 115.772 37.6943C115.689 36.7685 115.38 36.3167 115.457 35.4209L115.612 35.7321Z" fill="#4BB5E6"/>
<path fill-rule="evenodd" clip-rule="evenodd" d="M119.371 38.3779L118.889 38.4945L118.923 38.3969L118.661 38.2625L117.563 34.2204L117.716 33.9019H118.009C118.136 34.2555 118.352 34.1512 118.533 34.8379C118.657 35.3086 118.726 35.5311 118.827 36.003C118.981 36.7286 119.355 37.6779 119.371 38.3779Z" fill="#4BB5E6"/>
<path fill-rule="evenodd" clip-rule="evenodd" d="M120.247 39.3506C119.523 39.0884 119.47 37.5864 119.272 36.8228C118.975 35.675 118.76 35.1127 118.791 33.9112L118.981 33.8047C119.179 34.6519 120.484 38.7788 120.247 39.3506Z" fill="#4BB5E6"/>
<path fill-rule="evenodd" clip-rule="evenodd" d="M114.831 38.0299L114.91 38.4572L115.38 38.8644C115.38 39.623 115.671 39.9605 115.671 40.7129C115.671 40.7714 115.537 40.9142 115.477 41.0052C115.51 41.3917 115.575 41.2394 115.575 41.4915C115.575 41.8914 115.391 41.9522 115.299 42.515L114.303 41.1028L113.922 37.601L114.189 37.064L114.831 38.0299Z" fill="#4BB5E6"/>
<path fill-rule="evenodd" clip-rule="evenodd" d="M108.077 41.296C107.983 40.1631 105.759 35.3284 108.662 35.2637C109.231 37.7067 110.883 39.8134 108.077 41.296Z" fill="#4BB5E6"/>
<path fill-rule="evenodd" clip-rule="evenodd" d="M120.637 45.6758L120.963 45.6714L120.345 41.5891L120.497 40.4346L122 45.4812C121.603 45.7467 121.164 45.7757 121.046 46.2838L120.926 45.7863L120.637 45.6758Z" fill="#BCE1F7"/>
<path fill-rule="evenodd" clip-rule="evenodd" d="M118.389 38.3009C118.397 39.1638 118.995 39.4845 119.078 40.7143C119.149 41.7551 119.162 42.6387 119.371 43.535C119.106 43.4396 118.571 42.9192 118.374 42.6821C117.934 42.1517 118.083 41.9961 117.889 41.2214C117.785 40.8053 117.327 38.2691 117.341 37.8574L118.389 38.3009Z" fill="#2893D1"/>
<path fill-rule="evenodd" clip-rule="evenodd" d="M92.6936 32.0538C92.6936 36.077 93.5816 42.2699 88.8975 42.2699H87.1444C86.5532 42.2699 84.3528 41.682 83.423 41.6112C82.4112 41.5342 79.711 41.977 79.6028 41.1353C79.5549 40.7678 81.0067 35.0563 81.2092 34.0032C82.6588 26.4393 89.2556 32.0538 92.6936 32.0538Z" fill="#95D1F2"/>
<path fill-rule="evenodd" clip-rule="evenodd" d="M112.36 43.0489L111.219 40.3214L111.095 39.1568C111.15 39.0787 111.29 38.917 111.29 38.8651C111.29 38.1188 111.397 37.8081 111.581 37.0166C112.114 37.1588 112.828 39.0926 112.986 39.7971C113.239 40.9249 112.924 42.4008 112.36 43.0489Z" fill="#4BB5E6"/>
<path fill-rule="evenodd" clip-rule="evenodd" d="M79.5503 30.6923C79.2374 34.4438 76.8897 43.826 72.9301 43.826H70.9824C66.373 43.826 63.3382 40.9848 60.0786 40.7131C60.3993 36.8617 63.1776 30.0648 65.5336 28.3591C69.472 25.5089 76.2768 30.6923 79.5503 30.6923Z" fill="#BCE1F7"/>
<path fill-rule="evenodd" clip-rule="evenodd" d="M103.112 47.6214C103.112 44.9525 101.944 43.451 101.956 41.3081C101.973 38.3435 105.088 37.2809 105.901 38.3039C106.472 39.0217 107.58 42.8943 107.225 44.132C106.921 45.194 104.213 47.53 103.112 47.6214Z" fill="#2893D1"/>
<path fill-rule="evenodd" clip-rule="evenodd" d="M120.345 41.5886L120.963 45.6709L120.637 45.6754L120.199 45.5293L119.922 45.2783L119.176 39.7401C119.396 39.6894 119.401 39.6431 119.664 39.6431C120.016 39.6431 120.255 41.2021 120.345 41.5886Z" fill="#95D1F2"/>
<path fill-rule="evenodd" clip-rule="evenodd" d="M116.548 41.1032L118.219 47.6753L117.161 47.8684L115.771 40.9079L116.257 40.8115H116.548V41.1032Z" fill="#2893D1"/>
<path fill-rule="evenodd" clip-rule="evenodd" d="M114.795 50.735L113.04 42.0694L113.822 41.978C114.489 42.248 115.629 44.7574 115.671 45.8724C115.747 47.8419 114.933 49.0818 114.795 50.735Z" fill="#2893D1"/>
<path fill-rule="evenodd" clip-rule="evenodd" d="M110.608 41.2969C110.64 42.7197 112.139 43.2429 112.096 46.517C112.084 47.463 110.561 50.9808 110.03 50.7432C109.088 50.3243 107.005 42.2585 110.608 41.2969Z" fill="#2893D1"/>
<path fill-rule="evenodd" clip-rule="evenodd" d="M118.598 44.6035C119.386 44.8807 119.956 46.1982 119.956 46.4536V51.1237C119.956 53.1964 119.615 51.4958 118.884 51.4155C118.852 51.1249 118.203 49.7807 118.203 49.1772L118.161 48.0054L118.598 44.6035Z" fill="#95D1F2"/>
<path fill-rule="evenodd" clip-rule="evenodd" d="M103.598 61.535C103.598 58.6034 102.253 56.2352 102.452 52.8088C102.587 50.5058 105.996 47.3861 107.493 47.0381C107.72 49.7611 110.15 52.1684 108.7 55.7353C108.42 56.4242 103.987 61.4313 103.598 61.535Z" fill="#95D1F2"/>
<path fill-rule="evenodd" clip-rule="evenodd" d="M120.929 47.4267C120.929 47.9494 121.221 47.8863 121.221 48.2053L121.258 48.3047L121.026 53.7508H120.735L120.731 54.1255L120.194 54.217L120.052 53.7551L120.245 46.9287L120.929 46.8433V47.4267Z" fill="#BCE1F7"/>
<path fill-rule="evenodd" clip-rule="evenodd" d="M118.398 61.5348C115.295 61.4656 118.3 54.6854 118.3 52.2915H118.592C118.7 53.2721 120.187 52.3104 119.593 56.5969C119.38 58.1319 118.462 60.7684 118.398 61.5348Z" fill="#BCE1F7"/>
<path fill-rule="evenodd" clip-rule="evenodd" d="M116.84 57.7399C116.206 57.2753 115.026 54.5138 115.095 52.8913C115.178 50.9112 116.159 49.4816 116.159 47.3286C119.762 49.968 116.913 54.4714 116.84 57.7399Z" fill="#95D1F2"/>
<path fill-rule="evenodd" clip-rule="evenodd" d="M100.482 41.5892L101.778 49.5307L101.553 49.5675V49.8586C101.553 51.6479 99.1334 52.788 97.6692 53.2744C96.6742 53.6052 92.7614 55.2773 92.4017 55.3074C92.4017 45.4795 89.4288 41.2969 100.482 41.2969V41.5892Z" fill="#95D1F2"/>
<path fill-rule="evenodd" clip-rule="evenodd" d="M74.2364 51.9051C74.1238 47.4697 75.903 44.1187 80.2324 44.1187H81.7897L88.7936 44.8605L89.9688 44.8003V46.2594L90.313 52.2883L90.2611 55.1129C90.2611 61.7816 81.3658 60.854 74.58 60.854L74.2364 51.9051Z" fill="#BCE1F7"/>
<path fill-rule="evenodd" clip-rule="evenodd" d="M112.751 48.7886C112.884 50.3927 115.08 51.6309 114.276 55.2737C113.963 56.6977 111.795 60.3377 111.777 61.1453H111.484C111.484 59.1351 109.501 57.0982 109.992 54.5062C110.181 53.5045 112.235 49.0613 112.751 48.7886Z" fill="#95D1F2"/>
<path fill-rule="evenodd" clip-rule="evenodd" d="M114.601 56.2808C114.858 56.3494 116.105 58.6318 116.242 59.0183C116.678 60.2454 116.28 61.1255 115.917 62.3626C115.578 63.5217 113.758 67.812 113.07 67.9805C111.389 68.391 111.235 64.0298 111.991 62.2399C112.441 61.1752 114.601 57.3115 114.601 56.2808Z" fill="#BCE1F7"/>
<path fill-rule="evenodd" clip-rule="evenodd" d="M100.872 54.2373C100.872 58.3157 103.631 62.9781 100.989 66.0296C99.7616 67.4475 93.8716 71.3613 91.5256 71.3613C91.4509 68.0393 87.9213 63.0249 91.0175 59.3732C92.4588 57.6737 93.4304 57.3173 95.6263 56.4873C96.342 56.2163 100.805 54.2423 100.872 54.2373Z" fill="#BCE1F7"/>
<path fill-rule="evenodd" clip-rule="evenodd" d="M104.359 71.8062C102.633 69.497 102.163 66.1945 103.834 63.5217C104.24 62.8707 109.123 57.0806 109.245 58.0321C109.656 61.232 112.075 62.5679 109.686 66.5481C109.044 67.6179 105.211 72.9457 104.359 71.8062Z" fill="#BCE1F7"/>
</svg>
