<svg width="27" height="752" viewBox="0 0 27 752" fill="none" xmlns="http://www.w3.org/2000/svg">
<g clip-path="url(#clip0_734_21946)">
<g clip-path="url(#clip1_734_21946)">
<path d="M26.5664 23.5771L26.5664 17.9307L0.0946255 17.9307L0.0946252 23.5771L26.5664 23.5771Z" fill="#FFFCF4"/>
<path d="M27 20L27 18L1.90735e-06 18L1.81993e-06 20L27 20Z" fill="#DFDFDF"/>
<path d="M26.5664 11.1371L26.5664 5.49072L0.0946255 5.49072L0.0946252 11.1371L26.5664 11.1371Z" fill="#FFFCF4"/>
<path d="M27 7L27 5L1.90735e-06 5L1.81993e-06 7L27 7Z" fill="#DFDFDF"/>
<path d="M23.2461 27.028L23.2461 2L20.7542 2L20.7542 27.028L23.2461 27.028Z" fill="#DFDFDF"/>
<path d="M22.8906 27.028L22.8906 2L21.6447 2L21.6447 27.028L22.8906 27.028Z" fill="#ECECEC"/>
<path d="M5.89844 27.028L5.89844 2L3.40651 2L3.40651 27.028L5.89844 27.028Z" fill="#DFDFDF"/>
<path d="M5 27.028L5 2L3.75404 2L3.75404 27.028L5 27.028Z" fill="#ECECEC"/>
<path d="M26.5664 48.6049L26.5664 42.9585L0.0946255 42.9585L0.0946252 48.6049L26.5664 48.6049Z" fill="#FFFCF4"/>
<path d="M27 45L27 43L1.90735e-06 43L1.81993e-06 45L27 45Z" fill="#DFDFDF"/>
<path d="M26.5664 36.1649L26.5664 30.5186L0.0946255 30.5186L0.0946252 36.1649L26.5664 36.1649Z" fill="#FFFCF4"/>
<path d="M27 33L27 31L1.90735e-06 31L1.81993e-06 33L27 33Z" fill="#DFDFDF"/>
<path d="M23.2461 52.0559L23.2461 27.0278L20.7542 27.0278L20.7542 52.0559L23.2461 52.0559Z" fill="#DFDFDF"/>
<path d="M22.8906 52.0559L22.8906 27.0278L21.6447 27.0278L21.6447 52.0559L22.8906 52.0559Z" fill="#ECECEC"/>
<path d="M5.89844 52.0559L5.89844 27.0278L3.40651 27.0278L3.40651 52.0559L5.89844 52.0559Z" fill="#DFDFDF"/>
<path d="M5 52.0559L5 27.0278L3.75404 27.0278L3.75404 52.0559L5 52.0559Z" fill="#ECECEC"/>
<path d="M26.5664 73.6327L26.5664 67.9863L0.0946255 67.9863L0.0946252 73.6327L26.5664 73.6327Z" fill="#FFFCF4"/>
<path d="M27 69.9995L27 67.9995L1.90735e-06 67.9995L1.81993e-06 69.9995L27 69.9995Z" fill="#DFDFDF"/>
<path d="M26.5664 61.1928L26.5664 55.5464L0.0946255 55.5464L0.0946252 61.1928L26.5664 61.1928Z" fill="#FFFCF4"/>
<path d="M27 56.9995L27 54.9995L1.90735e-06 54.9995L1.81993e-06 56.9995L27 56.9995Z" fill="#DFDFDF"/>
<path d="M23.2461 77.0837L23.2461 52.0557L20.7542 52.0557L20.7542 77.0837L23.2461 77.0837Z" fill="#DFDFDF"/>
<path d="M22.8906 77.0837L22.8906 52.0557L21.6447 52.0557L21.6447 77.0837L22.8906 77.0837Z" fill="#ECECEC"/>
<path d="M5.89844 77.0837L5.89844 52.0557L3.40651 52.0557L3.40651 77.0837L5.89844 77.0837Z" fill="#DFDFDF"/>
<path d="M5 77.0837L5 52.0557L3.75404 52.0557L3.75404 77.0837L5 77.0837Z" fill="#ECECEC"/>
<path d="M26.5664 98.6605L26.5664 93.0142L0.0946255 93.0142L0.0946252 98.6605L26.5664 98.6605Z" fill="#FFFCF4"/>
<path d="M27 93.9995L27 91.9995L1.90735e-06 91.9995L1.81993e-06 93.9995L27 93.9995Z" fill="#DFDFDF"/>
<path d="M26.5664 86.2108L26.5664 80.5645L0.0946255 80.5645L0.0946252 86.2108L26.5664 86.2108Z" fill="#FFFCF4"/>
<path d="M27 81.9995L27 79.9995L1.90735e-06 79.9995L1.81993e-06 81.9995L27 81.9995Z" fill="#DFDFDF"/>
<path d="M23.2461 102.112L23.2461 77.0835L20.7542 77.0835L20.7542 102.112L23.2461 102.112Z" fill="#DFDFDF"/>
<path d="M22.8906 102.112L22.8906 77.0835L21.6447 77.0835L21.6447 102.112L22.8906 102.112Z" fill="#ECECEC"/>
<path d="M5.89844 102.112L5.89844 77.0835L3.40651 77.0835L3.40651 102.112L5.89844 102.112Z" fill="#DFDFDF"/>
<path d="M5 102.112L5 77.0835L3.75404 77.0835L3.75404 102.112L5 102.112Z" fill="#ECECEC"/>
<path d="M26.5664 123.688L26.5664 118.042L0.0946255 118.042L0.0946252 123.688L26.5664 123.688Z" fill="#FFFCF4"/>
<path d="M27 118.999L27 116.999L1.90735e-06 116.999L1.81993e-06 118.999L27 118.999Z" fill="#DFDFDF"/>
<path d="M26.5664 111.239L26.5664 105.592L0.0946255 105.592L0.0946252 111.239L26.5664 111.239Z" fill="#FFFCF4"/>
<path d="M27 106.999L27 104.999L1.90735e-06 104.999L1.81993e-06 106.999L27 106.999Z" fill="#DFDFDF"/>
<path d="M23.2461 127.139L23.2461 102.111L20.7542 102.111L20.7542 127.139L23.2461 127.139Z" fill="#DFDFDF"/>
<path d="M22.8906 127.139L22.8906 102.111L21.6447 102.111L21.6447 127.139L22.8906 127.139Z" fill="#ECECEC"/>
<path d="M5.89844 127.139L5.89844 102.111L3.40651 102.111L3.40651 127.139L5.89844 127.139Z" fill="#DFDFDF"/>
<path d="M5 127.139L5 102.111L3.75404 102.111L3.75404 127.139L5 127.139Z" fill="#ECECEC"/>
<path d="M26.5664 148.716L26.5664 143.07L0.0946255 143.07L0.0946252 148.716L26.5664 148.716Z" fill="#FFFCF4"/>
<path d="M27 144L27 142L1.90735e-06 142L1.81993e-06 144L27 144Z" fill="#DFDFDF"/>
<path d="M26.5664 136.266L26.5664 130.62L0.0946255 130.62L0.0946252 136.266L26.5664 136.266Z" fill="#FFFCF4"/>
<path d="M27 132L27 130L1.90735e-06 130L1.81993e-06 132L27 132Z" fill="#DFDFDF"/>
<path d="M23.2461 152.167L23.2461 127.139L20.7542 127.139L20.7542 152.167L23.2461 152.167Z" fill="#DFDFDF"/>
<path d="M22.8906 152.167L22.8906 127.139L21.6447 127.139L21.6447 152.167L22.8906 152.167Z" fill="#ECECEC"/>
<path d="M5.89844 152.167L5.89844 127.139L3.40651 127.139L3.40651 152.167L5.89844 152.167Z" fill="#DFDFDF"/>
<path d="M5 152.167L5 127.139L3.75404 127.139L3.75404 152.167L5 152.167Z" fill="#ECECEC"/>
<path d="M26.5664 173.744L26.5664 168.098L0.0946255 168.098L0.0946252 173.744L26.5664 173.744Z" fill="#FFFCF4"/>
<path d="M27 168.999L27 166.999L1.90735e-06 166.999L1.81993e-06 168.999L27 168.999Z" fill="#DFDFDF"/>
<path d="M26.5664 161.294L26.5664 155.648L0.0946255 155.648L0.0946252 161.294L26.5664 161.294Z" fill="#FFFCF4"/>
<path d="M27 156.999L27 154.999L1.90735e-06 154.999L1.81993e-06 156.999L27 156.999Z" fill="#DFDFDF"/>
<path d="M23.2461 177.195L23.2461 152.167L20.7542 152.167L20.7542 177.195L23.2461 177.195Z" fill="#DFDFDF"/>
<path d="M22.8906 177.195L22.8906 152.167L21.6447 152.167L21.6447 177.195L22.8906 177.195Z" fill="#ECECEC"/>
<path d="M5.89844 177.195L5.89844 152.167L3.40651 152.167L3.40651 177.195L5.89844 177.195Z" fill="#DFDFDF"/>
<path d="M5 177.195L5 152.167L3.75404 152.167L3.75404 177.195L5 177.195Z" fill="#ECECEC"/>
<path d="M26.5664 198.772L26.5664 193.125L0.0946255 193.125L0.0946252 198.772L26.5664 198.772Z" fill="#FFFCF4"/>
<path d="M27 194.999L27 192.999L1.90735e-06 192.999L1.81993e-06 194.999L27 194.999Z" fill="#DFDFDF"/>
<path d="M26.5664 186.322L26.5664 180.676L0.0946255 180.676L0.0946252 186.322L26.5664 186.322Z" fill="#FFFCF4"/>
<path d="M27 181.999L27 179.999L1.90735e-06 179.999L1.81993e-06 181.999L27 181.999Z" fill="#DFDFDF"/>
<path d="M23.2461 202.223L23.2461 177.195L20.7542 177.195L20.7542 202.223L23.2461 202.223Z" fill="#DFDFDF"/>
<path d="M22.8906 202.223L22.8906 177.195L21.6447 177.195L21.6447 202.223L22.8906 202.223Z" fill="#ECECEC"/>
<path d="M5.89844 202.223L5.89844 177.195L3.40651 177.195L3.40651 202.223L5.89844 202.223Z" fill="#DFDFDF"/>
<path d="M5 202.223L5 177.195L3.75404 177.195L3.75404 202.223L5 202.223Z" fill="#ECECEC"/>
<path d="M26.5664 223.8L26.5664 218.153L0.0946255 218.153L0.0946252 223.8L26.5664 223.8Z" fill="#FFFCF4"/>
<path d="M27 219.998L27 217.998L1.90735e-06 217.998L1.81993e-06 219.998L27 219.998Z" fill="#DFDFDF"/>
<path d="M26.5664 211.35L26.5664 205.704L0.0946255 205.704L0.0946252 211.35L26.5664 211.35Z" fill="#FFFCF4"/>
<path d="M27 206.998L27 204.998L1.90735e-06 204.998L1.81993e-06 206.998L27 206.998Z" fill="#DFDFDF"/>
<path d="M23.2461 227.251L23.2461 202.223L20.7542 202.223L20.7542 227.251L23.2461 227.251Z" fill="#DFDFDF"/>
<path d="M22.8906 227.251L22.8906 202.223L21.6447 202.223L21.6447 227.251L22.8906 227.251Z" fill="#ECECEC"/>
<path d="M5.89844 227.251L5.89844 202.223L3.40651 202.223L3.40651 227.251L5.89844 227.251Z" fill="#DFDFDF"/>
<path d="M5 227.251L5 202.223L3.75404 202.223L3.75404 227.251L5 227.251Z" fill="#ECECEC"/>
<path d="M26.5664 248.838L26.5664 243.191L0.0946255 243.191L0.0946252 248.838L26.5664 248.838Z" fill="#FFFCF4"/>
<path d="M27 245L27 243L1.90735e-06 243L1.81993e-06 245L27 245Z" fill="#DFDFDF"/>
<path d="M26.5664 236.388L26.5664 230.741L0.0946255 230.741L0.0946252 236.388L26.5664 236.388Z" fill="#FFFCF4"/>
<path d="M27 231.008L27 229.008L1.90735e-06 229.008L1.81993e-06 231.008L27 231.008Z" fill="#DFDFDF"/>
<path d="M23.2461 252.279L23.2461 227.25L20.7542 227.25L20.7542 252.279L23.2461 252.279Z" fill="#DFDFDF"/>
<path d="M22.8906 252.279L22.8906 227.25L21.6447 227.25L21.6447 252.279L22.8906 252.279Z" fill="#ECECEC"/>
<path d="M5.89844 252.279L5.89844 227.25L3.40651 227.25L3.40651 252.279L5.89844 252.279Z" fill="#DFDFDF"/>
<path d="M5 252.279L5 227.25L3.75404 227.25L3.75404 252.279L5 252.279Z" fill="#ECECEC"/>
<path d="M26.5664 271.865L26.5664 266.219L0.0946255 266.219L0.0946252 271.865L26.5664 271.865Z" fill="#FFFCF4"/>
<path d="M27 268L27 266L1.90735e-06 266L1.81993e-06 268L27 268Z" fill="#DFDFDF"/>
<path d="M26.5664 261.415L26.5664 255.769L0.0946255 255.769L0.0946252 261.415L26.5664 261.415Z" fill="#FFFCF4"/>
<path d="M27 257L27 255L1.90735e-06 255L1.81993e-06 257L27 257Z" fill="#DFDFDF"/>
<path d="M23.2461 277.306L23.2461 252.278L20.7542 252.278L20.7542 277.306L23.2461 277.306Z" fill="#DFDFDF"/>
<path d="M22.8906 277.306L22.8906 252.278L21.6447 252.278L21.6447 277.306L22.8906 277.306Z" fill="#ECECEC"/>
<path d="M5.89844 277.306L5.89844 252.278L3.40651 252.278L3.40651 277.306L5.89844 277.306Z" fill="#DFDFDF"/>
<path d="M5 277.306L5 252.278L3.75404 252.278L3.75404 277.306L5 277.306Z" fill="#ECECEC"/>
</g>
<g clip-path="url(#clip2_734_21946)">
<path d="M26.5664 296.577L26.5664 290.93L0.0946255 290.93L0.0946252 296.577L26.5664 296.577Z" fill="#FFFCF4"/>
<path d="M27 293L27 291L1.90735e-06 291L1.81993e-06 293L27 293Z" fill="#DFDFDF"/>
<path d="M26.5664 284.137L26.5664 278.491L0.0946255 278.491L0.0946252 284.137L26.5664 284.137Z" fill="#FFFCF4"/>
<path d="M27 280L27 278L1.90735e-06 278L1.81993e-06 280L27 280Z" fill="#DFDFDF"/>
<path d="M23.2461 300.028L23.2461 275L20.7542 275L20.7542 300.028L23.2461 300.028Z" fill="#DFDFDF"/>
<path d="M22.8906 300.028L22.8906 275L21.6447 275L21.6447 300.028L22.8906 300.028Z" fill="#ECECEC"/>
<path d="M5.89844 300.028L5.89844 275L3.40651 275L3.40651 300.028L5.89844 300.028Z" fill="#DFDFDF"/>
<path d="M5 300.028L5 275L3.75404 275L3.75404 300.028L5 300.028Z" fill="#ECECEC"/>
<path d="M26.5664 321.605L26.5664 315.958L0.0946255 315.958L0.0946252 321.605L26.5664 321.605Z" fill="#FFFCF4"/>
<path d="M27 318L27 316L1.90735e-06 316L1.81993e-06 318L27 318Z" fill="#DFDFDF"/>
<path d="M26.5664 309.165L26.5664 303.519L0.0946255 303.519L0.0946252 309.165L26.5664 309.165Z" fill="#FFFCF4"/>
<path d="M27 306L27 304L1.90735e-06 304L1.81993e-06 306L27 306Z" fill="#DFDFDF"/>
<path d="M23.2461 325.056L23.2461 300.028L20.7542 300.028L20.7542 325.056L23.2461 325.056Z" fill="#DFDFDF"/>
<path d="M22.8906 325.056L22.8906 300.028L21.6447 300.028L21.6447 325.056L22.8906 325.056Z" fill="#ECECEC"/>
<path d="M5.89844 325.056L5.89844 300.028L3.40651 300.028L3.40651 325.056L5.89844 325.056Z" fill="#DFDFDF"/>
<path d="M5 325.056L5 300.028L3.75404 300.028L3.75404 325.056L5 325.056Z" fill="#ECECEC"/>
<path d="M26.5664 346.632L26.5664 340.986L0.0946255 340.986L0.0946252 346.632L26.5664 346.632Z" fill="#FFFCF4"/>
<path d="M27 343L27 341L1.90735e-06 341L1.81993e-06 343L27 343Z" fill="#DFDFDF"/>
<path d="M26.5664 334.193L26.5664 328.546L0.0946255 328.546L0.0946252 334.193L26.5664 334.193Z" fill="#FFFCF4"/>
<path d="M27 330L27 328L1.90735e-06 328L1.81993e-06 330L27 330Z" fill="#DFDFDF"/>
<path d="M23.2461 350.084L23.2461 325.056L20.7542 325.056L20.7542 350.084L23.2461 350.084Z" fill="#DFDFDF"/>
<path d="M22.8906 350.084L22.8906 325.056L21.6447 325.056L21.6447 350.084L22.8906 350.084Z" fill="#ECECEC"/>
<path d="M5.89844 350.084L5.89844 325.056L3.40651 325.056L3.40651 350.084L5.89844 350.084Z" fill="#DFDFDF"/>
<path d="M5 350.084L5 325.056L3.75404 325.056L3.75404 350.084L5 350.084Z" fill="#ECECEC"/>
<path d="M26.5664 371.66L26.5664 366.014L0.0946255 366.014L0.0946252 371.66L26.5664 371.66Z" fill="#FFFCF4"/>
<path d="M27 367L27 365L1.90735e-06 365L1.81993e-06 367L27 367Z" fill="#DFDFDF"/>
<path d="M26.5664 359.211L26.5664 353.564L0.0946255 353.564L0.0946252 359.211L26.5664 359.211Z" fill="#FFFCF4"/>
<path d="M27 355L27 353L1.90735e-06 353L1.81993e-06 355L27 355Z" fill="#DFDFDF"/>
<path d="M23.2461 375.112L23.2461 350.083L20.7542 350.083L20.7542 375.112L23.2461 375.112Z" fill="#DFDFDF"/>
<path d="M22.8906 375.112L22.8906 350.083L21.6447 350.083L21.6447 375.112L22.8906 375.112Z" fill="#ECECEC"/>
<path d="M5.89844 375.112L5.89844 350.083L3.40651 350.083L3.40651 375.112L5.89844 375.112Z" fill="#DFDFDF"/>
<path d="M5 375.112L5 350.083L3.75404 350.083L3.75404 375.112L5 375.112Z" fill="#ECECEC"/>
<path d="M26.5664 396.688L26.5664 391.042L0.0946255 391.042L0.0946252 396.688L26.5664 396.688Z" fill="#FFFCF4"/>
<path d="M27 391.999L27 389.999L1.90735e-06 389.999L1.81993e-06 391.999L27 391.999Z" fill="#DFDFDF"/>
<path d="M26.5664 384.239L26.5664 378.592L0.0946255 378.592L0.0946252 384.239L26.5664 384.239Z" fill="#FFFCF4"/>
<path d="M27 379.999L27 377.999L1.90735e-06 377.999L1.81993e-06 379.999L27 379.999Z" fill="#DFDFDF"/>
<path d="M23.2461 400.139L23.2461 375.111L20.7542 375.111L20.7542 400.139L23.2461 400.139Z" fill="#DFDFDF"/>
<path d="M22.8906 400.139L22.8906 375.111L21.6447 375.111L21.6447 400.139L22.8906 400.139Z" fill="#ECECEC"/>
<path d="M5.89844 400.139L5.89844 375.111L3.40651 375.111L3.40651 400.139L5.89844 400.139Z" fill="#DFDFDF"/>
<path d="M5 400.139L5 375.111L3.75404 375.111L3.75404 400.139L5 400.139Z" fill="#ECECEC"/>
<path d="M26.5664 421.716L26.5664 416.07L0.0946255 416.07L0.0946252 421.716L26.5664 421.716Z" fill="#FFFCF4"/>
<path d="M27 417L27 415L1.90735e-06 415L1.81993e-06 417L27 417Z" fill="#DFDFDF"/>
<path d="M26.5664 409.266L26.5664 403.62L0.0946255 403.62L0.0946252 409.266L26.5664 409.266Z" fill="#FFFCF4"/>
<path d="M27 405L27 403L1.90735e-06 403L1.81993e-06 405L27 405Z" fill="#DFDFDF"/>
<path d="M23.2461 425.167L23.2461 400.139L20.7542 400.139L20.7542 425.167L23.2461 425.167Z" fill="#DFDFDF"/>
<path d="M22.8906 425.167L22.8906 400.139L21.6447 400.139L21.6447 425.167L22.8906 425.167Z" fill="#ECECEC"/>
<path d="M5.89844 425.167L5.89844 400.139L3.40651 400.139L3.40651 425.167L5.89844 425.167Z" fill="#DFDFDF"/>
<path d="M5 425.167L5 400.139L3.75404 400.139L3.75404 425.167L5 425.167Z" fill="#ECECEC"/>
<path d="M26.5664 446.744L26.5664 441.097L0.0946255 441.097L0.0946252 446.744L26.5664 446.744Z" fill="#FFFCF4"/>
<path d="M27 441.999L27 439.999L1.90735e-06 439.999L1.81993e-06 441.999L27 441.999Z" fill="#DFDFDF"/>
<path d="M26.5664 434.294L26.5664 428.648L0.0946255 428.648L0.0946252 434.294L26.5664 434.294Z" fill="#FFFCF4"/>
<path d="M27 429.999L27 427.999L1.90735e-06 427.999L1.81993e-06 429.999L27 429.999Z" fill="#DFDFDF"/>
<path d="M23.2461 450.195L23.2461 425.167L20.7542 425.167L20.7542 450.195L23.2461 450.195Z" fill="#DFDFDF"/>
<path d="M22.8906 450.195L22.8906 425.167L21.6447 425.167L21.6447 450.195L22.8906 450.195Z" fill="#ECECEC"/>
<path d="M5.89844 450.195L5.89844 425.167L3.40651 425.167L3.40651 450.195L5.89844 450.195Z" fill="#DFDFDF"/>
<path d="M5 450.195L5 425.167L3.75404 425.167L3.75404 450.195L5 450.195Z" fill="#ECECEC"/>
<path d="M26.5664 471.772L26.5664 466.125L0.0946255 466.125L0.0946252 471.772L26.5664 471.772Z" fill="#FFFCF4"/>
<path d="M27 467.999L27 465.999L1.90735e-06 465.999L1.81993e-06 467.999L27 467.999Z" fill="#DFDFDF"/>
<path d="M26.5664 459.322L26.5664 453.676L0.0946255 453.676L0.0946252 459.322L26.5664 459.322Z" fill="#FFFCF4"/>
<path d="M27 454.999L27 452.999L1.90735e-06 452.999L1.81993e-06 454.999L27 454.999Z" fill="#DFDFDF"/>
<path d="M23.2461 475.223L23.2461 450.195L20.7542 450.195L20.7542 475.223L23.2461 475.223Z" fill="#DFDFDF"/>
<path d="M22.8906 475.223L22.8906 450.195L21.6447 450.195L21.6447 475.223L22.8906 475.223Z" fill="#ECECEC"/>
<path d="M5.89844 475.223L5.89844 450.195L3.40651 450.195L3.40651 475.223L5.89844 475.223Z" fill="#DFDFDF"/>
<path d="M5 475.223L5 450.195L3.75404 450.195L3.75404 475.223L5 475.223Z" fill="#ECECEC"/>
<path d="M26.5664 496.799L26.5664 491.153L0.0946255 491.153L0.0946252 496.799L26.5664 496.799Z" fill="#FFFCF4"/>
<path d="M27 492.998L27 490.998L1.90735e-06 490.998L1.81993e-06 492.998L27 492.998Z" fill="#DFDFDF"/>
<path d="M26.5664 484.35L26.5664 478.704L0.0946255 478.704L0.0946252 484.35L26.5664 484.35Z" fill="#FFFCF4"/>
<path d="M27 479.998L27 477.998L1.90735e-06 477.998L1.81993e-06 479.998L27 479.998Z" fill="#DFDFDF"/>
<path d="M23.2461 500.251L23.2461 475.223L20.7542 475.223L20.7542 500.251L23.2461 500.251Z" fill="#DFDFDF"/>
<path d="M22.8906 500.251L22.8906 475.223L21.6447 475.223L21.6447 500.251L22.8906 500.251Z" fill="#ECECEC"/>
<path d="M5.89844 500.251L5.89844 475.223L3.40651 475.223L3.40651 500.251L5.89844 500.251Z" fill="#DFDFDF"/>
<path d="M5 500.251L5 475.223L3.75404 475.223L3.75404 500.251L5 500.251Z" fill="#ECECEC"/>
<path d="M26.5664 521.838L26.5664 516.191L0.0946255 516.191L0.0946252 521.838L26.5664 521.838Z" fill="#FFFCF4"/>
<path d="M27 518L27 516L1.90735e-06 516L1.81993e-06 518L27 518Z" fill="#DFDFDF"/>
<path d="M26.5664 509.388L26.5664 503.741L0.0946255 503.741L0.0946252 509.388L26.5664 509.388Z" fill="#FFFCF4"/>
<path d="M27 504.008L27 502.008L1.90735e-06 502.008L1.81993e-06 504.008L27 504.008Z" fill="#DFDFDF"/>
<path d="M23.2461 525.279L23.2461 500.25L20.7542 500.25L20.7542 525.279L23.2461 525.279Z" fill="#DFDFDF"/>
<path d="M22.8906 525.279L22.8906 500.25L21.6447 500.25L21.6447 525.279L22.8906 525.279Z" fill="#ECECEC"/>
<path d="M5.89844 525.279L5.89844 500.25L3.40651 500.25L3.40651 525.279L5.89844 525.279Z" fill="#DFDFDF"/>
<path d="M5 525.279L5 500.25L3.75404 500.25L3.75404 525.279L5 525.279Z" fill="#ECECEC"/>
<path d="M26.5664 544.865L26.5664 539.219L0.0946255 539.219L0.0946252 544.865L26.5664 544.865Z" fill="#FFFCF4"/>
<path d="M27 541L27 539L1.90735e-06 539L1.81993e-06 541L27 541Z" fill="#DFDFDF"/>
<path d="M26.5664 534.415L26.5664 528.769L0.0946255 528.769L0.0946252 534.415L26.5664 534.415Z" fill="#FFFCF4"/>
<path d="M27 530L27 528L1.90735e-06 528L1.81993e-06 530L27 530Z" fill="#DFDFDF"/>
<path d="M23.2461 550.306L23.2461 525.278L20.7542 525.278L20.7542 550.306L23.2461 550.306Z" fill="#DFDFDF"/>
<path d="M22.8906 550.306L22.8906 525.278L21.6447 525.278L21.6447 550.306L22.8906 550.306Z" fill="#ECECEC"/>
<path d="M5.89844 550.306L5.89844 525.278L3.40651 525.278L3.40651 550.306L5.89844 550.306Z" fill="#DFDFDF"/>
<path d="M5 550.306L5 525.278L3.75404 525.278L3.75404 550.306L5 550.306Z" fill="#ECECEC"/>
</g>
<g clip-path="url(#clip3_734_21946)">
<path d="M26.5664 569.577L26.5664 563.93L0.0946255 563.93L0.0946252 569.577L26.5664 569.577Z" fill="#FFFCF4"/>
<path d="M27 566L27 564L1.90735e-06 564L1.81993e-06 566L27 566Z" fill="#DFDFDF"/>
<path d="M26.5664 557.137L26.5664 551.491L0.0946255 551.491L0.0946252 557.137L26.5664 557.137Z" fill="#FFFCF4"/>
<path d="M27 553L27 551L1.90735e-06 551L1.81993e-06 553L27 553Z" fill="#DFDFDF"/>
<path d="M23.2461 573.028L23.2461 548L20.7542 548L20.7542 573.028L23.2461 573.028Z" fill="#DFDFDF"/>
<path d="M22.8906 573.028L22.8906 548L21.6447 548L21.6447 573.028L22.8906 573.028Z" fill="#ECECEC"/>
<path d="M5.89844 573.028L5.89844 548L3.40651 548L3.40651 573.028L5.89844 573.028Z" fill="#DFDFDF"/>
<path d="M5 573.028L5 548L3.75404 548L3.75404 573.028L5 573.028Z" fill="#ECECEC"/>
<path d="M26.5664 594.605L26.5664 588.958L0.0946255 588.958L0.0946252 594.605L26.5664 594.605Z" fill="#FFFCF4"/>
<path d="M27 591L27 589L1.90735e-06 589L1.81993e-06 591L27 591Z" fill="#DFDFDF"/>
<path d="M26.5664 582.165L26.5664 576.519L0.0946255 576.519L0.0946252 582.165L26.5664 582.165Z" fill="#FFFCF4"/>
<path d="M27 579L27 577L1.90735e-06 577L1.81993e-06 579L27 579Z" fill="#DFDFDF"/>
<path d="M23.2461 598.056L23.2461 573.028L20.7542 573.028L20.7542 598.056L23.2461 598.056Z" fill="#DFDFDF"/>
<path d="M22.8906 598.056L22.8906 573.028L21.6447 573.028L21.6447 598.056L22.8906 598.056Z" fill="#ECECEC"/>
<path d="M5.89844 598.056L5.89844 573.028L3.40651 573.028L3.40651 598.056L5.89844 598.056Z" fill="#DFDFDF"/>
<path d="M5 598.056L5 573.028L3.75404 573.028L3.75404 598.056L5 598.056Z" fill="#ECECEC"/>
<path d="M26.5664 619.632L26.5664 613.986L0.0946255 613.986L0.0946252 619.632L26.5664 619.632Z" fill="#FFFCF4"/>
<path d="M27 616L27 614L1.90735e-06 614L1.81993e-06 616L27 616Z" fill="#DFDFDF"/>
<path d="M26.5664 607.193L26.5664 601.546L0.0946255 601.546L0.0946252 607.193L26.5664 607.193Z" fill="#FFFCF4"/>
<path d="M27 603L27 601L1.90735e-06 601L1.81993e-06 603L27 603Z" fill="#DFDFDF"/>
<path d="M23.2461 623.084L23.2461 598.056L20.7542 598.056L20.7542 623.084L23.2461 623.084Z" fill="#DFDFDF"/>
<path d="M22.8906 623.084L22.8906 598.056L21.6447 598.056L21.6447 623.084L22.8906 623.084Z" fill="#ECECEC"/>
<path d="M5.89844 623.084L5.89844 598.056L3.40651 598.056L3.40651 623.084L5.89844 623.084Z" fill="#DFDFDF"/>
<path d="M5 623.084L5 598.056L3.75404 598.056L3.75404 623.084L5 623.084Z" fill="#ECECEC"/>
<path d="M26.5664 644.66L26.5664 639.014L0.0946255 639.014L0.0946252 644.66L26.5664 644.66Z" fill="#FFFCF4"/>
<path d="M27 640L27 638L1.90735e-06 638L1.81993e-06 640L27 640Z" fill="#DFDFDF"/>
<path d="M26.5664 632.211L26.5664 626.564L0.0946255 626.564L0.0946252 632.211L26.5664 632.211Z" fill="#FFFCF4"/>
<path d="M27 628L27 626L1.90735e-06 626L1.81993e-06 628L27 628Z" fill="#DFDFDF"/>
<path d="M23.2461 648.112L23.2461 623.083L20.7542 623.083L20.7542 648.112L23.2461 648.112Z" fill="#DFDFDF"/>
<path d="M22.8906 648.112L22.8906 623.083L21.6447 623.083L21.6447 648.112L22.8906 648.112Z" fill="#ECECEC"/>
<path d="M5.89844 648.112L5.89844 623.083L3.40651 623.083L3.40651 648.112L5.89844 648.112Z" fill="#DFDFDF"/>
<path d="M5 648.112L5 623.083L3.75404 623.083L3.75404 648.112L5 648.112Z" fill="#ECECEC"/>
<path d="M26.5664 669.688L26.5664 664.042L0.0946255 664.042L0.0946252 669.688L26.5664 669.688Z" fill="#FFFCF4"/>
<path d="M27 664.999L27 662.999L1.90735e-06 662.999L1.81993e-06 664.999L27 664.999Z" fill="#DFDFDF"/>
<path d="M26.5664 657.239L26.5664 651.592L0.0946255 651.592L0.0946252 657.239L26.5664 657.239Z" fill="#FFFCF4"/>
<path d="M27 652.999L27 650.999L1.90735e-06 650.999L1.81993e-06 652.999L27 652.999Z" fill="#DFDFDF"/>
<path d="M23.2461 673.139L23.2461 648.111L20.7542 648.111L20.7542 673.139L23.2461 673.139Z" fill="#DFDFDF"/>
<path d="M22.8906 673.139L22.8906 648.111L21.6447 648.111L21.6447 673.139L22.8906 673.139Z" fill="#ECECEC"/>
<path d="M5.89844 673.139L5.89844 648.111L3.40651 648.111L3.40651 673.139L5.89844 673.139Z" fill="#DFDFDF"/>
<path d="M5 673.139L5 648.111L3.75404 648.111L3.75404 673.139L5 673.139Z" fill="#ECECEC"/>
<path d="M26.5664 694.716L26.5664 689.07L0.0946255 689.07L0.0946252 694.716L26.5664 694.716Z" fill="#FFFCF4"/>
<path d="M27 690L27 688L1.90735e-06 688L1.81993e-06 690L27 690Z" fill="#DFDFDF"/>
<path d="M26.5664 682.266L26.5664 676.62L0.0946255 676.62L0.0946252 682.266L26.5664 682.266Z" fill="#FFFCF4"/>
<path d="M27 678L27 676L1.90735e-06 676L1.81993e-06 678L27 678Z" fill="#DFDFDF"/>
<path d="M23.2461 698.167L23.2461 673.139L20.7542 673.139L20.7542 698.167L23.2461 698.167Z" fill="#DFDFDF"/>
<path d="M22.8906 698.167L22.8906 673.139L21.6447 673.139L21.6447 698.167L22.8906 698.167Z" fill="#ECECEC"/>
<path d="M5.89844 698.167L5.89844 673.139L3.40651 673.139L3.40651 698.167L5.89844 698.167Z" fill="#DFDFDF"/>
<path d="M5 698.167L5 673.139L3.75404 673.139L3.75404 698.167L5 698.167Z" fill="#ECECEC"/>
<path d="M26.5664 719.744L26.5664 714.097L0.0946255 714.097L0.0946252 719.744L26.5664 719.744Z" fill="#FFFCF4"/>
<path d="M27 714.999L27 712.999L1.90735e-06 712.999L1.81993e-06 714.999L27 714.999Z" fill="#DFDFDF"/>
<path d="M26.5664 707.294L26.5664 701.648L0.0946255 701.648L0.0946252 707.294L26.5664 707.294Z" fill="#FFFCF4"/>
<path d="M27 702.999L27 700.999L1.90735e-06 700.999L1.81993e-06 702.999L27 702.999Z" fill="#DFDFDF"/>
<path d="M23.2461 723.195L23.2461 698.167L20.7542 698.167L20.7542 723.195L23.2461 723.195Z" fill="#DFDFDF"/>
<path d="M22.8906 723.195L22.8906 698.167L21.6447 698.167L21.6447 723.195L22.8906 723.195Z" fill="#ECECEC"/>
<path d="M5.89844 723.195L5.89844 698.167L3.40651 698.167L3.40651 723.195L5.89844 723.195Z" fill="#DFDFDF"/>
<path d="M5 723.195L5 698.167L3.75404 698.167L3.75404 723.195L5 723.195Z" fill="#ECECEC"/>
<path d="M26.5664 744.772L26.5664 739.125L0.0946255 739.125L0.0946252 744.772L26.5664 744.772Z" fill="#FFFCF4"/>
<path d="M27 740.999L27 738.999L1.90735e-06 738.999L1.81993e-06 740.999L27 740.999Z" fill="#DFDFDF"/>
<path d="M26.5664 732.322L26.5664 726.676L0.0946255 726.676L0.0946252 732.322L26.5664 732.322Z" fill="#FFFCF4"/>
<path d="M27 727.999L27 725.999L1.90735e-06 725.999L1.81993e-06 727.999L27 727.999Z" fill="#DFDFDF"/>
<path d="M23.2461 748.223L23.2461 723.195L20.7542 723.195L20.7542 748.223L23.2461 748.223Z" fill="#DFDFDF"/>
<path d="M22.8906 748.223L22.8906 723.195L21.6447 723.195L21.6447 748.223L22.8906 748.223Z" fill="#ECECEC"/>
<path d="M5.89844 748.223L5.89844 723.195L3.40651 723.195L3.40651 748.223L5.89844 748.223Z" fill="#DFDFDF"/>
<path d="M5 748.223L5 723.195L3.75404 723.195L3.75404 748.223L5 748.223Z" fill="#ECECEC"/>
<path d="M26.5664 757.35L26.5664 751.704L0.0946255 751.704L0.0946252 757.35L26.5664 757.35Z" fill="#FFFCF4"/>
<path d="M27 752.998L27 750.998L1.90735e-06 750.998L1.81993e-06 752.998L27 752.998Z" fill="#DFDFDF"/>
<path d="M23.2461 773.251L23.2461 748.223L20.7542 748.223L20.7542 773.251L23.2461 773.251Z" fill="#DFDFDF"/>
<path d="M22.8906 773.251L22.8906 748.223L21.6447 748.223L21.6447 773.251L22.8906 773.251Z" fill="#ECECEC"/>
<path d="M5.89844 773.251L5.89844 748.223L3.40651 748.223L3.40651 773.251L5.89844 773.251Z" fill="#DFDFDF"/>
<path d="M5 773.251L5 748.223L3.75404 748.223L3.75404 773.251L5 773.251Z" fill="#ECECEC"/>
</g>
</g>
<defs>
<clipPath id="clip0_734_21946">
<rect width="26.7863" height="752" fill="white"/>
</clipPath>
<clipPath id="clip1_734_21946">
<rect width="275" height="27" fill="white" transform="translate(27 2) rotate(90)"/>
</clipPath>
<clipPath id="clip2_734_21946">
<rect width="275" height="27" fill="white" transform="translate(27 275) rotate(90)"/>
</clipPath>
<clipPath id="clip3_734_21946">
<rect width="275" height="27" fill="white" transform="translate(27 548) rotate(90)"/>
</clipPath>
</defs>
</svg>
