<svg width="21" height="20" viewBox="0 0 21 20" fill="none" xmlns="http://www.w3.org/2000/svg">
<g clip-path="url(#clip0_462_16742)">
<path d="M10.5 20.0002C16.0228 20.0002 20.5 15.523 20.5 10.0002C20.5 4.47734 16.0228 0.000183105 10.5 0.000183105C4.97715 0.000183105 0.5 4.47734 0.5 10.0002C0.5 15.523 4.97715 20.0002 10.5 20.0002Z" fill="#C2C2C2"/>
<g clip-path="url(#clip1_462_16742)">
<path d="M15.4083 13.0339L12.3745 10.0001L15.4083 6.96639C15.4664 6.90755 15.499 6.82817 15.499 6.74545C15.499 6.66274 15.4664 6.58336 15.4083 6.52451L13.9752 5.09139C13.9462 5.06231 13.9117 5.03923 13.8738 5.02348C13.8359 5.00774 13.7953 4.99963 13.7542 4.99963C13.7132 4.99963 13.6725 5.00774 13.6346 5.02348C13.5967 5.03923 13.5623 5.06231 13.5333 5.09139L10.4995 8.12514L7.46578 5.09139C7.40718 5.0328 7.32771 4.99989 7.24484 4.99989C7.16198 4.99989 7.08251 5.0328 7.0239 5.09139L5.59078 6.52451C5.5617 6.55349 5.53862 6.58792 5.52287 6.62584C5.50713 6.66375 5.49902 6.7044 5.49902 6.74545C5.49902 6.78651 5.50713 6.82715 5.52287 6.86507C5.53862 6.90298 5.5617 6.93741 5.59078 6.96639L8.62453 10.0001L5.59078 13.0339C5.53219 13.0925 5.49928 13.172 5.49928 13.2548C5.49928 13.3377 5.53219 13.4172 5.59078 13.4758L7.0239 14.9089C7.05288 14.938 7.08731 14.961 7.12522 14.9768C7.16314 14.9925 7.20379 15.0006 7.24484 15.0006C7.28589 15.0006 7.32654 14.9925 7.36446 14.9768C7.40237 14.961 7.4368 14.938 7.46578 14.9089L10.4995 11.8751L13.5333 14.9089C13.5919 14.9675 13.6714 15.0004 13.7542 15.0004C13.8371 15.0004 13.9166 14.9675 13.9752 14.9089L15.4083 13.4758C15.4374 13.4468 15.4604 13.4124 15.4762 13.3744C15.4919 13.3365 15.5 13.2959 15.5 13.2548C15.5 13.2138 15.4919 13.1731 15.4762 13.1352C15.4604 13.0973 15.4374 13.0629 15.4083 13.0339Z" fill="white"/>
</g>
</g>
<defs>
<clipPath id="clip0_462_16742">
<rect width="20" height="20" fill="white" transform="translate(0.5 0.000183105)"/>
</clipPath>
<clipPath id="clip1_462_16742">
<rect width="10" height="10" fill="white" transform="translate(5.5 5.00018)"/>
</clipPath>
</defs>
</svg>
