<svg width="20" height="20" viewBox="0 0 20 20" fill="none" xmlns="http://www.w3.org/2000/svg">
<g clip-path="url(#clip0_458_16687)">
<path d="M10 19.9999C15.5228 19.9999 20 15.5228 20 9.99994C20 4.47709 15.5228 -6.10352e-05 10 -6.10352e-05C4.47715 -6.10352e-05 0 4.47709 0 9.99994C0 15.5228 4.47715 19.9999 10 19.9999Z" fill="#FF6A00"/>
<path fill-rule="evenodd" clip-rule="evenodd" d="M14.7155 6.15924C14.4926 5.94684 14.1335 5.94684 13.9106 6.15924L9.45564 10.404C9.35314 10.5016 9.18458 10.5016 9.08207 10.404L7.08567 8.50173C6.86707 8.29344 6.51662 8.28891 6.29226 8.49103L5.1812 9.49197C4.94435 9.70539 4.93885 10.0659 5.16968 10.2858L8.90048 13.8406C9.1234 14.053 9.4825 14.053 9.70542 13.8406L15.8303 8.0046C16.0566 7.78905 16.0566 7.43705 15.8303 7.2215L14.7155 6.15924Z" fill="#F5F5F7"/>
</g>
<defs>
<clipPath id="clip0_458_16687">
<rect width="20" height="20" fill="white"/>
</clipPath>
</defs>
</svg>
