<svg width="24" height="24" viewBox="0 0 24 24" fill="none" xmlns="http://www.w3.org/2000/svg">
<path d="M21.3077 2H2.69231C1.75767 2 1 2.76751 1 3.71429V12.2857C1 13.2325 1.75767 14 2.69231 14H21.3077C22.2424 14 23 13.2325 23 12.2857V3.71429C23 2.76751 22.2424 2 21.3077 2Z" stroke="white" stroke-width="2" stroke-linecap="round" stroke-linejoin="round"/>
<path d="M19 13V9.66667C19 9.22463 18.8155 8.80072 18.4874 8.48815C18.1593 8.1756 17.7141 8 17.25 8H6.75C6.28587 8 5.84075 8.1756 5.51256 8.48815C5.18438 8.80072 5 9.22463 5 9.66667V13" stroke="white" stroke-width="2" stroke-linecap="round" stroke-linejoin="round"/>
<path d="M4 21H4.2C5.7464 21 7 19.9971 7 18.76V17" stroke="white" stroke-width="2" stroke-linecap="round" stroke-linejoin="round"/>
<path d="M20 21H19.8C18.2536 21 17 19.9971 17 18.76V17" stroke="white" stroke-width="2" stroke-linecap="round" stroke-linejoin="round"/>
<path d="M12 23V17" stroke="white" stroke-width="2" stroke-linecap="round" stroke-linejoin="round"/>
</svg>
