<svg width="27" height="20" viewBox="0 0 27 20" fill="none" xmlns="http://www.w3.org/2000/svg">
<path d="M2 1.50001H5.22C5.44252 1.49887 5.65882 1.57375 5.8333 1.71238C6.00778 1.85099 6.13004 2.04508 6.18 2.2627L7.2 6.27687L17.2 4.26979C18.2641 4.06037 19.361 4.08883 20.4128 4.35314C21.4648 4.61746 22.4456 5.11114 23.2858 5.79907C24.126 6.48698 24.8048 7.35223 25.2738 8.33329C25.743 9.31436 25.9908 10.3871 26 11.4752C26 12.0075 25.7892 12.518 25.4142 12.8944C25.0392 13.2708 24.5304 13.4823 24 13.4823H15.2L13.2 16.6535C12.8386 17.2189 12.3416 17.6841 11.7546 18.0067C11.1676 18.3292 10.5093 18.4988 9.84 18.5H7.64C7.469 18.4986 7.3012 18.4532 7.15264 18.3683C7.00408 18.2832 6.87972 18.1616 6.79144 18.0145C6.70318 17.8676 6.65392 17.7004 6.64842 17.5288C6.64292 17.3574 6.68134 17.1872 6.76 17.0348L8.52 13.5425H3C2.46956 13.5425 1.96086 13.3311 1.58578 12.9546C1.21071 12.5783 1 12.0677 1 11.5354V2.50356C1 2.2374 1.10536 1.98213 1.29289 1.79393C1.48043 1.60573 1.73478 1.50001 2 1.50001Z" stroke="url(#paint0_linear_1723_23107)" stroke-width="2" stroke-linecap="round" stroke-linejoin="round"/>
<defs>
<linearGradient id="paint0_linear_1723_23107" x1="37.1111" y1="29.3611" x2="8.3171" y2="-10.5366" gradientUnits="userSpaceOnUse">
<stop stop-color="#017AC3"/>
<stop offset="1" stop-color="#65CFF0"/>
</linearGradient>
</defs>
</svg>
