<svg width="27" height="27" viewBox="0 0 27 27" fill="none" xmlns="http://www.w3.org/2000/svg">
<path fill-rule="evenodd" clip-rule="evenodd" d="M13.499 11.25C14.7417 11.25 15.749 10.2426 15.749 9C15.749 7.75736 14.7417 6.75 13.499 6.75C12.2564 6.75 11.249 7.75736 11.249 9C11.249 10.2426 12.2564 11.25 13.499 11.25ZM13.499 13.5C15.9843 13.5 17.999 11.4853 17.999 9C17.999 6.51472 15.9843 4.5 13.499 4.5C11.0137 4.5 8.99902 6.51472 8.99902 9C8.99902 11.4853 11.0137 13.5 13.499 13.5Z" fill="url(#paint0_linear_6001_22297)"/>
<path fill-rule="evenodd" clip-rule="evenodd" d="M19.6865 9.15072C19.4281 9.00154 19.1211 8.96111 18.8329 9.03834C18.5447 9.11556 18.2989 9.30411 18.1497 9.5625C18.0006 9.8209 17.9601 10.128 18.0374 10.4162C18.1146 10.7044 18.3031 10.9501 18.5615 11.0993C18.8199 11.2485 19.127 11.2889 19.4152 11.2117C19.7034 11.1344 19.9491 10.9459 20.0983 10.6875C20.2475 10.4291 20.2879 10.122 20.2107 9.83383C20.1335 9.54563 19.9449 9.29991 19.6865 9.15072ZM18.2505 6.86501C19.1151 6.63334 20.0363 6.75462 20.8115 7.20217C21.5867 7.64972 22.1523 8.38688 22.384 9.25149C22.6157 10.1161 22.4944 11.0373 22.0469 11.8125C21.5993 12.5877 20.8621 13.1533 19.9975 13.385C19.1329 13.6167 18.2117 13.4954 17.4365 13.0478C16.6613 12.6003 16.0957 11.8631 15.864 10.9985C15.6324 10.1339 15.7536 9.21269 16.2012 8.4375C16.6487 7.66232 17.3859 7.09668 18.2505 6.86501Z" fill="url(#paint1_linear_6001_22297)"/>
<path fill-rule="evenodd" clip-rule="evenodd" d="M8.43848 9.15072C8.18008 9.00154 7.87301 8.96111 7.58481 9.03834C7.2966 9.11556 7.05088 9.30411 6.9017 9.5625C6.75252 9.8209 6.71209 10.128 6.78931 10.4162C6.86654 10.7044 7.05508 10.9501 7.31348 11.0993C7.57187 11.2485 7.87895 11.2889 8.16715 11.2117C8.45535 11.1344 8.70107 10.9459 8.85025 10.6875C8.99944 10.4291 9.03986 10.122 8.96264 9.83383C8.88542 9.54563 8.69687 9.29991 8.43848 9.15072ZM7.00246 6.86501C7.86707 6.63334 8.78829 6.75462 9.56347 7.20217C10.3387 7.64972 10.9043 8.38688 11.136 9.25149C11.3676 10.1161 11.2464 11.0373 10.7988 11.8125C10.3513 12.5877 9.61409 13.1533 8.74949 13.385C7.88489 13.6167 6.96366 13.4954 6.18848 13.0478C5.4133 12.6003 4.84766 11.8631 4.61599 10.9985C4.38432 10.1339 4.5056 9.21269 4.95315 8.4375C5.4007 7.66232 6.13786 7.09668 7.00246 6.86501Z" fill="url(#paint2_linear_6001_22297)"/>
<path d="M18.9943 20.25L17.8914 20.4721L18.0732 21.375H18.9943V20.25ZM23.3127 19.0172L22.2524 19.3932L22.2524 19.3932L23.3127 19.0172ZM16.6309 16.5493L15.9504 15.6535L14.6493 16.6417L16.0367 17.5047L16.6309 16.5493ZM22.3531 19.125H18.9943V21.375H22.3531V19.125ZM22.2524 19.3932C22.2445 19.3709 22.2372 19.3286 22.2465 19.2773C22.2554 19.2286 22.2755 19.1917 22.2945 19.1681C22.3307 19.123 22.3607 19.125 22.3531 19.125V21.375C23.6423 21.375 24.9115 20.1594 24.3729 18.6411L22.2524 19.3932ZM19.1274 16.875C20.9742 16.875 21.8305 18.2037 22.2524 19.3932L24.3729 18.6411C23.8498 17.1661 22.4445 14.625 19.1274 14.625V16.875ZM17.3113 17.4452C17.7439 17.1167 18.3197 16.875 19.1274 16.875V14.625C17.8203 14.625 16.7681 15.0324 15.9504 15.6535L17.3113 17.4452ZM16.0367 17.5047C17.2058 18.2317 17.6954 19.499 17.8914 20.4721L20.0971 20.0279C19.8519 18.8104 19.1695 16.8034 17.225 15.594L16.0367 17.5047Z" fill="url(#paint3_linear_6001_22297)"/>
<path d="M10.3705 16.5502L10.9648 17.5054L12.3517 16.6426L11.0511 15.6544L10.3705 16.5502ZM3.68826 19.0177L2.62798 18.6416L3.68826 19.0177ZM8.00763 20.2505V21.3755H8.92864L9.11048 20.4726L8.00763 20.2505ZM7.8735 16.8755C8.68145 16.8755 9.25735 17.1173 9.68992 17.4459L11.0511 15.6544C10.2334 15.0331 9.18094 14.6255 7.8735 14.6255V16.8755ZM4.74853 19.3937C5.17046 18.2042 6.02671 16.8755 7.8735 16.8755V14.6255C4.55642 14.6255 3.15116 17.1666 2.62798 18.6416L4.74853 19.3937ZM4.64786 19.1255C4.64024 19.1255 4.6702 19.1235 4.70645 19.1686C4.72546 19.1922 4.74554 19.2291 4.7544 19.2778C4.76375 19.3291 4.75646 19.3714 4.74853 19.3937L2.62798 18.6416C2.08945 20.1598 3.3586 21.3755 4.64786 21.3755V19.1255ZM8.00763 19.1255H4.64786V21.3755H8.00763V19.1255ZM9.11048 20.4726C9.30646 19.4996 9.79603 18.2325 10.9648 17.5054L9.77624 15.5949C7.83221 16.8044 7.14995 18.811 6.90477 20.0284L9.11048 20.4726Z" fill="url(#paint4_linear_6001_22297)"/>
<path fill-rule="evenodd" clip-rule="evenodd" d="M9.16048 20.25H17.8406C17.6794 19.5765 17.3704 18.782 16.795 18.1426C16.1878 17.4679 15.2053 16.875 13.5005 16.875C11.7958 16.875 10.8133 17.4679 10.2061 18.1426C9.63065 18.782 9.32166 19.5765 9.16048 20.25ZM8.53364 16.6375C9.58684 15.4672 11.1873 14.625 13.5005 14.625C15.8138 14.625 17.4142 15.4672 18.4674 16.6375C19.4852 17.7684 19.9128 19.1158 20.0975 20.0394C20.384 21.4718 19.1961 22.5 18.0005 22.5H9.00054C7.80494 22.5 6.61709 21.4718 6.90355 20.0394C7.08824 19.1158 7.51584 17.7684 8.53364 16.6375Z" fill="url(#paint5_linear_6001_22297)"/>
<defs>
<linearGradient id="paint0_linear_6001_22297" x1="21.999" y1="19.25" x2="5.96554" y2="4.14284" gradientUnits="userSpaceOnUse">
<stop stop-color="#017AC3"/>
<stop offset="1" stop-color="#65CFF0"/>
</linearGradient>
<linearGradient id="paint1_linear_6001_22297" x1="25.499" y1="17.8125" x2="13.4739" y2="6.48213" gradientUnits="userSpaceOnUse">
<stop stop-color="#017AC3"/>
<stop offset="1" stop-color="#65CFF0"/>
</linearGradient>
<linearGradient id="paint2_linear_6001_22297" x1="14.251" y1="17.8125" x2="2.22586" y2="6.48213" gradientUnits="userSpaceOnUse">
<stop stop-color="#017AC3"/>
<stop offset="1" stop-color="#65CFF0"/>
</linearGradient>
<linearGradient id="paint3_linear_6001_22297" x1="26.361" y1="23.125" x2="18.7827" y2="12.436" gradientUnits="userSpaceOnUse">
<stop stop-color="#017AC3"/>
<stop offset="1" stop-color="#65CFF0"/>
</linearGradient>
<linearGradient id="paint4_linear_6001_22297" x1="13.3644" y1="23.1255" x2="5.7862" y2="12.4362" gradientUnits="userSpaceOnUse">
<stop stop-color="#017AC3"/>
<stop offset="1" stop-color="#65CFF0"/>
</linearGradient>
<linearGradient id="paint5_linear_6001_22297" x1="26.0431" y1="27.5313" x2="13.3721" y2="7.39736" gradientUnits="userSpaceOnUse">
<stop stop-color="#017AC3"/>
<stop offset="1" stop-color="#65CFF0"/>
</linearGradient>
</defs>
</svg>
