<svg width="32" height="32" viewBox="0 0 32 32" fill="none" xmlns="http://www.w3.org/2000/svg">
<path fill-rule="evenodd" clip-rule="evenodd" d="M18.2329 10.6243L16.296 6L14.3592 10.6243C13.7825 12.0012 12.487 12.9424 10.9993 13.0654L6.0028 13.4785L9.80227 16.7495C10.9336 17.7235 11.4284 19.2464 11.0856 20.6993L9.93447 25.5789L14.2195 22.9762C15.4954 22.2012 17.0967 22.2012 18.3726 22.9762L22.6576 25.5789L21.5065 20.6993C21.1637 19.2464 21.6585 17.7235 22.7898 16.7495L26.5893 13.4785L21.5928 13.0654C20.105 12.9424 18.8096 12.0012 18.2329 10.6243ZM18.1408 5.22736C17.4554 3.59088 15.1367 3.59088 14.4513 5.22736L12.5145 9.85167C12.2261 10.5401 11.5784 11.0107 10.8345 11.0722L5.83803 11.4853C4.06984 11.6315 3.35335 13.8366 4.69792 14.9942L8.49739 18.2652C9.06305 18.7522 9.31046 19.5136 9.13908 20.2401L7.98791 25.1197C7.58053 26.8465 9.45633 28.2094 10.9727 27.2883L15.2578 24.6856C15.8957 24.2981 16.6964 24.2981 17.3343 24.6856L21.6194 27.2883C23.1358 28.2094 25.0116 26.8465 24.6042 25.1197L23.453 20.2401C23.2816 19.5136 23.529 18.7522 24.0947 18.2652L27.8942 14.9942C29.2387 13.8366 28.5223 11.6315 26.7541 11.4853L21.7576 11.0722C21.0137 11.0107 20.366 10.5401 20.0776 9.85167L18.1408 5.22736Z" fill="#C2C2C2"/>
</svg>
