<svg width="24" height="25" viewBox="0 0 24 25" fill="none" xmlns="http://www.w3.org/2000/svg">
<path fill-rule="evenodd" clip-rule="evenodd" d="M12.0001 0.0895996C18.5866 0.0895996 24.0001 5.50313 24.0001 12.0896C24.0001 18.6761 18.5866 24.0896 12.0001 24.0896C5.41366 24.0896 0.000135118 18.6761 0.000135118 12.0896C-0.0900905 5.50313 5.32344 0.0895996 12.0001 0.0895996Z" fill="#0587D6"/>
<path fill-rule="evenodd" clip-rule="evenodd" d="M12 1.62361C17.7745 1.62361 22.5564 6.31533 22.5564 12.18C22.5564 17.9544 17.8647 22.7364 12 22.7364C6.22557 22.7364 1.4436 18.0447 1.4436 12.18C1.4436 6.31533 6.13535 1.62361 12 1.62361Z" fill="#00A2E5"/>
<path fill-rule="evenodd" clip-rule="evenodd" d="M13.7146 18.135L10.4665 15.9696C10.1958 15.7891 9.83488 15.4282 9.74466 14.9771C9.65443 14.6162 9.74467 14.165 9.92512 13.9846L10.1056 13.8042L9.02287 14.526C8.30106 14.8869 7.48902 14.7967 7.03789 14.7064L4.51158 13.8042C3.78978 13.6237 3.51909 12.7214 3.87999 12.0899C4.15067 11.5485 4.78226 11.3681 4.96271 11.3681L16.4214 6.49587C16.7823 6.31542 17.5041 6.22522 18.1356 6.58613C18.7672 7.12748 18.677 7.84924 18.677 8.11992L17.2334 17.5034C17.1432 18.0448 16.8725 18.947 15.9702 19.0373C14.9777 18.947 14.0755 18.4057 13.7146 18.135Z" fill="#0587D6"/>
<path fill-rule="evenodd" clip-rule="evenodd" d="M8.66162 13.6233L13.985 10.1948C14.2556 10.0143 14.8872 9.56317 15.0676 9.83384C15.1579 9.92407 14.9774 10.4654 14.797 10.5556L10.8271 14.0745C10.6466 14.1647 10.5564 14.4354 10.6466 14.706C10.6466 14.8865 10.827 15.0669 11.0075 15.2474L14.2556 17.4128C14.797 17.6835 15.3383 18.1346 15.9699 18.0444C16.3308 17.9541 16.6917 17.503 16.6917 17.1421L18.1353 7.75866C18.1353 7.48799 18.1353 7.12706 17.9549 6.94661C17.7744 6.76616 17.3233 6.85638 17.0526 6.94661L5.59395 11.8188C5.32327 11.909 4.96238 11.9992 4.87216 12.3601C4.78193 12.5406 4.87214 12.9015 5.05259 12.9917L7.57893 13.894C7.66915 13.894 8.30072 13.894 8.66162 13.6233Z" fill="white"/>
</svg>
