<svg width="40" height="40" viewBox="0 0 40 40" fill="none" xmlns="http://www.w3.org/2000/svg">
<g clip-path="url(#clip0_734_28171)">
<rect width="40" height="40" fill="#B34BD8"/>
<path d="M30.0634 8.72559C29.3837 8.08988 26.631 6.0463 20.5006 6.01948C20.5006 6.01948 13.2668 5.5774 9.74302 8.87955C7.78295 10.8811 7.09647 13.8124 7.01765 17.4481C6.93884 21.0839 6.85089 27.8981 13.2828 29.7504H13.2885L13.2828 32.572C13.2828 32.572 13.2405 33.7151 13.9761 33.9449C14.8648 34.2295 15.3902 33.3594 16.2412 32.4239C16.7072 31.9095 17.3492 31.156 17.8369 30.5809C20.6319 30.8453 23.4507 30.6256 26.1741 29.9312L26.0027 29.9686C26.8914 29.6734 31.9195 29.0168 32.7328 22.2037C33.5826 15.1701 32.3284 10.733 30.0634 8.72559V8.72559ZM30.8081 21.6904C30.1148 27.3768 26.0416 27.7383 25.2923 27.9833C23.6566 28.4079 21.7787 28.6505 19.8449 28.6505C19.2898 28.6505 18.7393 28.6307 18.1944 28.591L18.2675 28.5957C18.2675 28.5957 15.4827 32.0238 14.6158 32.915C14.3325 33.2042 14.0207 33.1809 14.0264 32.6035C14.0264 32.2268 14.0481 27.9168 14.0481 27.9168C8.60307 26.3748 8.91833 20.5707 8.9823 17.5391C9.04626 14.5076 9.60367 12.0161 11.2633 10.3434C14.2469 7.58249 20.3886 7.9919 20.3886 7.9919C25.5778 8.01407 28.0622 9.6109 28.6401 10.1463C30.5522 11.8201 31.5266 15.8233 30.8081 21.6893V21.6904ZM23.371 17.272V17.2883C23.3686 17.3792 23.3321 17.4656 23.2691 17.5298C23.2062 17.5939 23.1214 17.631 23.0325 17.6332C22.9435 17.6355 22.8571 17.6027 22.7911 17.5418C22.7251 17.4809 22.6845 17.3964 22.6777 17.3058V17.3047C22.7009 17.0611 22.6722 16.8153 22.5934 16.5843C22.5146 16.3532 22.3876 16.1423 22.2212 15.9662C22.0549 15.7901 21.8531 15.653 21.6298 15.5643C21.4064 15.4756 21.1669 15.4374 20.9278 15.4524H20.9323C20.8436 15.4453 20.7608 15.4038 20.7012 15.3362C20.6416 15.2687 20.6097 15.1804 20.612 15.0895C20.6144 14.9986 20.6508 14.9121 20.7138 14.8479C20.7769 14.7836 20.8616 14.7466 20.9506 14.7443H20.97H20.9689L21.0477 14.7432C21.3666 14.7431 21.6821 14.8099 21.9747 14.9395C22.2672 15.0692 22.5305 15.2588 22.7483 15.4967C22.966 15.7346 23.1336 16.0157 23.2405 16.3225C23.3474 16.6293 23.3915 16.9553 23.3699 17.2802V17.2732L23.371 17.272ZM24.4573 17.8914C24.511 15.5725 23.0923 13.7576 20.3989 13.5546C20.3522 13.5531 20.3062 13.542 20.2638 13.5219C20.2214 13.5018 20.1834 13.4732 20.152 13.4378C20.1207 13.4023 20.0967 13.3608 20.0815 13.3157C20.0662 13.2705 20.0601 13.2227 20.0634 13.1751C20.0667 13.1274 20.0794 13.081 20.1007 13.0385C20.122 12.996 20.1516 12.9583 20.1875 12.9278C20.2234 12.8972 20.265 12.8744 20.3098 12.8606C20.3545 12.8469 20.4016 12.8425 20.448 12.8477H20.4469H20.4663C21.1055 12.8477 21.738 12.9811 22.3248 13.2398C22.9117 13.4984 23.4406 13.8768 23.8791 14.3518C24.3176 14.8267 24.6563 15.3882 24.8746 16.0017C25.0928 16.6152 25.186 17.2678 25.1483 17.9194L25.1495 17.9065C25.1434 17.9969 25.1036 18.0815 25.0383 18.1429C24.973 18.2043 24.8872 18.2378 24.7985 18.2366C24.7098 18.2355 24.6248 18.1996 24.5612 18.1365C24.4975 18.0734 24.4599 17.9877 24.4561 17.8972V17.8879L24.4573 17.8914ZM26.9702 18.6251V18.6274C26.9656 18.7178 26.9272 18.803 26.8631 18.8655C26.7989 18.928 26.7138 18.963 26.6251 18.9635C26.5365 18.9639 26.451 18.9297 26.3863 18.8679C26.3215 18.806 26.2824 18.7212 26.2769 18.6309C26.2494 14.1728 23.3379 11.7455 19.8095 11.7198C19.7641 11.7198 19.7191 11.7107 19.6771 11.6929C19.6351 11.6751 19.5969 11.6491 19.5648 11.6163C19.5327 11.5835 19.5072 11.5445 19.4898 11.5016C19.4724 11.4587 19.4634 11.4128 19.4634 11.3664C19.4634 11.32 19.4724 11.274 19.4898 11.2311C19.5072 11.1882 19.5327 11.1493 19.5648 11.1165C19.5969 11.0836 19.6351 11.0576 19.6771 11.0399C19.7191 11.0221 19.7641 11.0129 19.8095 11.0129C23.7605 11.0409 26.9359 13.8252 26.9679 18.6239L26.9702 18.6251ZM26.3705 23.9883V23.9988C25.7926 25.0381 24.7109 26.1858 23.5972 25.8196L23.5869 25.8032C21.6013 25.0571 19.7401 24.0031 18.0688 22.6784L18.1156 22.7134C17.2839 22.039 16.5295 21.2709 15.8665 20.4237L15.8448 20.3945C15.2446 19.6229 14.7089 18.8012 14.2434 17.938L14.1977 17.8459C13.647 16.9187 13.1904 15.9365 12.8351 14.9146L12.8008 14.8003C12.4421 13.6631 13.5604 12.5585 14.5838 11.9683H14.5941C14.7954 11.8366 15.0372 11.7854 15.2732 11.8244C15.5092 11.8633 15.7229 11.9897 15.8734 12.1794L15.8745 12.1817C15.8745 12.1817 16.5382 12.99 16.8226 13.3901C17.0899 13.7622 17.4497 14.3583 17.6359 14.6907C17.776 14.9178 17.8331 15.1883 17.7969 15.4542C17.7608 15.7202 17.6337 15.9645 17.4383 16.1441L17.4371 16.1452L16.7952 16.6701C16.6951 16.7688 16.6177 16.8889 16.5687 17.0219C16.5198 17.1548 16.5003 17.2972 16.5119 17.4388V17.4353C16.8298 18.517 17.4034 19.5021 18.1823 20.3038C18.9612 21.1055 19.9214 21.6991 20.978 22.0322L21.026 22.045C21.164 22.0561 21.3026 22.0361 21.4321 21.9863C21.5616 21.9365 21.6788 21.8582 21.7753 21.7569L22.2893 21.1014C22.4659 20.9009 22.7064 20.7708 22.968 20.7343C23.2296 20.6977 23.4955 20.7571 23.7183 20.9019L23.7137 20.8996C24.6423 21.4396 25.4453 22.0334 26.1775 22.7064L26.1649 22.6947C26.3507 22.8459 26.4743 23.0627 26.5115 23.3022C26.5487 23.5418 26.4968 23.787 26.366 23.9894L26.3682 23.986L26.3705 23.9883Z" fill="white"/>
</g>
<defs>
<clipPath id="clip0_734_28171">
<rect width="40" height="40" rx="7" fill="white"/>
</clipPath>
</defs>
</svg>
