<svg width="40" height="40" viewBox="0 0 40 40" fill="none" xmlns="http://www.w3.org/2000/svg">
<g clip-path="url(#clip0_704_28193)">
<rect width="40" height="40" fill="#0BA937"/>
<path d="M14.0196 28.8288L14.0746 28.8618L14.4633 29.0949C15.7312 29.8553 17.1443 30.3514 18.6257 30.5557C19.1712 30.631 20.3473 30.6583 20.9153 30.6088C23.3707 30.3946 25.5663 29.4408 27.3615 27.8095C29.1163 26.215 30.3236 23.9972 30.706 21.6663C31.2079 18.6072 30.4021 15.5314 28.4775 13.1542C26.6641 10.9145 24.0962 9.51435 21.2135 9.19405L14.0196 28.8288ZM14.0196 28.8288L13.9577 28.8458M14.0196 28.8288L13.9577 28.8458M13.9577 28.8458L13.4952 28.9729C13.2404 29.043 12.6729 29.201 12.2339 29.3241L10.7998 29.7259L10.8403 29.8704M13.9577 28.8458L10.8403 29.8704M10.8403 29.8704L10.7998 29.7259C10.6521 29.7673 10.515 29.8043 10.4059 29.8326M10.8403 29.8704L10.4059 29.8326M10.4059 29.8326C10.4131 29.8115 10.421 29.7888 10.4295 29.7642C10.5086 29.5371 10.6425 29.1662 10.8546 28.5845C11.0915 27.935 11.2603 27.4684 11.3698 27.159C11.4245 27.0045 11.4647 26.8884 11.4914 26.8082C11.5047 26.7682 11.515 26.7359 11.5221 26.7117C11.5256 26.6998 11.5288 26.6883 11.5312 26.6781L11.5314 26.6773C11.5329 26.6714 11.5377 26.6513 11.5377 26.6296C11.5377 26.6033 11.5308 26.5828 11.5288 26.5768L11.5288 26.5767C11.5257 26.5675 11.5222 26.5593 11.5195 26.5534C11.514 26.5413 11.5072 26.5287 11.5006 26.5171C11.4872 26.4933 11.4689 26.4638 11.4479 26.4314C11.4057 26.3661 11.3482 26.2827 11.2855 26.1962C10.1755 24.6656 9.49188 22.91 9.28368 21.0568C9.22476 20.5324 9.21683 19.412 9.26832 18.8653C9.43395 17.1075 10.0377 15.4125 11.0215 13.9439L10.8969 13.8604L11.0215 13.9439C11.2088 13.6643 11.4683 13.3031 11.5966 13.1429C11.7454 12.957 12.0633 12.6211 12.3964 12.2899C12.7294 11.9586 13.0672 11.6425 13.2542 11.4945C13.9488 10.9445 14.9461 10.3503 15.7749 9.99284C16.6826 9.60135 17.9494 9.27679 18.9391 9.18229L10.4059 29.8326ZM14.8554 12.8328L14.8554 12.8328C14.8886 12.8227 14.9327 12.8173 14.9724 12.8135C15.016 12.8094 15.0688 12.8062 15.1266 12.8037C15.2425 12.7987 15.3839 12.7966 15.5236 12.7971C15.6634 12.7977 15.8033 12.8008 15.9163 12.8067C15.9726 12.8096 16.0238 12.8132 16.0656 12.8177L14.8554 12.8328ZM14.8554 12.8328C14.4781 12.9473 14.1825 13.2156 13.7758 13.7545C12.8369 14.9986 12.6535 16.6813 13.2575 18.3211C13.761 19.6881 15.0784 21.6384 16.5198 23.1648C17.5755 24.2829 18.676 25.1449 19.8644 25.7819C20.218 25.9714 20.793 26.2194 21.3482 26.4339C21.9013 26.6476 22.4503 26.8341 22.7497 26.8956C23.4048 27.0302 24.258 27.001 24.8059 26.8191C25.3682 26.6326 26.0683 26.1816 26.4757 25.744L26.3659 25.6418M14.8554 12.8328L26.3659 25.6418M26.3659 25.6418C26.4746 25.5251 26.6205 25.3144 26.69 25.1737L26.8245 25.2402C26.8245 25.2402 26.8245 25.2402 26.8245 25.2402C26.9734 24.9391 27.0821 24.4912 27.1322 24.0938C27.1574 23.8937 27.1685 23.7003 27.1612 23.5386C27.1575 23.4579 27.1491 23.3818 27.1342 23.3152C27.1199 23.251 27.0969 23.1833 27.0565 23.1292L27.0565 23.1291M26.3659 25.6418L27.0565 23.1291M27.0565 23.1291C27.0337 23.0986 27.0013 23.0717 26.9727 23.0501C26.9411 23.0262 26.9012 22.9992 26.8539 22.9693C26.7591 22.9094 26.6266 22.8328 26.4535 22.7375C26.107 22.5467 25.5899 22.2769 24.8684 21.9092L24.8003 22.0429M27.0565 23.1291L24.8003 22.0429M24.8003 22.0429L24.8684 21.9092C24.4757 21.7091 24.2164 21.5828 24.0288 21.5068C23.8392 21.43 23.7112 21.3995 23.5828 21.3995C23.5219 21.3995 23.4603 21.4088 23.3965 21.4366C23.3344 21.4637 23.2782 21.505 23.2225 21.5581C23.1149 21.6607 22.9892 21.8279 22.8114 22.0818C22.653 22.3081 22.435 22.595 22.2436 22.8344C22.148 22.954 22.0598 23.0607 21.9898 23.1414C21.9547 23.1819 21.9249 23.2148 21.9015 23.2392C21.8794 23.2623 21.8683 23.272 21.8659 23.2741C21.8655 23.2745 21.8653 23.2746 21.8654 23.2746C21.8366 23.2946 21.8156 23.3029 21.7936 23.3063C21.7697 23.3099 21.733 23.3092 21.6714 23.2935C21.5424 23.2608 21.3469 23.1747 21.007 23.0066L20.9405 23.141L21.007 23.0066C20.0402 22.5284 19.434 22.1042 18.6963 21.3908C17.989 20.7069 17.3078 19.8085 16.8729 18.9873C16.786 18.8231 16.7563 18.7246 16.7562 18.6533C16.7561 18.5918 16.778 18.5316 16.8533 18.4432C17.2196 18.013 17.6039 17.4875 17.7375 17.2266C17.8453 17.0162 17.9177 16.8605 17.8958 16.6375C17.876 16.4359 17.7786 16.1823 17.612 15.7626C17.4583 15.3754 17.1913 14.6866 17.0189 14.2325L16.8786 14.2857M24.8003 22.0429L16.8786 14.2857M16.8786 14.2857L17.0188 14.2325C16.8228 13.7162 16.6957 13.402 16.5828 13.2054M16.8786 14.2857L16.5828 13.2054M16.5828 13.2054C16.525 13.1049 16.4669 13.0276 16.3992 12.9675M16.5828 13.2054L16.3992 12.9675M16.3992 12.9675C16.3301 12.9063 16.2581 12.8693 16.182 12.8406L16.3992 12.9675ZM13.2762 31.4155L13.2355 31.2711L13.2762 31.4155L13.8805 31.2451L14.4639 31.5316C16.4228 32.4938 18.1777 32.9312 20.0775 32.9259C22.1529 32.92 24.0413 32.4751 25.8878 31.5566C29.0397 29.9889 31.4025 27.2671 32.513 23.925C33.1533 21.9978 33.3187 19.7692 32.9737 17.7251C32.3765 14.1853 30.3391 11.0566 27.3245 9.04823C25.5511 7.86669 23.5669 7.14889 21.4061 6.90641C20.9251 6.85244 19.6074 6.8311 19.0952 6.86877C16.7048 7.04458 14.3723 7.88165 12.4367 9.25877C8.85044 11.8102 6.75693 16.0034 6.9266 20.3033C7.01208 22.4695 7.66899 24.6112 8.82997 26.5127L8.958 26.4345L8.82998 26.5127L9.0307 26.8414L8.98258 26.9871L9.12479 27.034L8.98258 26.9871C8.92111 27.1732 7.81518 30.2504 7.10984 32.1975C7.0363 32.4006 6.97106 32.5874 6.92516 32.725C6.90229 32.7936 6.88383 32.8512 6.87149 32.8928C6.86544 32.9132 6.86017 32.9321 6.85662 32.9474C6.85498 32.9544 6.85274 32.9647 6.85139 32.9756C6.85078 32.9805 6.84958 32.9912 6.85015 33.0043C6.85043 33.0108 6.85131 33.0228 6.8551 33.0371C6.85832 33.0494 6.86756 33.0789 6.8947 33.1059C6.92653 33.1376 6.96253 33.145 6.97025 33.1466L6.97053 33.1466C6.98329 33.1493 6.99363 33.1496 6.99837 33.1497C7.00845 33.1499 7.01654 33.1491 7.01964 33.1487C7.02702 33.1479 7.03371 33.1467 7.03762 33.1459C7.04642 33.1443 7.05707 33.1419 7.06829 33.1392C7.09132 33.1338 7.12405 33.1256 7.16533 33.115C7.24822 33.0935 7.36931 33.0613 7.52457 33.0193C7.83529 32.9352 8.28475 32.8116 8.8435 32.6567C9.96108 32.3469 11.5168 31.9115 13.2762 31.4155Z" fill="white" stroke="white" stroke-width="0.3"/>
</g>
<defs>
<clipPath id="clip0_704_28193">
<rect width="40" height="40" rx="7" fill="white"/>
</clipPath>
</defs>
</svg>
