<svg width="40" height="40" viewBox="0 0 40 40" fill="none" xmlns="http://www.w3.org/2000/svg">
<g clip-path="url(#clip0_734_28167)">
<rect width="40" height="40" fill="#0BA937"/>
<path fill-rule="evenodd" clip-rule="evenodd" d="M19.1062 7.01836C16.7429 7.19218 14.4367 8.01992 12.5236 9.38099C8.97747 11.9039 6.90887 16.0495 7.07648 20.2974C7.16093 22.4373 7.80994 24.5542 8.958 26.4345L9.19491 26.8225L9.12501 27.0341C9.06266 27.2229 7.95556 30.3033 7.25087 32.2486C7.1044 32.653 6.99172 32.9909 7.00048 32.9996C7.01349 33.0125 9.71699 32.2631 13.2355 31.2711L13.895 31.0851L14.53 31.397C16.4715 32.3505 18.2037 32.7811 20.0771 32.7759C22.1296 32.7701 23.9952 32.3305 25.821 31.4223C28.9371 29.8724 31.2728 27.1819 32.3706 23.8777C33.0031 21.9743 33.1668 19.7705 32.8258 17.75C32.2355 14.2515 30.2219 11.1588 27.2414 9.17307C25.4882 8.00507 23.5269 7.29535 21.3894 7.05547C20.9182 7.0026 19.6098 6.98133 19.1062 7.01836ZM21.23 9.04496C24.1518 9.3696 26.7557 10.7893 28.594 13.0599C30.546 15.4707 31.3628 18.5899 30.854 21.6906C30.4661 24.0551 29.2421 26.3033 27.4624 27.9205C25.6425 29.5743 23.4159 30.5413 20.9283 30.7582C20.3495 30.8087 19.1622 30.7812 18.6052 30.7043C17.104 30.4973 15.6716 29.9945 14.3861 29.2236L13.9974 28.9904L13.5349 29.1176C13.2805 29.1875 12.7133 29.3454 12.2744 29.4685C11.8355 29.5916 11.1901 29.7724 10.8403 29.8704C10.4904 29.9683 10.1983 30.0426 10.1911 30.0355C10.1765 30.0209 10.2895 29.696 10.7137 28.5331C11.1875 27.2342 11.3877 26.6688 11.3877 26.6296C11.3877 26.6093 11.2871 26.4539 11.1641 26.2843C10.0391 24.7329 9.34576 22.9528 9.13462 21.0736C9.07451 20.5386 9.06656 19.4078 9.11898 18.8512C9.28695 17.0685 9.89925 15.3498 10.8969 13.8604C11.0853 13.5791 11.3475 13.2141 11.4795 13.0492C11.7888 12.6628 12.7726 11.6845 13.1611 11.3769C13.8662 10.8186 14.8748 10.2177 15.7155 9.8551C16.6376 9.45739 17.9197 9.12894 18.9248 9.03297C19.4552 8.98236 20.7259 8.98895 21.23 9.04496ZM14.8989 12.9763C14.5696 13.0763 14.2983 13.3111 13.8955 13.8449C12.992 15.0421 12.8091 16.6696 13.3983 18.2693C13.8923 19.6106 15.1955 21.5439 16.6288 23.0619C17.6751 24.1699 18.763 25.0213 19.9352 25.6497C20.6261 26.02 22.2083 26.6313 22.7799 26.7487C23.414 26.8789 24.2399 26.8489 24.7587 26.6768C25.2968 26.4982 25.9755 26.0612 26.3659 25.6418C26.4746 25.5251 26.6205 25.3144 26.69 25.1737C26.9671 24.6136 27.113 23.4557 26.9363 23.2189C26.8614 23.1185 26.2429 22.778 24.8003 22.0429C24.0135 21.642 23.7853 21.5495 23.5828 21.5495C23.4042 21.5495 23.2928 21.6557 22.9343 22.1678C22.6129 22.627 22.0541 23.3259 21.9512 23.3976C21.7805 23.5165 21.6143 23.4744 20.9405 23.141C19.9605 22.6563 19.3414 22.2233 18.592 21.4986C17.874 20.8043 17.183 19.8934 16.7404 19.0575C16.5618 18.7204 16.5615 18.5545 16.7391 18.346C17.104 17.9174 17.4788 17.4028 17.604 17.1582C17.819 16.7385 17.8128 16.6752 17.4725 15.8179C17.3185 15.43 17.0513 14.7404 16.8786 14.2857C16.484 13.2464 16.3874 13.0783 16.1291 12.981C16.0163 12.9385 15.0359 12.9348 14.8989 12.9763Z" fill="white"/>
</g>
<defs>
<clipPath id="clip0_734_28167">
<rect width="40" height="40" rx="7" fill="white"/>
</clipPath>
</defs>
</svg>
