<svg width="24" height="24" viewBox="0 0 24 24" fill="none" xmlns="http://www.w3.org/2000/svg">
<path d="M4.50001 22C5.88071 22 7 20.8807 7 19.5C7 18.1193 5.88071 17 4.50001 17C3.11929 17 2 18.1193 2 19.5C2 20.8807 3.11929 22 4.50001 22Z" stroke="white" stroke-width="2" stroke-linecap="round" stroke-linejoin="round"/>
<path d="M22 20C22 17.6362 21.5343 15.2956 20.6298 13.1117C19.7253 10.9278 18.3994 8.94354 16.7279 7.27209C15.0565 5.60064 13.0722 4.27475 10.8883 3.37017C8.70445 2.46559 6.36381 2 4 2" stroke="white" stroke-width="2.5" stroke-linecap="round" stroke-linejoin="round"/>
<path d="M4 9C5.31322 9 6.61357 9.25866 7.82683 9.76121C9.04008 10.2638 10.1425 11.0003 11.0711 11.9289C11.9996 12.8575 12.7362 13.9599 13.2388 15.1732C13.7413 16.3865 14 17.6868 14 19" stroke="white" stroke-width="2.5" stroke-linecap="round" stroke-linejoin="round"/>
</svg>
