<svg width="110" height="48" viewBox="0 0 110 48" fill="none" xmlns="http://www.w3.org/2000/svg">
<path fill-rule="evenodd" clip-rule="evenodd" d="M7.62939e-06 6.41132C0.280693 5.13075 0.428421 3.13545 6.21945 2.70363C7.77062 2.70363 8.90813 2.85253 9.46951 2.98655C9.7502 2.55473 13.8423 -1.00406 20.2095 0.276507C26.9903 0.559423 35.4553 4.68404 41.8077 7.11117L53.5227 4.41602L62.2831 7.69189L56.4921 12.5312H56.3443L85.9938 23.7734L92.9076 20.7805L96.4384 19.351L101.949 16.9239L110 19.9317L109.291 20.9294L103.219 27.1982L102.51 27.913L99.7032 30.623L99.1418 31.3377L95.4781 35.0454L88.4166 42.297H88.2689C88.1211 42.4459 87.8405 42.4459 87.4268 42.5799C85.0188 43.0117 79.5232 42.1481 72.5947 39.7359C72.7424 39.7359 72.8754 39.7359 73.0231 39.587C73.4515 39.4381 74.1459 38.7382 74.722 37.7406C74.8697 37.4577 75.0027 37.0258 75.1504 36.6089C75.8595 34.8965 75.7118 33.4819 75.4311 32.9012C75.4311 32.7523 75.2834 32.6183 75.1504 32.6183C75.0027 32.6183 74.8697 32.6183 74.589 32.7672C74.0277 33.0501 73.1856 34.0478 72.6095 35.6113C72.4765 36.0431 72.3288 36.46 72.181 36.7429V36.8918C71.1912 36.46 70.4821 36.1771 70.2015 36.0431L58.4864 31.6355L68.0889 48L56.5069 43.5925L36.5928 23.3863L16.5458 15.8518L14.0048 14.8541C13.9063 14.8541 13.8128 14.8045 13.7242 14.7052C10.4741 13.4247 13.4435 14.7052 6.94333 11.7123C-0.53183 8.71932 0.0295486 6.4411 0.0295486 6.4411L7.62939e-06 6.41132Z" fill="#4AA8E2"/>
</svg>
