<!-- svg спрайты -->
<svg xmlns="http://www.w3.org/2000/svg" display="none">

	<!-- Logo  -->
	<symbol id="email" viewBox="0 26 26">
		<path fill-rule="evenodd" clip-rule="evenodd"
			d="M0.800049 13.1001C0.800049 6.5001 6.20005 1.1001 12.8 1.1001C15.4 1.1001 17.8 1.90009 19.8 3.30009H16.7001C15.5001 2.80009 14.2 2.6001 12.8 2.6001C7.00005 2.6001 2.30005 7.3001 2.30005 13.1001C2.30005 18.9001 7.00005 23.6001 12.8 23.6001C14.2 23.6001 15.5001 23.3001 16.7001 22.8001H19.8C17.8 24.2001 15.4 25.0001 12.8 25.0001C6.20005 25.1001 0.800049 19.7001 0.800049 13.1001ZM23.3 13.1001C23.3 9.8001 21.7 6.80009 19.3 4.80009H21.5001C23.5001 7.00009 24.8 9.9001 24.8 13.1001C24.8 16.3001 23.5001 19.2001 21.5001 21.3001H19.3C21.7 19.4001 23.3 16.4001 23.3 13.1001Z"
			fill="#0075A6" />
		<path fill-rule="evenodd" clip-rule="evenodd"
			d="M3.1001 13.1001C3.1001 11.8001 3.30008 10.6 3.80008 9.50005C4.30008 8.30005 6.50009 8.40005 7.40009 7.50005C8.00009 6.90005 7.0001 5.20005 7.7001 4.80005H22.7001C23.5001 4.80005 24.1001 5.40004 24.1001 6.20004V19.9C24.1001 20.7 23.5001 21.3 22.7001 21.3H7.7001C4.9001 19.6 3.1001 16.6001 3.1001 13.1001Z"
			fill="#00A2E5" />
		<path fill-rule="evenodd" clip-rule="evenodd"
			d="M23.1002 21.2L11.3002 11.3001L4.00018 17.4C3.90018 17.2 3.8002 16.9 3.7002 16.7L11.0002 10.5C11.1002 10.4 11.3002 10.4 11.5002 10.5L23.5002 20.6001C23.7002 20.7001 23.7002 21.0001 23.5002 21.1001C23.5002 21.3001 23.2002 21.3 23.1002 21.2Z"
			fill="#85DBF6" />
		<path fill-rule="evenodd" clip-rule="evenodd"
			d="M10.4001 14.7001L3.90015 9.20015C4.70015 7.40015 6.00016 5.90015 7.60016 4.90015H22.7002C23.0002 4.90015 23.3002 5.00015 23.6002 5.20015L12.3001 14.8002C11.8001 15.1002 10.9001 15.1001 10.4001 14.7001Z"
			fill="#85DBF6" />
		<path fill-rule="evenodd" clip-rule="evenodd"
			d="M6.6001 20.6H22.7001C23.1001 20.6 23.4001 20.3 23.4001 19.9V6.2C23.4001 5.8 23.1001 5.5 22.7001 5.5H6.6001C7.3001 4.9 8.2001 4.4 9.1001 4H22.7001C23.9001 4 24.9001 5 24.9001 6.2V19.9C24.9001 21.1 23.9001 22.1 22.7001 22.1H9.1001C8.2001 21.7 7.3001 21.2 6.6001 20.6Z"
			fill="#0075A6" />
		<path fill-rule="evenodd" clip-rule="evenodd"
			d="M10.2001 14.9001L3.80005 9.50009C3.90005 9.30009 4.00007 9.0001 4.10007 8.8001L10.7001 14.4001C11.0001 14.7001 11.7001 14.7001 12.1001 14.4001L23.4001 4.8001C23.6001 4.7001 23.8001 4.7001 23.9001 4.8001C24.0001 5.0001 24.0001 5.2001 23.9001 5.3001L12.6001 14.9001C11.9001 15.5001 10.8001 15.5001 10.2001 14.9001Z"
			fill="#0075A6" />
	</symbol>

	<!-- callback -->
	<symbol id="callback" viewBox="0 0 27 26">
		<path fill-rule="evenodd" clip-rule="evenodd"
			d="M1.19995 25.3L2.99994 19C1.99994 17.2 1.39993 15.2 1.39993 13C1.39993 6.4 6.79993 1 13.3999 1C19.9999 1 25.3999 6.4 25.3999 13C25.3999 19.6 19.9999 25 13.3999 25C11.2999 25 9.39995 24.5 7.69995 23.5L1.19995 25.3Z"
			fill="#0075A6" />
		<path fill-rule="evenodd" clip-rule="evenodd"
			d="M8.39999 22.3001C8.09999 22.1001 7.69999 22.1001 7.29999 22.2001L3.39999 23.2001L4.5 19.5001C4.6 19.1001 4.59999 18.7001 4.39999 18.3001C3.49999 16.8001 3 15.0001 3 13.1001C3 7.3001 7.7 2.6001 13.5 2.6001C19.3 2.6001 24 7.3001 24 13.1001C24 18.9001 19.3 23.6001 13.5 23.6001C11.6 23.6001 9.89999 23.1001 8.39999 22.3001Z"
			fill="#85DBF6" />
		<path fill-rule="evenodd" clip-rule="evenodd"
			d="M8.79993 21.6001C8.29993 21.3001 7.69995 21.3 7.19995 21.4L4.49994 22.1001L5.19995 19.7C5.39995 19.1 5.29994 18.5 4.99994 17.9C4.19994 16.5 3.69995 14.8 3.69995 13C3.69995 7.60005 8.09993 3.30005 13.3999 3.30005C18.7999 3.30005 23.0999 7.70005 23.0999 13C23.0999 18.4 18.6999 22.7 13.3999 22.7C11.6999 22.8 10.1999 22.4001 8.79993 21.6001Z"
			fill="#0075A6" />
		<path fill-rule="evenodd" clip-rule="evenodd"
			d="M9.09982 21.0001C8.39982 20.6001 7.59981 20.5001 6.89981 20.7001L5.49982 21.1001L5.7998 19.9001C5.9998 19.1001 5.89982 18.3001 5.49982 17.6001C4.69982 16.3001 4.2998 14.8001 4.2998 13.1001C4.2998 8.1001 8.2998 4.1001 13.2998 4.1001C18.2998 4.1001 22.2998 8.1001 22.2998 13.1001C22.2998 18.1001 18.2998 22.1001 13.2998 22.1001C11.8998 22.1001 10.3998 21.7001 9.09982 21.0001Z"
			fill="white" />
		<path fill-rule="evenodd" clip-rule="evenodd"
			d="M19.2 16.0001C18.9 15.8001 17.3 15.1001 17 15.0001C16.7 14.9001 16.5 14.8001 16.3 15.2001C16.1 15.5001 15.5 16.2001 15.3 16.4001C15.1 16.6001 14.9 16.6001 14.6 16.5001C14.3 16.3001 13.3 16.0001 12.1 14.9001C11.2 14.1001 10.5 13.0001 10.3 12.7001C10.1 12.4001 10.3 12.2002 10.4 12.1002C10.5 12.0002 10.7 11.7001 10.9 11.5001C11.1 11.3001 11.1 11.2001 11.2 11.0001C11.3 10.8001 11.3 10.6001 11.2 10.4001C11.1 10.2001 10.5 8.70015 10.2 8.00015C9.90001 7.40015 9.7 7.50015 9.5 7.50015C9.3 7.50015 9.09999 7.50015 8.89999 7.50015C8.69999 7.50015 8.40001 7.60014 8.10001 7.90014C7.80001 8.20014 7 9.00015 7 10.6002C7 12.2002 8.09999 13.7001 8.29999 13.9001C8.49999 14.1001 10.5 17.3001 13.7 18.7001C14.5 19.0001 15 19.2001 15.5 19.4001C16.3 19.6001 16.9 19.6001 17.5 19.5001C18.1 19.4001 19.4 18.7001 19.6 18.0001C19.9 17.3001 19.9 16.6001 19.8 16.5001C19.7 16.2001 19.5 16.2001 19.2 16.0001Z"
			fill="#00A2E5" />
		<path fill-rule="evenodd" clip-rule="evenodd"
			d="M15.3999 19.6001C14.8999 19.5001 14.2999 19.3001 13.5999 18.9001C10.2999 17.5001 8.19995 14.2001 8.09995 14.0001C7.99995 13.8001 6.69995 12.2001 6.69995 10.5001C6.69995 8.80009 7.59993 7.9001 7.89993 7.6001C8.29993 7.2001 8.69994 7.1001 8.99994 7.1001C9.19994 7.1001 9.39995 7.1001 9.59995 7.1001C9.59995 7.1001 9.89995 7.10009 10.0999 7.20009C10.2999 7.30009 10.5 7.50009 10.7 7.90009C11 8.60009 11.6 10.1001 11.7 10.2001C11.8 10.4001 11.9 10.7001 11.7 11.1001C11.6 11.3001 11.4999 11.5001 11.2999 11.7001C11.1999 11.9001 10.9999 12.1001 10.7999 12.3001L10.7 12.4001V12.5001C10.9 12.8001 11.4999 13.8001 12.3999 14.6001C13.5999 15.6001 14.4999 15.9001 14.7999 16.1001C14.8999 16.1001 14.8999 16.1001 14.8999 16.2001H14.9999C15.1999 16.0001 15.7999 15.3001 15.9999 15.0001C16.0999 14.9001 16.1999 14.8001 16.2999 14.7001C16.3999 14.6001 16.4999 14.6001 16.5999 14.6001C16.7999 14.6001 17 14.7001 17.2 14.7001C17.5 14.8001 19.0999 15.6001 19.3999 15.8001C19.5999 15.9001 19.8999 16.0001 20.0999 16.2001L20.2 16.3001C20.2 16.3001 20.1999 16.4001 20.2999 16.4001C20.3999 16.7001 20.2999 17.4001 20.0999 18.1001C19.7999 19.0001 18.4 19.8001 17.7 19.9001C17 19.9001 16.1999 19.9001 15.3999 19.6001ZM17.3999 19.0001C17.8999 18.9001 19 18.3001 19.2 17.7001C19.4 17.1001 19.3999 16.7001 19.3999 16.5001C19.2999 16.5001 19.1999 16.4001 18.9999 16.3001C18.6999 16.1001 17.1999 15.4001 16.8999 15.3001C16.7999 15.3001 16.8 15.3001 16.7 15.2001H16.5999C16.5999 15.2001 16.5999 15.2001 16.4999 15.3001C16.2999 15.6001 15.6999 16.4001 15.4999 16.6001C15.3999 16.7001 15.3 16.8001 15.2 16.9001C15.1 16.9001 15.0999 16.9001 14.9999 17.0001C14.7999 17.0001 14.5999 17.0001 14.3999 16.9001C14.0999 16.8001 12.9999 16.4001 11.7999 15.3001C10.7999 14.4001 10.1999 13.3001 9.99994 13.0001C9.89994 12.9001 9.89993 12.7001 9.89993 12.6001C9.89993 12.5001 9.89993 12.4001 9.89993 12.3001C9.99993 12.1001 10.1 11.9001 10.2 11.9001C10.3 11.8001 10.5 11.6001 10.7 11.4001C10.8 11.3001 10.8999 11.2001 10.9999 10.9001C10.9999 10.8001 10.9999 10.8001 10.9999 10.7001C10.8999 10.5001 10.2999 8.90009 9.99994 8.30009C9.89994 8.00009 9.79993 8.00009 9.79993 8.00009C9.79993 8.00009 9.79995 8.00009 9.59995 8.00009C9.39995 8.00009 9.19994 8.00009 8.99994 8.00009C8.89994 8.00009 8.59993 8.00009 8.39993 8.30009C8.09993 8.60009 7.39993 9.30009 7.39993 10.7001C7.39993 12.1001 8.39995 13.5001 8.59995 13.8001C8.79995 14.0001 10.7999 17.2001 13.7999 18.5001C14.4999 18.8001 15.0999 19.0001 15.5999 19.2001C16.2999 19.1001 16.8999 19.1001 17.3999 19.0001Z"
			fill="#0075A6" />
	</symbol>

	<!-- message -->
	<symbol id="message" viewBox="0 0 27 26">
		<path fill-rule="evenodd" clip-rule="evenodd"
			d="M13.5999 1.1001C20.1999 1.1001 25.5999 6.5001 25.5999 13.1001C25.5999 19.7001 20.1999 25.1001 13.5999 25.1001C6.99985 25.1001 1.59985 19.7001 1.59985 13.1001C1.59985 6.5001 6.99985 1.1001 13.5999 1.1001Z"
			fill="#0075A6" />
		<path fill-rule="evenodd" clip-rule="evenodd"
			d="M13.5999 2.6001C19.3999 2.6001 24.0999 7.3001 24.0999 13.1001C24.0999 18.9001 19.3999 23.6001 13.5999 23.6001C7.79985 23.6001 3.09985 18.9001 3.09985 13.1001C3.09985 7.3001 7.79985 2.6001 13.5999 2.6001Z"
			fill="#00A2E5" />
		<path fill-rule="evenodd" clip-rule="evenodd"
			d="M15.2998 19.1001L12.0998 16.9001C11.7998 16.7001 11.4998 16.4001 11.3998 15.9001C11.2998 15.5001 11.3998 15.1001 11.5998 14.9001L11.7998 14.7001L10.6998 15.4001C9.99981 15.8001 9.19981 15.7001 8.69981 15.6001L6.19981 14.7001C5.49981 14.5001 5.19982 13.6001 5.59982 13.0001C5.89982 12.5001 6.49981 12.3001 6.69981 12.3001L18.0998 7.40009C18.4998 7.20009 19.1998 7.1001 19.7998 7.5001C20.3998 8.0001 20.2998 8.8001 20.2998 9.0001L18.8998 18.4001C18.7998 18.9001 18.4998 19.8001 17.5998 19.9001C16.5998 19.9001 15.6998 19.4001 15.2998 19.1001Z"
			fill="#0075A6" />
		<path fill-rule="evenodd" clip-rule="evenodd"
			d="M10.2998 14.6L15.5998 11.2C15.8998 11 16.4998 10.6 16.6998 10.8C16.7998 10.9 16.5998 11.4 16.3998 11.5L12.3998 15C12.1998 15.1 12.0998 15.4 12.1998 15.6C12.1998 15.8 12.3998 16 12.5998 16.1L15.7998 18.3C16.2998 18.6 16.8998 19 17.4998 18.9C17.8998 18.8 18.1998 18.4 18.1998 18L19.5998 8.60004C19.5998 8.30004 19.5998 8.00004 19.3998 7.80004C19.1998 7.60004 18.7998 7.70004 18.4998 7.80004L7.09984 12.7C6.79984 12.8 6.49982 12.9 6.39982 13.2C6.29982 13.4 6.39984 13.7 6.59984 13.8L9.09984 14.7C9.29984 14.9 9.89983 14.9 10.2998 14.6Z"
			fill="white" />
	</symbol>

	<!-- phone -->
	<symbol id="phone" viewBox="0 0 26 26">
		<path fill-rule="evenodd" clip-rule="evenodd"
			d="M23.4001 19.0001L22.3001 17.9001C23.1001 16.5001 23.5002 14.8001 23.5002 13.1001C23.5002 7.3001 18.8002 2.6001 13.0002 2.6001C7.20015 2.6001 2.50015 7.3001 2.50015 13.1001C2.50015 13.5001 2.20016 13.9001 1.70016 13.9001C1.30016 13.9001 0.900146 13.6001 0.900146 13.1001C0.900146 6.5001 6.30015 1.1001 12.9001 1.1001C19.5001 1.1001 24.9001 6.5001 24.9001 13.1001C25.0001 15.2001 24.4001 17.3001 23.4001 19.0001Z"
			fill="#0075A6" />
		<path fill-rule="evenodd" clip-rule="evenodd"
			d="M17.8001 24.6001L19.5001 22.2001C19.7001 21.9001 19.6001 21.8 19.3001 21.9L19.1001 22.0001C18.8001 22.1001 18.5001 22.4001 18.3001 22.6001L16.8001 24.8001C16.7001 25.1001 16.6001 25.3001 17.0001 25.3001C17.3001 25.1001 17.6001 24.9001 17.8001 24.6001Z"
			fill="#0075A6" />
		<path fill-rule="evenodd" clip-rule="evenodd"
			d="M16.2998 25L15.3998 23C15.2998 22.8 15.3998 22.5 15.5998 22.5H15.6998C15.8998 22.4 16.1998 22.6 16.2998 22.8L17.1998 24.8C17.2998 25 17.1998 25.3 16.9998 25.3H16.8998C16.6998 25.3 16.3998 25.2 16.2998 25Z"
			fill="#0075A6" />
		<path fill-rule="evenodd" clip-rule="evenodd"
			d="M15.6001 25.1001L16.3001 22.7C16.4001 22.4 16.2001 22.3 16.0001 22.3H15.8001C15.6001 22.4 15.3001 22.6 15.2001 22.9L14.6001 25.1001C14.6001 25.4001 14.7001 25.6001 15.0001 25.6001C15.3001 25.7001 15.6001 25.4001 15.6001 25.1001Z"
			fill="#0075A6" />
		<path fill-rule="evenodd" clip-rule="evenodd"
			d="M14.5001 25.4L13.9001 23.3C13.8001 23.1 14.0002 22.8 14.2002 22.8H14.3001C14.5001 22.8 14.8001 22.9 14.9001 23.2L15.5001 25.3C15.6001 25.5 15.4002 25.8 15.2002 25.8H15.1001C14.8001 25.8 14.5001 25.6 14.5001 25.4Z"
			fill="#0075A6" />
		<path fill-rule="evenodd" clip-rule="evenodd"
			d="M13.7 25.4L14.7999 23.2C14.8999 23 14.8 22.8 14.6 22.8H14.4C14.2 22.8 13.8999 23 13.7999 23.3L12.7999 25.3C12.6999 25.6 12.8 25.8 13.1 25.9C13.3 25.8 13.6 25.6 13.7 25.4Z"
			fill="#0075A6" />
		<path fill-rule="evenodd" clip-rule="evenodd"
			d="M12.5001 25.4L12.3 23.2C12.3 23 12.5001 22.8 12.7001 22.8H12.8C13 22.8 13.3 23 13.3 23.2L13.5001 25.4C13.5001 25.6 13.3001 25.8 13.1001 25.8H13.0001C12.8001 25.8 12.5001 25.6 12.5001 25.4Z"
			fill="#0075A6" />
		<path fill-rule="evenodd" clip-rule="evenodd"
			d="M11.8001 25.4001L13.2002 23.3002C13.3002 23.1002 13.3001 22.9001 13.0001 22.9001H12.8001C12.6001 22.9001 12.2001 23.0002 12.1001 23.3002L10.9001 25.2001C10.8001 25.5001 10.8001 25.7002 11.1001 25.8002C11.3001 25.7002 11.6001 25.6001 11.8001 25.4001Z"
			fill="#0075A6" />
		<path fill-rule="evenodd" clip-rule="evenodd"
			d="M10.6001 25.2001L10.7001 23.0001C10.7001 22.8001 10.9001 22.6001 11.2001 22.6001H11.3001C11.5001 22.6001 11.7001 22.9001 11.7001 23.1001L11.6001 25.3001C11.6001 25.5001 11.4001 25.7001 11.1001 25.7001H11.0001C10.8001 25.7001 10.6001 25.4001 10.6001 25.2001Z"
			fill="#0075A6" />
		<path fill-rule="evenodd" clip-rule="evenodd"
			d="M9.89997 24.9999L11.6 23.1999C11.8 22.9999 11.7 22.7999 11.5 22.6999H11.3C11.1 22.5999 10.7 22.7999 10.5 22.9999L8.99998 24.6999C8.79998 24.9999 8.79999 25.1999 9.09999 25.2999C9.39999 25.2999 9.69997 25.1999 9.89997 24.9999Z"
			fill="#0075A6" />
		<path fill-rule="evenodd" clip-rule="evenodd"
			d="M8.7002 24.6999L9.10019 22.4999C9.10019 22.2999 9.40019 22.0999 9.60019 22.1999H9.7002C9.9002 22.2999 10.1002 22.4999 10.0002 22.7999L9.60019 24.9999C9.60019 25.1999 9.30019 25.3999 9.10019 25.2999H9.00018C8.80018 25.1999 8.7002 24.8999 8.7002 24.6999Z"
			fill="#0075A6" />
		<path fill-rule="evenodd" clip-rule="evenodd"
			d="M8.00019 24.4L10.0002 22.9C10.2002 22.7 10.2002 22.5 10.0002 22.4L9.90019 22.3C9.70019 22.2 9.3002 22.3 9.1002 22.4L7.30018 23.8C7.10018 24 7.00018 24.3 7.30018 24.4C7.50018 24.6 7.80019 24.5 8.00019 24.4Z"
			fill="#0075A6" />
		<path fill-rule="evenodd" clip-rule="evenodd"
			d="M7.00017 23.9L7.80015 21.8C7.90015 21.6 8.10015 21.5 8.30015 21.6L8.40016 21.7C8.60016 21.8 8.70017 22.1 8.60017 22.3L7.80015 24.4C7.70015 24.6 7.50015 24.7 7.30015 24.6L7.20018 24.5C7.00018 24.4 6.90017 24.1 7.00017 23.9Z"
			fill="#0075A6" />
		<path fill-rule="evenodd" clip-rule="evenodd"
			d="M6.40009 23.5001L8.6001 22.4001C8.8001 22.3001 8.90011 22.1001 8.70011 21.9001L8.6001 21.8001C8.4001 21.7001 8.00008 21.7001 7.80008 21.8001L5.80008 22.9001C5.60008 23.1001 5.40011 23.3001 5.70011 23.5001C5.80011 23.6001 6.10009 23.6001 6.40009 23.5001Z"
			fill="#0075A6" />
		<path fill-rule="evenodd" clip-rule="evenodd"
			d="M5.39982 22.8001L6.39982 20.8001C6.49982 20.6001 6.79983 20.5001 6.99983 20.7001L7.09984 20.8001C7.29984 20.9001 7.39982 21.2001 7.29982 21.4001L6.29982 23.4001C6.19982 23.6001 5.89984 23.7001 5.69984 23.5001L5.59984 23.4001C5.39984 23.3001 5.29982 23.0001 5.39982 22.8001Z"
			fill="#0075A6" />
		<path fill-rule="evenodd" clip-rule="evenodd"
			d="M4.80003 22.3002L7.10005 21.5002C7.40005 21.4002 7.40006 21.2002 7.20006 21.1002L7.10005 21.0002C6.90005 20.8002 6.60003 20.8002 6.30003 20.9002L4.20006 21.7002C3.90006 21.9002 3.80004 22.1002 4.00004 22.3002C4.20004 22.3002 4.60003 22.4002 4.80003 22.3002Z"
			fill="#0075A6" />
		<path fill-rule="evenodd" clip-rule="evenodd"
			d="M4.0001 21.5001L5.40009 19.8001C5.60009 19.6001 5.8001 19.6001 6.0001 19.8001L6.1001 19.9001C6.3001 20.1001 6.3001 20.4001 6.1001 20.6001L4.70011 22.3001C4.50011 22.5001 4.3001 22.5001 4.1001 22.3001L4.0001 22.2001C3.8001 22.0001 3.8001 21.7001 4.0001 21.5001Z"
			fill="#0075A6" />
		<path fill-rule="evenodd" clip-rule="evenodd"
			d="M3.50013 20.9001L5.90012 20.4001C6.20012 20.3001 6.30013 20.2001 6.10013 20.0001L6.00013 19.9001C5.80013 19.7001 5.50014 19.6001 5.20014 19.7001L3.00013 20.2001C2.70013 20.3001 2.50014 20.5001 2.70014 20.8001C2.90014 20.9001 3.20013 21.0001 3.50013 20.9001Z"
			fill="#0075A6" />
		<path fill-rule="evenodd" clip-rule="evenodd"
			d="M2.79995 20.0001L4.39995 18.5001C4.59995 18.3001 4.79996 18.4001 4.99996 18.6001L5.09997 18.7001C5.19997 18.9001 5.19996 19.2001 4.99996 19.4001L3.39995 20.9001C3.19995 21.1001 2.99995 21.0001 2.79995 20.8001L2.69997 20.7001C2.59997 20.4001 2.59995 20.2001 2.79995 20.0001Z"
			fill="#0075A6" />
		<path fill-rule="evenodd" clip-rule="evenodd"
			d="M2.40007 19.4L4.90007 19.3C5.20007 19.3 5.30009 19.1 5.20009 18.9L5.10008 18.8C5.00008 18.6 4.60007 18.4 4.40007 18.5L2.10008 18.6C1.80008 18.7 1.60009 18.8 1.70009 19.1C1.80009 19.2 2.10007 19.4 2.40007 19.4Z"
			fill="#0075A6" />
		<path fill-rule="evenodd" clip-rule="evenodd"
			d="M1.80001 18.3L3.60002 17C3.80002 16.9 4.10003 16.9 4.20003 17.1L4.30001 17.2C4.40001 17.4 4.30002 17.7 4.10002 17.8L2.30001 19.1C2.10001 19.2 1.80003 19.2 1.70003 19L1.60002 18.9C1.50002 18.7 1.60001 18.5 1.80001 18.3Z"
			fill="#0075A6" />
		<path fill-rule="evenodd" clip-rule="evenodd"
			d="M1.50006 17.6L3.90005 17.8999C4.20005 17.8999 4.30007 17.8 4.20007 17.6L4.10007 17.5C4.00007 17.3 3.70006 17.1 3.50006 17L1.30005 16.7C1.00005 16.7 0.800049 16.8 0.800049 17.1C1.00005 17.4 1.30006 17.6 1.50006 17.6Z"
			fill="#0075A6" />
		<path fill-rule="evenodd" clip-rule="evenodd"
			d="M1.10007 16.5002L3.10007 15.5002C3.30007 15.4002 3.60007 15.5002 3.60007 15.7002V15.8002C3.70007 16.0002 3.60005 16.3002 3.30005 16.4002L1.30005 17.4002C1.10005 17.5002 0.800049 17.4002 0.800049 17.2002V17.1002C0.800049 16.9002 0.900067 16.6002 1.10007 16.5002Z"
			fill="#0075A6" />
		<path fill-rule="evenodd" clip-rule="evenodd"
			d="M1 15.8L3.39999 16.5C3.69999 16.6 3.79999 16.4 3.79999 16.2V16C3.69999 15.8 3.50001 15.5 3.20001 15.4L1 14.8C0.7 14.8 0.5 14.8 0.5 15.2C0.5 15.4 0.7 15.7 1 15.8Z"
			fill="#0075A6" />
		<path fill-rule="evenodd" clip-rule="evenodd"
			d="M0.700165 14.6001L2.80014 13.9001C3.00014 13.8001 3.30014 14.0001 3.30014 14.2001V14.3001C3.30014 14.5001 3.20015 14.8001 3.00015 14.9001L0.900146 15.6001C0.700146 15.7001 0.400146 15.5001 0.400146 15.3001V15.2001C0.400146 15.0001 0.500165 14.7001 0.700165 14.6001Z"
			fill="#0075A6" />
		<path fill-rule="evenodd" clip-rule="evenodd"
			d="M1.40009 13.8L3.00009 14.6C3.20009 14.7 3.30008 14.5999 3.30008 14.3999V14.3C3.30008 14.1 3.10009 13.4999 3.00009 13.3999L1.50009 12.7C1.30009 12.7 1.1001 13.1 1.1001 13.3C1.1001 13.5 1.20009 13.7 1.40009 13.8Z"
			fill="#0075A6" />
		<path fill-rule="evenodd" clip-rule="evenodd"
			d="M22.1 23.2L23.3 21.2C23.6 20.7 23.6 20.2 23.2 19.8L20.7 17.3C20.3 16.9 19.8 16.9 19.3 17.1L16.9 18.5C15.8 18.3 14.3 16.9 13.2 15.9C12.1 14.8 10.8 13.4 10.6 12.2L12 9.80003C12.2 9.30003 12.3 8.80002 11.8 8.40002L9.29998 5.90002C8.89998 5.50002 8.49999 5.50003 7.89999 5.80003L5.89999 7.00003C5.29999 7.40003 5.50001 8.20003 5.70001 9.10003C6.70001 12.8 8.50001 15.3 11.2 17.9C13.8 20.5 16.3 22.4 20 23.4C20.9 23.6 21.7 23.8 22.1 23.2Z"
			fill="#0075A6" />
		<path fill-rule="evenodd" clip-rule="evenodd"
			d="M20.6999 22.8L20.0999 22.7L18.7999 22.3C15.9999 21.3 13.8999 19.7 11.5999 17.4C9.39994 15.1 7.69994 13 6.69994 10.2L6.29992 8.99999L6.19994 8.6C5.99994 7.7 6.09994 7.69999 6.19994 7.69999L8.19994 6.49999C8.49994 6.29999 8.59994 6.39999 8.69994 6.49999L11.1999 8.99999C11.2999 9.09999 11.2999 9.09999 11.2999 9.19999L11.1999 9.49999L9.79992 11.8C9.69992 12 9.69994 12.1 9.69994 12.3C9.99994 13.9 11.4999 15.4 12.4999 16.4C13.4999 17.4 15.2999 19.1 16.5999 19.3C16.7999 19.3 16.8999 19.3 17.0999 19.2L19.3999 17.8L19.6999 17.7L19.8999 17.8L22.3999 20.3C22.4999 20.4 22.5999 20.5 22.3999 20.8L21.1999 22.8C21.3999 22.8 21.1999 22.8 20.6999 22.8Z"
			fill="#00A2E5" />

		<!-- calendar -->
		<symbol id="calendar" viewBox="0 0 32 32">
			<path
				d="M3.33203 12.6665H28.6654M3.33203 12.6665V26.6665C3.33203 27.0201 3.47251 27.3593 3.72256 27.6093C3.9726 27.8594 4.31174 27.9998 4.66536 27.9998H27.332C27.6857 27.9998 28.0248 27.8594 28.2748 27.6093C28.5249 27.3593 28.6654 27.0201 28.6654 26.6665V12.6665M3.33203 12.6665V5.99984C3.33203 5.64622 3.47251 5.30708 3.72256 5.05703C3.9726 4.80698 4.31174 4.6665 4.66536 4.6665H27.332C27.6857 4.6665 28.0248 4.80698 28.2748 5.05703C28.5249 5.30708 28.6654 5.64622 28.6654 5.99984V12.6665"
				stroke="#C2C2C2" stroke-width="1.6" stroke-linejoin="round" />
			<path
				d="M10.6654 2.6665V7.99984M21.332 2.6665V7.99984M18.6654 22.6665H22.6654M9.33203 22.6665H13.332M18.6654 17.3332H22.6654M9.33203 17.3332H13.332"
				stroke="#C2C2C2" stroke-width="1.6" stroke-linecap="round" stroke-linejoin="round" />
		</symbol>

	</symbol>

</svg>