<!-- svg спрайты -->
<svg xmlns="http://www.w3.org/2000/svg" display="none">

	<!-- Logo  -->
	<symbol id="email" viewBox="0 26 26">
		<path fill-rule="evenodd" clip-rule="evenodd"
			d="M0.800049 13.1001C0.800049 6.5001 6.20005 1.1001 12.8 1.1001C15.4 1.1001 17.8 1.90009 19.8 3.30009H16.7001C15.5001 2.80009 14.2 2.6001 12.8 2.6001C7.00005 2.6001 2.30005 7.3001 2.30005 13.1001C2.30005 18.9001 7.00005 23.6001 12.8 23.6001C14.2 23.6001 15.5001 23.3001 16.7001 22.8001H19.8C17.8 24.2001 15.4 25.0001 12.8 25.0001C6.20005 25.1001 0.800049 19.7001 0.800049 13.1001ZM23.3 13.1001C23.3 9.8001 21.7 6.80009 19.3 4.80009H21.5001C23.5001 7.00009 24.8 9.9001 24.8 13.1001C24.8 16.3001 23.5001 19.2001 21.5001 21.3001H19.3C21.7 19.4001 23.3 16.4001 23.3 13.1001Z"
			fill="#0075A6" />
		<path fill-rule="evenodd" clip-rule="evenodd"
			d="M3.1001 13.1001C3.1001 11.8001 3.30008 10.6 3.80008 9.50005C4.30008 8.30005 6.50009 8.40005 7.40009 7.50005C8.00009 6.90005 7.0001 5.20005 7.7001 4.80005H22.7001C23.5001 4.80005 24.1001 5.40004 24.1001 6.20004V19.9C24.1001 20.7 23.5001 21.3 22.7001 21.3H7.7001C4.9001 19.6 3.1001 16.6001 3.1001 13.1001Z"
			fill="#00A2E5" />
		<path fill-rule="evenodd" clip-rule="evenodd"
			d="M23.1002 21.2L11.3002 11.3001L4.00018 17.4C3.90018 17.2 3.8002 16.9 3.7002 16.7L11.0002 10.5C11.1002 10.4 11.3002 10.4 11.5002 10.5L23.5002 20.6001C23.7002 20.7001 23.7002 21.0001 23.5002 21.1001C23.5002 21.3001 23.2002 21.3 23.1002 21.2Z"
			fill="#85DBF6" />
		<path fill-rule="evenodd" clip-rule="evenodd"
			d="M10.4001 14.7001L3.90015 9.20015C4.70015 7.40015 6.00016 5.90015 7.60016 4.90015H22.7002C23.0002 4.90015 23.3002 5.00015 23.6002 5.20015L12.3001 14.8002C11.8001 15.1002 10.9001 15.1001 10.4001 14.7001Z"
			fill="#85DBF6" />
		<path fill-rule="evenodd" clip-rule="evenodd"
			d="M6.6001 20.6H22.7001C23.1001 20.6 23.4001 20.3 23.4001 19.9V6.2C23.4001 5.8 23.1001 5.5 22.7001 5.5H6.6001C7.3001 4.9 8.2001 4.4 9.1001 4H22.7001C23.9001 4 24.9001 5 24.9001 6.2V19.9C24.9001 21.1 23.9001 22.1 22.7001 22.1H9.1001C8.2001 21.7 7.3001 21.2 6.6001 20.6Z"
			fill="#0075A6" />
		<path fill-rule="evenodd" clip-rule="evenodd"
			d="M10.2001 14.9001L3.80005 9.50009C3.90005 9.30009 4.00007 9.0001 4.10007 8.8001L10.7001 14.4001C11.0001 14.7001 11.7001 14.7001 12.1001 14.4001L23.4001 4.8001C23.6001 4.7001 23.8001 4.7001 23.9001 4.8001C24.0001 5.0001 24.0001 5.2001 23.9001 5.3001L12.6001 14.9001C11.9001 15.5001 10.8001 15.5001 10.2001 14.9001Z"
			fill="#0075A6" />
	</symbol>

	<!-- callback -->
	<symbol id="callback" viewBox="0 0 27 26">
		<path fill-rule="evenodd" clip-rule="evenodd"
			d="M1.19995 25.3L2.99994 19C1.99994 17.2 1.39993 15.2 1.39993 13C1.39993 6.4 6.79993 1 13.3999 1C19.9999 1 25.3999 6.4 25.3999 13C25.3999 19.6 19.9999 25 13.3999 25C11.2999 25 9.39995 24.5 7.69995 23.5L1.19995 25.3Z"
			fill="#0075A6" />
		<path fill-rule="evenodd" clip-rule="evenodd"
			d="M8.39999 22.3001C8.09999 22.1001 7.69999 22.1001 7.29999 22.2001L3.39999 23.2001L4.5 19.5001C4.6 19.1001 4.59999 18.7001 4.39999 18.3001C3.49999 16.8001 3 15.0001 3 13.1001C3 7.3001 7.7 2.6001 13.5 2.6001C19.3 2.6001 24 7.3001 24 13.1001C24 18.9001 19.3 23.6001 13.5 23.6001C11.6 23.6001 9.89999 23.1001 8.39999 22.3001Z"
			fill="#85DBF6" />
		<path fill-rule="evenodd" clip-rule="evenodd"
			d="M8.79993 21.6001C8.29993 21.3001 7.69995 21.3 7.19995 21.4L4.49994 22.1001L5.19995 19.7C5.39995 19.1 5.29994 18.5 4.99994 17.9C4.19994 16.5 3.69995 14.8 3.69995 13C3.69995 7.60005 8.09993 3.30005 13.3999 3.30005C18.7999 3.30005 23.0999 7.70005 23.0999 13C23.0999 18.4 18.6999 22.7 13.3999 22.7C11.6999 22.8 10.1999 22.4001 8.79993 21.6001Z"
			fill="#0075A6" />
		<path fill-rule="evenodd" clip-rule="evenodd"
			d="M9.09982 21.0001C8.39982 20.6001 7.59981 20.5001 6.89981 20.7001L5.49982 21.1001L5.7998 19.9001C5.9998 19.1001 5.89982 18.3001 5.49982 17.6001C4.69982 16.3001 4.2998 14.8001 4.2998 13.1001C4.2998 8.1001 8.2998 4.1001 13.2998 4.1001C18.2998 4.1001 22.2998 8.1001 22.2998 13.1001C22.2998 18.1001 18.2998 22.1001 13.2998 22.1001C11.8998 22.1001 10.3998 21.7001 9.09982 21.0001Z"
			fill="white" />
		<path fill-rule="evenodd" clip-rule="evenodd"
			d="M19.2 16.0001C18.9 15.8001 17.3 15.1001 17 15.0001C16.7 14.9001 16.5 14.8001 16.3 15.2001C16.1 15.5001 15.5 16.2001 15.3 16.4001C15.1 16.6001 14.9 16.6001 14.6 16.5001C14.3 16.3001 13.3 16.0001 12.1 14.9001C11.2 14.1001 10.5 13.0001 10.3 12.7001C10.1 12.4001 10.3 12.2002 10.4 12.1002C10.5 12.0002 10.7 11.7001 10.9 11.5001C11.1 11.3001 11.1 11.2001 11.2 11.0001C11.3 10.8001 11.3 10.6001 11.2 10.4001C11.1 10.2001 10.5 8.70015 10.2 8.00015C9.90001 7.40015 9.7 7.50015 9.5 7.50015C9.3 7.50015 9.09999 7.50015 8.89999 7.50015C8.69999 7.50015 8.40001 7.60014 8.10001 7.90014C7.80001 8.20014 7 9.00015 7 10.6002C7 12.2002 8.09999 13.7001 8.29999 13.9001C8.49999 14.1001 10.5 17.3001 13.7 18.7001C14.5 19.0001 15 19.2001 15.5 19.4001C16.3 19.6001 16.9 19.6001 17.5 19.5001C18.1 19.4001 19.4 18.7001 19.6 18.0001C19.9 17.3001 19.9 16.6001 19.8 16.5001C19.7 16.2001 19.5 16.2001 19.2 16.0001Z"
			fill="#00A2E5" />
		<path fill-rule="evenodd" clip-rule="evenodd"
			d="M15.3999 19.6001C14.8999 19.5001 14.2999 19.3001 13.5999 18.9001C10.2999 17.5001 8.19995 14.2001 8.09995 14.0001C7.99995 13.8001 6.69995 12.2001 6.69995 10.5001C6.69995 8.80009 7.59993 7.9001 7.89993 7.6001C8.29993 7.2001 8.69994 7.1001 8.99994 7.1001C9.19994 7.1001 9.39995 7.1001 9.59995 7.1001C9.59995 7.1001 9.89995 7.10009 10.0999 7.20009C10.2999 7.30009 10.5 7.50009 10.7 7.90009C11 8.60009 11.6 10.1001 11.7 10.2001C11.8 10.4001 11.9 10.7001 11.7 11.1001C11.6 11.3001 11.4999 11.5001 11.2999 11.7001C11.1999 11.9001 10.9999 12.1001 10.7999 12.3001L10.7 12.4001V12.5001C10.9 12.8001 11.4999 13.8001 12.3999 14.6001C13.5999 15.6001 14.4999 15.9001 14.7999 16.1001C14.8999 16.1001 14.8999 16.1001 14.8999 16.2001H14.9999C15.1999 16.0001 15.7999 15.3001 15.9999 15.0001C16.0999 14.9001 16.1999 14.8001 16.2999 14.7001C16.3999 14.6001 16.4999 14.6001 16.5999 14.6001C16.7999 14.6001 17 14.7001 17.2 14.7001C17.5 14.8001 19.0999 15.6001 19.3999 15.8001C19.5999 15.9001 19.8999 16.0001 20.0999 16.2001L20.2 16.3001C20.2 16.3001 20.1999 16.4001 20.2999 16.4001C20.3999 16.7001 20.2999 17.4001 20.0999 18.1001C19.7999 19.0001 18.4 19.8001 17.7 19.9001C17 19.9001 16.1999 19.9001 15.3999 19.6001ZM17.3999 19.0001C17.8999 18.9001 19 18.3001 19.2 17.7001C19.4 17.1001 19.3999 16.7001 19.3999 16.5001C19.2999 16.5001 19.1999 16.4001 18.9999 16.3001C18.6999 16.1001 17.1999 15.4001 16.8999 15.3001C16.7999 15.3001 16.8 15.3001 16.7 15.2001H16.5999C16.5999 15.2001 16.5999 15.2001 16.4999 15.3001C16.2999 15.6001 15.6999 16.4001 15.4999 16.6001C15.3999 16.7001 15.3 16.8001 15.2 16.9001C15.1 16.9001 15.0999 16.9001 14.9999 17.0001C14.7999 17.0001 14.5999 17.0001 14.3999 16.9001C14.0999 16.8001 12.9999 16.4001 11.7999 15.3001C10.7999 14.4001 10.1999 13.3001 9.99994 13.0001C9.89994 12.9001 9.89993 12.7001 9.89993 12.6001C9.89993 12.5001 9.89993 12.4001 9.89993 12.3001C9.99993 12.1001 10.1 11.9001 10.2 11.9001C10.3 11.8001 10.5 11.6001 10.7 11.4001C10.8 11.3001 10.8999 11.2001 10.9999 10.9001C10.9999 10.8001 10.9999 10.8001 10.9999 10.7001C10.8999 10.5001 10.2999 8.90009 9.99994 8.30009C9.89994 8.00009 9.79993 8.00009 9.79993 8.00009C9.79993 8.00009 9.79995 8.00009 9.59995 8.00009C9.39995 8.00009 9.19994 8.00009 8.99994 8.00009C8.89994 8.00009 8.59993 8.00009 8.39993 8.30009C8.09993 8.60009 7.39993 9.30009 7.39993 10.7001C7.39993 12.1001 8.39995 13.5001 8.59995 13.8001C8.79995 14.0001 10.7999 17.2001 13.7999 18.5001C14.4999 18.8001 15.0999 19.0001 15.5999 19.2001C16.2999 19.1001 16.8999 19.1001 17.3999 19.0001Z"
			fill="#0075A6" />
	</symbol>

	<!-- message -->
	<symbol id="message" viewBox="0 0 27 26">
		<path fill-rule="evenodd" clip-rule="evenodd"
			d="M13.5999 1.1001C20.1999 1.1001 25.5999 6.5001 25.5999 13.1001C25.5999 19.7001 20.1999 25.1001 13.5999 25.1001C6.99985 25.1001 1.59985 19.7001 1.59985 13.1001C1.59985 6.5001 6.99985 1.1001 13.5999 1.1001Z"
			fill="#0075A6" />
		<path fill-rule="evenodd" clip-rule="evenodd"
			d="M13.5999 2.6001C19.3999 2.6001 24.0999 7.3001 24.0999 13.1001C24.0999 18.9001 19.3999 23.6001 13.5999 23.6001C7.79985 23.6001 3.09985 18.9001 3.09985 13.1001C3.09985 7.3001 7.79985 2.6001 13.5999 2.6001Z"
			fill="#00A2E5" />
		<path fill-rule="evenodd" clip-rule="evenodd"
			d="M15.2998 19.1001L12.0998 16.9001C11.7998 16.7001 11.4998 16.4001 11.3998 15.9001C11.2998 15.5001 11.3998 15.1001 11.5998 14.9001L11.7998 14.7001L10.6998 15.4001C9.99981 15.8001 9.19981 15.7001 8.69981 15.6001L6.19981 14.7001C5.49981 14.5001 5.19982 13.6001 5.59982 13.0001C5.89982 12.5001 6.49981 12.3001 6.69981 12.3001L18.0998 7.40009C18.4998 7.20009 19.1998 7.1001 19.7998 7.5001C20.3998 8.0001 20.2998 8.8001 20.2998 9.0001L18.8998 18.4001C18.7998 18.9001 18.4998 19.8001 17.5998 19.9001C16.5998 19.9001 15.6998 19.4001 15.2998 19.1001Z"
			fill="#0075A6" />
		<path fill-rule="evenodd" clip-rule="evenodd"
			d="M10.2998 14.6L15.5998 11.2C15.8998 11 16.4998 10.6 16.6998 10.8C16.7998 10.9 16.5998 11.4 16.3998 11.5L12.3998 15C12.1998 15.1 12.0998 15.4 12.1998 15.6C12.1998 15.8 12.3998 16 12.5998 16.1L15.7998 18.3C16.2998 18.6 16.8998 19 17.4998 18.9C17.8998 18.8 18.1998 18.4 18.1998 18L19.5998 8.60004C19.5998 8.30004 19.5998 8.00004 19.3998 7.80004C19.1998 7.60004 18.7998 7.70004 18.4998 7.80004L7.09984 12.7C6.79984 12.8 6.49982 12.9 6.39982 13.2C6.29982 13.4 6.39984 13.7 6.59984 13.8L9.09984 14.7C9.29984 14.9 9.89983 14.9 10.2998 14.6Z"
			fill="white" />
	</symbol>

	<!-- phone -->
	<symbol id="phone" viewBox="0 0 26 26">
	<path fill-rule="evenodd" clip-rule="evenodd"
		d="M23.4001 19.0001L22.3001 17.9001C23.1001 16.5001 23.5002 14.8001 23.5002 13.1001C23.5002 7.3001 18.8002 2.6001 13.0002 2.6001C7.20015 2.6001 2.50015 7.3001 2.50015 13.1001C2.50015 13.5001 2.20016 13.9001 1.70016 13.9001C1.30016 13.9001 0.900146 13.6001 0.900146 13.1001C0.900146 6.5001 6.30015 1.1001 12.9001 1.1001C19.5001 1.1001 24.9001 6.5001 24.9001 13.1001C25.0001 15.2001 24.4001 17.3001 23.4001 19.0001Z"
		fill="#0075A6" />
	<path fill-rule="evenodd" clip-rule="evenodd"
		d="M17.8001 24.6001L19.5001 22.2001C19.7001 21.9001 19.6001 21.8 19.3001 21.9L19.1001 22.0001C18.8001 22.1001 18.5001 22.4001 18.3001 22.6001L16.8001 24.8001C16.7001 25.1001 16.6001 25.3001 17.0001 25.3001C17.3001 25.1001 17.6001 24.9001 17.8001 24.6001Z"
		fill="#0075A6" />
	<path fill-rule="evenodd" clip-rule="evenodd"
		d="M16.2998 25L15.3998 23C15.2998 22.8 15.3998 22.5 15.5998 22.5H15.6998C15.8998 22.4 16.1998 22.6 16.2998 22.8L17.1998 24.8C17.2998 25 17.1998 25.3 16.9998 25.3H16.8998C16.6998 25.3 16.3998 25.2 16.2998 25Z"
		fill="#0075A6" />
	<path fill-rule="evenodd" clip-rule="evenodd"
		d="M15.6001 25.1001L16.3001 22.7C16.4001 22.4 16.2001 22.3 16.0001 22.3H15.8001C15.6001 22.4 15.3001 22.6 15.2001 22.9L14.6001 25.1001C14.6001 25.4001 14.7001 25.6001 15.0001 25.6001C15.3001 25.7001 15.6001 25.4001 15.6001 25.1001Z"
		fill="#0075A6" />
	<path fill-rule="evenodd" clip-rule="evenodd"
		d="M14.5001 25.4L13.9001 23.3C13.8001 23.1 14.0002 22.8 14.2002 22.8H14.3001C14.5001 22.8 14.8001 22.9 14.9001 23.2L15.5001 25.3C15.6001 25.5 15.4002 25.8 15.2002 25.8H15.1001C14.8001 25.8 14.5001 25.6 14.5001 25.4Z"
		fill="#0075A6" />
	<path fill-rule="evenodd" clip-rule="evenodd"
		d="M13.7 25.4L14.7999 23.2C14.8999 23 14.8 22.8 14.6 22.8H14.4C14.2 22.8 13.8999 23 13.7999 23.3L12.7999 25.3C12.6999 25.6 12.8 25.8 13.1 25.9C13.3 25.8 13.6 25.6 13.7 25.4Z"
		fill="#0075A6" />
	<path fill-rule="evenodd" clip-rule="evenodd"
		d="M12.5001 25.4L12.3 23.2C12.3 23 12.5001 22.8 12.7001 22.8H12.8C13 22.8 13.3 23 13.3 23.2L13.5001 25.4C13.5001 25.6 13.3001 25.8 13.1001 25.8H13.0001C12.8001 25.8 12.5001 25.6 12.5001 25.4Z"
		fill="#0075A6" />
	<path fill-rule="evenodd" clip-rule="evenodd"
		d="M11.8001 25.4001L13.2002 23.3002C13.3002 23.1002 13.3001 22.9001 13.0001 22.9001H12.8001C12.6001 22.9001 12.2001 23.0002 12.1001 23.3002L10.9001 25.2001C10.8001 25.5001 10.8001 25.7002 11.1001 25.8002C11.3001 25.7002 11.6001 25.6001 11.8001 25.4001Z"
		fill="#0075A6" />
	<path fill-rule="evenodd" clip-rule="evenodd"
		d="M10.6001 25.2001L10.7001 23.0001C10.7001 22.8001 10.9001 22.6001 11.2001 22.6001H11.3001C11.5001 22.6001 11.7001 22.9001 11.7001 23.1001L11.6001 25.3001C11.6001 25.5001 11.4001 25.7001 11.1001 25.7001H11.0001C10.8001 25.7001 10.6001 25.4001 10.6001 25.2001Z"
		fill="#0075A6" />
	<path fill-rule="evenodd" clip-rule="evenodd"
		d="M9.89997 24.9999L11.6 23.1999C11.8 22.9999 11.7 22.7999 11.5 22.6999H11.3C11.1 22.5999 10.7 22.7999 10.5 22.9999L8.99998 24.6999C8.79998 24.9999 8.79999 25.1999 9.09999 25.2999C9.39999 25.2999 9.69997 25.1999 9.89997 24.9999Z"
		fill="#0075A6" />
	<path fill-rule="evenodd" clip-rule="evenodd"
		d="M8.7002 24.6999L9.10019 22.4999C9.10019 22.2999 9.40019 22.0999 9.60019 22.1999H9.7002C9.9002 22.2999 10.1002 22.4999 10.0002 22.7999L9.60019 24.9999C9.60019 25.1999 9.30019 25.3999 9.10019 25.2999H9.00018C8.80018 25.1999 8.7002 24.8999 8.7002 24.6999Z"
		fill="#0075A6" />
	<path fill-rule="evenodd" clip-rule="evenodd"
		d="M8.00019 24.4L10.0002 22.9C10.2002 22.7 10.2002 22.5 10.0002 22.4L9.90019 22.3C9.70019 22.2 9.3002 22.3 9.1002 22.4L7.30018 23.8C7.10018 24 7.00018 24.3 7.30018 24.4C7.50018 24.6 7.80019 24.5 8.00019 24.4Z"
		fill="#0075A6" />
	<path fill-rule="evenodd" clip-rule="evenodd"
		d="M7.00017 23.9L7.80015 21.8C7.90015 21.6 8.10015 21.5 8.30015 21.6L8.40016 21.7C8.60016 21.8 8.70017 22.1 8.60017 22.3L7.80015 24.4C7.70015 24.6 7.50015 24.7 7.30015 24.6L7.20018 24.5C7.00018 24.4 6.90017 24.1 7.00017 23.9Z"
		fill="#0075A6" />
	<path fill-rule="evenodd" clip-rule="evenodd"
		d="M6.40009 23.5001L8.6001 22.4001C8.8001 22.3001 8.90011 22.1001 8.70011 21.9001L8.6001 21.8001C8.4001 21.7001 8.00008 21.7001 7.80008 21.8001L5.80008 22.9001C5.60008 23.1001 5.40011 23.3001 5.70011 23.5001C5.80011 23.6001 6.10009 23.6001 6.40009 23.5001Z"
		fill="#0075A6" />
	<path fill-rule="evenodd" clip-rule="evenodd"
		d="M5.39982 22.8001L6.39982 20.8001C6.49982 20.6001 6.79983 20.5001 6.99983 20.7001L7.09984 20.8001C7.29984 20.9001 7.39982 21.2001 7.29982 21.4001L6.29982 23.4001C6.19982 23.6001 5.89984 23.7001 5.69984 23.5001L5.59984 23.4001C5.39984 23.3001 5.29982 23.0001 5.39982 22.8001Z"
		fill="#0075A6" />
	<path fill-rule="evenodd" clip-rule="evenodd"
		d="M4.80003 22.3002L7.10005 21.5002C7.40005 21.4002 7.40006 21.2002 7.20006 21.1002L7.10005 21.0002C6.90005 20.8002 6.60003 20.8002 6.30003 20.9002L4.20006 21.7002C3.90006 21.9002 3.80004 22.1002 4.00004 22.3002C4.20004 22.3002 4.60003 22.4002 4.80003 22.3002Z"
		fill="#0075A6" />
	<path fill-rule="evenodd" clip-rule="evenodd"
		d="M4.0001 21.5001L5.40009 19.8001C5.60009 19.6001 5.8001 19.6001 6.0001 19.8001L6.1001 19.9001C6.3001 20.1001 6.3001 20.4001 6.1001 20.6001L4.70011 22.3001C4.50011 22.5001 4.3001 22.5001 4.1001 22.3001L4.0001 22.2001C3.8001 22.0001 3.8001 21.7001 4.0001 21.5001Z"
		fill="#0075A6" />
	<path fill-rule="evenodd" clip-rule="evenodd"
		d="M3.50013 20.9001L5.90012 20.4001C6.20012 20.3001 6.30013 20.2001 6.10013 20.0001L6.00013 19.9001C5.80013 19.7001 5.50014 19.6001 5.20014 19.7001L3.00013 20.2001C2.70013 20.3001 2.50014 20.5001 2.70014 20.8001C2.90014 20.9001 3.20013 21.0001 3.50013 20.9001Z"
		fill="#0075A6" />
	<path fill-rule="evenodd" clip-rule="evenodd"
		d="M2.79995 20.0001L4.39995 18.5001C4.59995 18.3001 4.79996 18.4001 4.99996 18.6001L5.09997 18.7001C5.19997 18.9001 5.19996 19.2001 4.99996 19.4001L3.39995 20.9001C3.19995 21.1001 2.99995 21.0001 2.79995 20.8001L2.69997 20.7001C2.59997 20.4001 2.59995 20.2001 2.79995 20.0001Z"
		fill="#0075A6" />
	<path fill-rule="evenodd" clip-rule="evenodd"
		d="M2.40007 19.4L4.90007 19.3C5.20007 19.3 5.30009 19.1 5.20009 18.9L5.10008 18.8C5.00008 18.6 4.60007 18.4 4.40007 18.5L2.10008 18.6C1.80008 18.7 1.60009 18.8 1.70009 19.1C1.80009 19.2 2.10007 19.4 2.40007 19.4Z"
		fill="#0075A6" />
	<path fill-rule="evenodd" clip-rule="evenodd"
		d="M1.80001 18.3L3.60002 17C3.80002 16.9 4.10003 16.9 4.20003 17.1L4.30001 17.2C4.40001 17.4 4.30002 17.7 4.10002 17.8L2.30001 19.1C2.10001 19.2 1.80003 19.2 1.70003 19L1.60002 18.9C1.50002 18.7 1.60001 18.5 1.80001 18.3Z"
		fill="#0075A6" />
	<path fill-rule="evenodd" clip-rule="evenodd"
		d="M1.50006 17.6L3.90005 17.8999C4.20005 17.8999 4.30007 17.8 4.20007 17.6L4.10007 17.5C4.00007 17.3 3.70006 17.1 3.50006 17L1.30005 16.7C1.00005 16.7 0.800049 16.8 0.800049 17.1C1.00005 17.4 1.30006 17.6 1.50006 17.6Z"
		fill="#0075A6" />
	<path fill-rule="evenodd" clip-rule="evenodd"
		d="M1.10007 16.5002L3.10007 15.5002C3.30007 15.4002 3.60007 15.5002 3.60007 15.7002V15.8002C3.70007 16.0002 3.60005 16.3002 3.30005 16.4002L1.30005 17.4002C1.10005 17.5002 0.800049 17.4002 0.800049 17.2002V17.1002C0.800049 16.9002 0.900067 16.6002 1.10007 16.5002Z"
		fill="#0075A6" />
	<path fill-rule="evenodd" clip-rule="evenodd"
		d="M1 15.8L3.39999 16.5C3.69999 16.6 3.79999 16.4 3.79999 16.2V16C3.69999 15.8 3.50001 15.5 3.20001 15.4L1 14.8C0.7 14.8 0.5 14.8 0.5 15.2C0.5 15.4 0.7 15.7 1 15.8Z"
		fill="#0075A6" />
	<path fill-rule="evenodd" clip-rule="evenodd"
		d="M0.700165 14.6001L2.80014 13.9001C3.00014 13.8001 3.30014 14.0001 3.30014 14.2001V14.3001C3.30014 14.5001 3.20015 14.8001 3.00015 14.9001L0.900146 15.6001C0.700146 15.7001 0.400146 15.5001 0.400146 15.3001V15.2001C0.400146 15.0001 0.500165 14.7001 0.700165 14.6001Z"
		fill="#0075A6" />
	<path fill-rule="evenodd" clip-rule="evenodd"
		d="M1.40009 13.8L3.00009 14.6C3.20009 14.7 3.30008 14.5999 3.30008 14.3999V14.3C3.30008 14.1 3.10009 13.4999 3.00009 13.3999L1.50009 12.7C1.30009 12.7 1.1001 13.1 1.1001 13.3C1.1001 13.5 1.20009 13.7 1.40009 13.8Z"
		fill="#0075A6" />
	<path fill-rule="evenodd" clip-rule="evenodd"
		d="M22.1 23.2L23.3 21.2C23.6 20.7 23.6 20.2 23.2 19.8L20.7 17.3C20.3 16.9 19.8 16.9 19.3 17.1L16.9 18.5C15.8 18.3 14.3 16.9 13.2 15.9C12.1 14.8 10.8 13.4 10.6 12.2L12 9.80003C12.2 9.30003 12.3 8.80002 11.8 8.40002L9.29998 5.90002C8.89998 5.50002 8.49999 5.50003 7.89999 5.80003L5.89999 7.00003C5.29999 7.40003 5.50001 8.20003 5.70001 9.10003C6.70001 12.8 8.50001 15.3 11.2 17.9C13.8 20.5 16.3 22.4 20 23.4C20.9 23.6 21.7 23.8 22.1 23.2Z"
		fill="#0075A6" />
	<path fill-rule="evenodd" clip-rule="evenodd"
		d="M20.6999 22.8L20.0999 22.7L18.7999 22.3C15.9999 21.3 13.8999 19.7 11.5999 17.4C9.39994 15.1 7.69994 13 6.69994 10.2L6.29992 8.99999L6.19994 8.6C5.99994 7.7 6.09994 7.69999 6.19994 7.69999L8.19994 6.49999C8.49994 6.29999 8.59994 6.39999 8.69994 6.49999L11.1999 8.99999C11.2999 9.09999 11.2999 9.09999 11.2999 9.19999L11.1999 9.49999L9.79992 11.8C9.69992 12 9.69994 12.1 9.69994 12.3C9.99994 13.9 11.4999 15.4 12.4999 16.4C13.4999 17.4 15.2999 19.1 16.5999 19.3C16.7999 19.3 16.8999 19.3 17.0999 19.2L19.3999 17.8L19.6999 17.7L19.8999 17.8L22.3999 20.3C22.4999 20.4 22.5999 20.5 22.3999 20.8L21.1999 22.8C21.3999 22.8 21.1999 22.8 20.6999 22.8Z"
		fill="#00A2E5" />

	<!-- calendar -->
	<symbol id="calendar" viewBox="0 0 32 32">
		<path
			d="M3.33203 12.6665H28.6654M3.33203 12.6665V26.6665C3.33203 27.0201 3.47251 27.3593 3.72256 27.6093C3.9726 27.8594 4.31174 27.9998 4.66536 27.9998H27.332C27.6857 27.9998 28.0248 27.8594 28.2748 27.6093C28.5249 27.3593 28.6654 27.0201 28.6654 26.6665V12.6665M3.33203 12.6665V5.99984C3.33203 5.64622 3.47251 5.30708 3.72256 5.05703C3.9726 4.80698 4.31174 4.6665 4.66536 4.6665H27.332C27.6857 4.6665 28.0248 4.80698 28.2748 5.05703C28.5249 5.30708 28.6654 5.64622 28.6654 5.99984V12.6665"
			stroke="#C2C2C2" stroke-width="1.6" stroke-linejoin="round" />
		<path
			d="M10.6654 2.6665V7.99984M21.332 2.6665V7.99984M18.6654 22.6665H22.6654M9.33203 22.6665H13.332M18.6654 17.3332H22.6654M9.33203 17.3332H13.332"
			stroke="#C2C2C2" stroke-width="1.6" stroke-linecap="round" stroke-linejoin="round" />
	</symbol>

	<!-- telegram -->
	<symbol id="telegram" viewBox="0 0 40 40">
		<g clip-path="url(#clip0_734_28163)">
			<rect width="40" height="40" fill="#2BA9DC" />
			<path
				d="M29.7843 10.1763C29.7843 10.1763 32.1892 9.31063 31.988 11.4129C31.9218 12.2786 31.3207 15.3089 30.8527 18.586L29.2494 28.2945C29.2494 28.2945 29.1157 29.7168 27.9129 29.9643C26.7107 30.2111 24.9069 29.0985 24.5726 28.8511C24.3052 28.6654 19.5621 25.8826 17.8919 24.5226C17.4239 24.1511 16.8891 23.4094 17.9588 22.5437L24.9731 16.3597C25.7748 15.618 26.5764 13.8866 23.2361 15.9889L13.8824 21.8631C13.8824 21.8631 12.8133 22.482 10.8095 21.9254L6.46632 20.6883C6.46632 20.6883 4.86301 19.7609 7.60225 18.8334C14.2835 15.9272 22.5013 12.9592 29.783 10.1763H29.7843Z"
				fill="white" />
		</g>
		<defs>
			<clipPath id="clip0_734_28163">
				<rect width="40" height="40" rx="7" fill="white" />
			</clipPath>
		</defs>
	</symbol>

	<!-- whatsap -->
	<symbol id="whatsap" viewBox="0 0 40 40">
		<g clip-path="url(#clip0_704_28193)">
			<rect width="40" height="40" fill="#0BA937" />
			<path
				d="M14.0196 28.8288L14.0746 28.8618L14.4633 29.0949C15.7312 29.8553 17.1443 30.3514 18.6257 30.5557C19.1712 30.631 20.3473 30.6583 20.9153 30.6088C23.3707 30.3946 25.5663 29.4408 27.3615 27.8095C29.1163 26.215 30.3236 23.9972 30.706 21.6663C31.2079 18.6072 30.4021 15.5314 28.4775 13.1542C26.6641 10.9145 24.0962 9.51435 21.2135 9.19405L14.0196 28.8288ZM14.0196 28.8288L13.9577 28.8458M14.0196 28.8288L13.9577 28.8458M13.9577 28.8458L13.4952 28.9729C13.2404 29.043 12.6729 29.201 12.2339 29.3241L10.7998 29.7259L10.8403 29.8704M13.9577 28.8458L10.8403 29.8704M10.8403 29.8704L10.7998 29.7259C10.6521 29.7673 10.515 29.8043 10.4059 29.8326M10.8403 29.8704L10.4059 29.8326M10.4059 29.8326C10.4131 29.8115 10.421 29.7888 10.4295 29.7642C10.5086 29.5371 10.6425 29.1662 10.8546 28.5845C11.0915 27.935 11.2603 27.4684 11.3698 27.159C11.4245 27.0045 11.4647 26.8884 11.4914 26.8082C11.5047 26.7682 11.515 26.7359 11.5221 26.7117C11.5256 26.6998 11.5288 26.6883 11.5312 26.6781L11.5314 26.6773C11.5329 26.6714 11.5377 26.6513 11.5377 26.6296C11.5377 26.6033 11.5308 26.5828 11.5288 26.5768L11.5288 26.5767C11.5257 26.5675 11.5222 26.5593 11.5195 26.5534C11.514 26.5413 11.5072 26.5287 11.5006 26.5171C11.4872 26.4933 11.4689 26.4638 11.4479 26.4314C11.4057 26.3661 11.3482 26.2827 11.2855 26.1962C10.1755 24.6656 9.49188 22.91 9.28368 21.0568C9.22476 20.5324 9.21683 19.412 9.26832 18.8653C9.43395 17.1075 10.0377 15.4125 11.0215 13.9439L10.8969 13.8604L11.0215 13.9439C11.2088 13.6643 11.4683 13.3031 11.5966 13.1429C11.7454 12.957 12.0633 12.6211 12.3964 12.2899C12.7294 11.9586 13.0672 11.6425 13.2542 11.4945C13.9488 10.9445 14.9461 10.3503 15.7749 9.99284C16.6826 9.60135 17.9494 9.27679 18.9391 9.18229L10.4059 29.8326ZM14.8554 12.8328L14.8554 12.8328C14.8886 12.8227 14.9327 12.8173 14.9724 12.8135C15.016 12.8094 15.0688 12.8062 15.1266 12.8037C15.2425 12.7987 15.3839 12.7966 15.5236 12.7971C15.6634 12.7977 15.8033 12.8008 15.9163 12.8067C15.9726 12.8096 16.0238 12.8132 16.0656 12.8177L14.8554 12.8328ZM14.8554 12.8328C14.4781 12.9473 14.1825 13.2156 13.7758 13.7545C12.8369 14.9986 12.6535 16.6813 13.2575 18.3211C13.761 19.6881 15.0784 21.6384 16.5198 23.1648C17.5755 24.2829 18.676 25.1449 19.8644 25.7819C20.218 25.9714 20.793 26.2194 21.3482 26.4339C21.9013 26.6476 22.4503 26.8341 22.7497 26.8956C23.4048 27.0302 24.258 27.001 24.8059 26.8191C25.3682 26.6326 26.0683 26.1816 26.4757 25.744L26.3659 25.6418M14.8554 12.8328L26.3659 25.6418M26.3659 25.6418C26.4746 25.5251 26.6205 25.3144 26.69 25.1737L26.8245 25.2402C26.8245 25.2402 26.8245 25.2402 26.8245 25.2402C26.9734 24.9391 27.0821 24.4912 27.1322 24.0938C27.1574 23.8937 27.1685 23.7003 27.1612 23.5386C27.1575 23.4579 27.1491 23.3818 27.1342 23.3152C27.1199 23.251 27.0969 23.1833 27.0565 23.1292L27.0565 23.1291M26.3659 25.6418L27.0565 23.1291M27.0565 23.1291C27.0337 23.0986 27.0013 23.0717 26.9727 23.0501C26.9411 23.0262 26.9012 22.9992 26.8539 22.9693C26.7591 22.9094 26.6266 22.8328 26.4535 22.7375C26.107 22.5467 25.5899 22.2769 24.8684 21.9092L24.8003 22.0429M27.0565 23.1291L24.8003 22.0429M24.8003 22.0429L24.8684 21.9092C24.4757 21.7091 24.2164 21.5828 24.0288 21.5068C23.8392 21.43 23.7112 21.3995 23.5828 21.3995C23.5219 21.3995 23.4603 21.4088 23.3965 21.4366C23.3344 21.4637 23.2782 21.505 23.2225 21.5581C23.1149 21.6607 22.9892 21.8279 22.8114 22.0818C22.653 22.3081 22.435 22.595 22.2436 22.8344C22.148 22.954 22.0598 23.0607 21.9898 23.1414C21.9547 23.1819 21.9249 23.2148 21.9015 23.2392C21.8794 23.2623 21.8683 23.272 21.8659 23.2741C21.8655 23.2745 21.8653 23.2746 21.8654 23.2746C21.8366 23.2946 21.8156 23.3029 21.7936 23.3063C21.7697 23.3099 21.733 23.3092 21.6714 23.2935C21.5424 23.2608 21.3469 23.1747 21.007 23.0066L20.9405 23.141L21.007 23.0066C20.0402 22.5284 19.434 22.1042 18.6963 21.3908C17.989 20.7069 17.3078 19.8085 16.8729 18.9873C16.786 18.8231 16.7563 18.7246 16.7562 18.6533C16.7561 18.5918 16.778 18.5316 16.8533 18.4432C17.2196 18.013 17.6039 17.4875 17.7375 17.2266C17.8453 17.0162 17.9177 16.8605 17.8958 16.6375C17.876 16.4359 17.7786 16.1823 17.612 15.7626C17.4583 15.3754 17.1913 14.6866 17.0189 14.2325L16.8786 14.2857M24.8003 22.0429L16.8786 14.2857M16.8786 14.2857L17.0188 14.2325C16.8228 13.7162 16.6957 13.402 16.5828 13.2054M16.8786 14.2857L16.5828 13.2054M16.5828 13.2054C16.525 13.1049 16.4669 13.0276 16.3992 12.9675M16.5828 13.2054L16.3992 12.9675M16.3992 12.9675C16.3301 12.9063 16.2581 12.8693 16.182 12.8406L16.3992 12.9675ZM13.2762 31.4155L13.2355 31.2711L13.2762 31.4155L13.8805 31.2451L14.4639 31.5316C16.4228 32.4938 18.1777 32.9312 20.0775 32.9259C22.1529 32.92 24.0413 32.4751 25.8878 31.5566C29.0397 29.9889 31.4025 27.2671 32.513 23.925C33.1533 21.9978 33.3187 19.7692 32.9737 17.7251C32.3765 14.1853 30.3391 11.0566 27.3245 9.04823C25.5511 7.86669 23.5669 7.14889 21.4061 6.90641C20.9251 6.85244 19.6074 6.8311 19.0952 6.86877C16.7048 7.04458 14.3723 7.88165 12.4367 9.25877C8.85044 11.8102 6.75693 16.0034 6.9266 20.3033C7.01208 22.4695 7.66899 24.6112 8.82997 26.5127L8.958 26.4345L8.82998 26.5127L9.0307 26.8414L8.98258 26.9871L9.12479 27.034L8.98258 26.9871C8.92111 27.1732 7.81518 30.2504 7.10984 32.1975C7.0363 32.4006 6.97106 32.5874 6.92516 32.725C6.90229 32.7936 6.88383 32.8512 6.87149 32.8928C6.86544 32.9132 6.86017 32.9321 6.85662 32.9474C6.85498 32.9544 6.85274 32.9647 6.85139 32.9756C6.85078 32.9805 6.84958 32.9912 6.85015 33.0043C6.85043 33.0108 6.85131 33.0228 6.8551 33.0371C6.85832 33.0494 6.86756 33.0789 6.8947 33.1059C6.92653 33.1376 6.96253 33.145 6.97025 33.1466L6.97053 33.1466C6.98329 33.1493 6.99363 33.1496 6.99837 33.1497C7.00845 33.1499 7.01654 33.1491 7.01964 33.1487C7.02702 33.1479 7.03371 33.1467 7.03762 33.1459C7.04642 33.1443 7.05707 33.1419 7.06829 33.1392C7.09132 33.1338 7.12405 33.1256 7.16533 33.115C7.24822 33.0935 7.36931 33.0613 7.52457 33.0193C7.83529 32.9352 8.28475 32.8116 8.8435 32.6567C9.96108 32.3469 11.5168 31.9115 13.2762 31.4155Z"
				fill="white" stroke="white" stroke-width="0.3" />
		</g>
		<defs>
			<clipPath id="clip0_704_28193">
				<rect width="40" height="40" rx="7" fill="white" />
			</clipPath>
		</defs>
	</symbol>

	<!-- viber -->
	<symbol id="viber" viewBox="0 0 40 40">
		<g clip-path="url(#clip0_704_28189)">
			<rect width="40" height="40" fill="#B34BD8" />
			<mask id="path-3-outside-1_704_28189" maskUnits="userSpaceOnUse" x="6" y="4.99976"
				width="28" height="30" fill="black">
				<rect fill="white" x="6" y="4.99976" width="28" height="30" />
				<path
					d="M30.0634 8.72559C29.3837 8.08988 26.631 6.0463 20.5006 6.01948C20.5006 6.01948 13.2668 5.5774 9.74302 8.87955C7.78295 10.8811 7.09647 13.8124 7.01765 17.4481C6.93884 21.0839 6.85089 27.8981 13.2828 29.7504H13.2885L13.2828 32.572C13.2828 32.572 13.2405 33.7151 13.9761 33.9449C14.8648 34.2295 15.3902 33.3594 16.2412 32.4239C16.7072 31.9095 17.3492 31.156 17.8369 30.5809C20.6319 30.8453 23.4507 30.6256 26.1741 29.9312L26.0027 29.9686C26.8914 29.6734 31.9195 29.0168 32.7328 22.2036C33.5826 15.1701 32.3284 10.733 30.0634 8.72559ZM30.8081 21.6904C30.1148 27.3768 26.0416 27.7383 25.2923 27.9833C23.6566 28.4079 21.7787 28.6505 19.8449 28.6505C19.2898 28.6505 18.7393 28.6307 18.1944 28.591L18.2675 28.5957C18.2675 28.5957 15.4827 32.0238 14.6158 32.915C14.3325 33.2042 14.0207 33.1809 14.0264 32.6035C14.0264 32.2268 14.0481 27.9168 14.0481 27.9168C8.60307 26.3748 8.91833 20.5707 8.9823 17.5391C9.04626 14.5076 9.60367 12.0161 11.2633 10.3434C14.2469 7.58249 20.3886 7.9919 20.3886 7.9919C25.5778 8.01407 28.0622 9.6109 28.6401 10.1463C30.5522 11.8201 31.5266 15.8233 30.8081 21.6893V21.6904ZM23.371 17.272V17.2883C23.3686 17.3792 23.3321 17.4656 23.2691 17.5298C23.2062 17.5939 23.1214 17.631 23.0325 17.6332C22.9435 17.6355 22.8571 17.6027 22.7911 17.5418C22.7251 17.4809 22.6845 17.3964 22.6777 17.3058V17.3047C22.7009 17.0611 22.6722 16.8153 22.5934 16.5843C22.5146 16.3532 22.3876 16.1423 22.2212 15.9662C22.0549 15.7901 21.8531 15.653 21.6298 15.5643C21.4064 15.4756 21.1669 15.4374 20.9278 15.4524H20.9323C20.8436 15.4453 20.7608 15.4038 20.7012 15.3362C20.6416 15.2687 20.6097 15.1804 20.612 15.0895C20.6144 14.9986 20.6508 14.9121 20.7138 14.8479C20.7769 14.7836 20.8616 14.7466 20.9506 14.7443H20.97H20.9689L21.0477 14.7432C21.3666 14.7431 21.6821 14.8099 21.9747 14.9395C22.2672 15.0692 22.5305 15.2588 22.7483 15.4967C22.966 15.7346 23.1336 16.0157 23.2405 16.3225C23.3474 16.6293 23.3915 16.9553 23.3699 17.2802V17.2732L23.371 17.272ZM24.4573 17.8914C24.511 15.5725 23.0923 13.7576 20.3989 13.5546C20.3522 13.5531 20.3062 13.542 20.2638 13.5219C20.2214 13.5018 20.1834 13.4732 20.152 13.4378C20.1207 13.4023 20.0967 13.3608 20.0815 13.3157C20.0662 13.2705 20.0601 13.2227 20.0634 13.1751C20.0667 13.1274 20.0794 13.081 20.1007 13.0385C20.122 12.996 20.1516 12.9583 20.1875 12.9278C20.2234 12.8972 20.265 12.8744 20.3098 12.8606C20.3545 12.8469 20.4016 12.8425 20.448 12.8477H20.4469H20.4663C21.1055 12.8477 21.738 12.9811 22.3248 13.2398C22.9117 13.4984 23.4406 13.8768 23.8791 14.3518C24.3176 14.8267 24.6563 15.3882 24.8746 16.0017C25.0928 16.6152 25.186 17.2678 25.1483 17.9194L25.1495 17.9065C25.1434 17.9969 25.1036 18.0815 25.0383 18.1429C24.973 18.2043 24.8872 18.2378 24.7985 18.2366C24.7098 18.2355 24.6248 18.1996 24.5612 18.1365C24.4975 18.0734 24.4599 17.9877 24.4561 17.8972V17.8879L24.4573 17.8914ZM26.9702 18.6251V18.6274C26.9656 18.7178 26.9272 18.803 26.8631 18.8655C26.7989 18.928 26.7138 18.963 26.6251 18.9635C26.5365 18.9639 26.451 18.9297 26.3863 18.8679C26.3215 18.806 26.2824 18.7212 26.2769 18.6309C26.2494 14.1728 23.3379 11.7455 19.8095 11.7198C19.7641 11.7198 19.7191 11.7107 19.6771 11.6929C19.6351 11.6751 19.5969 11.6491 19.5648 11.6163C19.5327 11.5835 19.5072 11.5445 19.4898 11.5016C19.4724 11.4587 19.4634 11.4128 19.4634 11.3664C19.4634 11.32 19.4724 11.274 19.4898 11.2311C19.5072 11.1882 19.5327 11.1493 19.5648 11.1165C19.5969 11.0836 19.6351 11.0576 19.6771 11.0399C19.7191 11.0221 19.7641 11.0129 19.8095 11.0129C23.7605 11.0409 26.9359 13.8252 26.9679 18.6239L26.9702 18.6251ZM26.3705 23.9883V23.9988C25.7926 25.0381 24.7109 26.1858 23.5972 25.8196L23.5869 25.8032C21.6013 25.0571 19.7401 24.0031 18.0688 22.6784L18.1156 22.7134C17.2839 22.039 16.5295 21.2709 15.8665 20.4237L15.8448 20.3945C15.2446 19.6229 14.7089 18.8012 14.2434 17.938L14.1977 17.8459C13.647 16.9187 13.1904 15.9365 12.8351 14.9146L12.8008 14.8003C12.4421 13.6631 13.5604 12.5585 14.5838 11.9683H14.5941C14.7954 11.8366 15.0372 11.7854 15.2732 11.8244C15.5092 11.8633 15.7229 11.9897 15.8734 12.1794L15.8745 12.1817C15.8745 12.1817 16.5382 12.99 16.8226 13.3901C17.0899 13.7622 17.4497 14.3583 17.6359 14.6907C17.776 14.9178 17.8331 15.1883 17.7969 15.4542C17.7608 15.7202 17.6337 15.9645 17.4383 16.1441L17.4371 16.1452L16.7952 16.6701C16.6951 16.7688 16.6177 16.8889 16.5687 17.0219C16.5198 17.1548 16.5003 17.2972 16.5119 17.4388V17.4353C16.8298 18.517 17.4034 19.5021 18.1823 20.3038C18.9612 21.1055 19.9214 21.6991 20.978 22.0322L21.026 22.045C21.164 22.0561 21.3026 22.0361 21.4321 21.9863C21.5616 21.9365 21.6788 21.8582 21.7753 21.7569L22.2893 21.1014C22.4659 20.9009 22.7064 20.7708 22.968 20.7343C23.2296 20.6977 23.4955 20.7571 23.7183 20.9019L23.7137 20.8996C24.6423 21.4396 25.4453 22.0334 26.1775 22.7064L26.1649 22.6947C26.3507 22.8459 26.4743 23.0627 26.5115 23.3022C26.5487 23.5418 26.4968 23.787 26.366 23.9895L26.3682 23.986L26.3705 23.9883Z" />
			</mask>
			<path
				d="M30.0634 8.72559C29.3837 8.08988 26.631 6.0463 20.5006 6.01948C20.5006 6.01948 13.2668 5.5774 9.74302 8.87955C7.78295 10.8811 7.09647 13.8124 7.01765 17.4481C6.93884 21.0839 6.85089 27.8981 13.2828 29.7504H13.2885L13.2828 32.572C13.2828 32.572 13.2405 33.7151 13.9761 33.9449C14.8648 34.2295 15.3902 33.3594 16.2412 32.4239C16.7072 31.9095 17.3492 31.156 17.8369 30.5809C20.6319 30.8453 23.4507 30.6256 26.1741 29.9312L26.0027 29.9686C26.8914 29.6734 31.9195 29.0168 32.7328 22.2036C33.5826 15.1701 32.3284 10.733 30.0634 8.72559ZM30.8081 21.6904C30.1148 27.3768 26.0416 27.7383 25.2923 27.9833C23.6566 28.4079 21.7787 28.6505 19.8449 28.6505C19.2898 28.6505 18.7393 28.6307 18.1944 28.591L18.2675 28.5957C18.2675 28.5957 15.4827 32.0238 14.6158 32.915C14.3325 33.2042 14.0207 33.1809 14.0264 32.6035C14.0264 32.2268 14.0481 27.9168 14.0481 27.9168C8.60307 26.3748 8.91833 20.5707 8.9823 17.5391C9.04626 14.5076 9.60367 12.0161 11.2633 10.3434C14.2469 7.58249 20.3886 7.9919 20.3886 7.9919C25.5778 8.01407 28.0622 9.6109 28.6401 10.1463C30.5522 11.8201 31.5266 15.8233 30.8081 21.6893V21.6904ZM23.371 17.272V17.2883C23.3686 17.3792 23.3321 17.4656 23.2691 17.5298C23.2062 17.5939 23.1214 17.631 23.0325 17.6332C22.9435 17.6355 22.8571 17.6027 22.7911 17.5418C22.7251 17.4809 22.6845 17.3964 22.6777 17.3058V17.3047C22.7009 17.0611 22.6722 16.8153 22.5934 16.5843C22.5146 16.3532 22.3876 16.1423 22.2212 15.9662C22.0549 15.7901 21.8531 15.653 21.6298 15.5643C21.4064 15.4756 21.1669 15.4374 20.9278 15.4524H20.9323C20.8436 15.4453 20.7608 15.4038 20.7012 15.3362C20.6416 15.2687 20.6097 15.1804 20.612 15.0895C20.6144 14.9986 20.6508 14.9121 20.7138 14.8479C20.7769 14.7836 20.8616 14.7466 20.9506 14.7443H20.97H20.9689L21.0477 14.7432C21.3666 14.7431 21.6821 14.8099 21.9747 14.9395C22.2672 15.0692 22.5305 15.2588 22.7483 15.4967C22.966 15.7346 23.1336 16.0157 23.2405 16.3225C23.3474 16.6293 23.3915 16.9553 23.3699 17.2802V17.2732L23.371 17.272ZM24.4573 17.8914C24.511 15.5725 23.0923 13.7576 20.3989 13.5546C20.3522 13.5531 20.3062 13.542 20.2638 13.5219C20.2214 13.5018 20.1834 13.4732 20.152 13.4378C20.1207 13.4023 20.0967 13.3608 20.0815 13.3157C20.0662 13.2705 20.0601 13.2227 20.0634 13.1751C20.0667 13.1274 20.0794 13.081 20.1007 13.0385C20.122 12.996 20.1516 12.9583 20.1875 12.9278C20.2234 12.8972 20.265 12.8744 20.3098 12.8606C20.3545 12.8469 20.4016 12.8425 20.448 12.8477H20.4469H20.4663C21.1055 12.8477 21.738 12.9811 22.3248 13.2398C22.9117 13.4984 23.4406 13.8768 23.8791 14.3518C24.3176 14.8267 24.6563 15.3882 24.8746 16.0017C25.0928 16.6152 25.186 17.2678 25.1483 17.9194L25.1495 17.9065C25.1434 17.9969 25.1036 18.0815 25.0383 18.1429C24.973 18.2043 24.8872 18.2378 24.7985 18.2366C24.7098 18.2355 24.6248 18.1996 24.5612 18.1365C24.4975 18.0734 24.4599 17.9877 24.4561 17.8972V17.8879L24.4573 17.8914ZM26.9702 18.6251V18.6274C26.9656 18.7178 26.9272 18.803 26.8631 18.8655C26.7989 18.928 26.7138 18.963 26.6251 18.9635C26.5365 18.9639 26.451 18.9297 26.3863 18.8679C26.3215 18.806 26.2824 18.7212 26.2769 18.6309C26.2494 14.1728 23.3379 11.7455 19.8095 11.7198C19.7641 11.7198 19.7191 11.7107 19.6771 11.6929C19.6351 11.6751 19.5969 11.6491 19.5648 11.6163C19.5327 11.5835 19.5072 11.5445 19.4898 11.5016C19.4724 11.4587 19.4634 11.4128 19.4634 11.3664C19.4634 11.32 19.4724 11.274 19.4898 11.2311C19.5072 11.1882 19.5327 11.1493 19.5648 11.1165C19.5969 11.0836 19.6351 11.0576 19.6771 11.0399C19.7191 11.0221 19.7641 11.0129 19.8095 11.0129C23.7605 11.0409 26.9359 13.8252 26.9679 18.6239L26.9702 18.6251ZM26.3705 23.9883V23.9988C25.7926 25.0381 24.7109 26.1858 23.5972 25.8196L23.5869 25.8032C21.6013 25.0571 19.7401 24.0031 18.0688 22.6784L18.1156 22.7134C17.2839 22.039 16.5295 21.2709 15.8665 20.4237L15.8448 20.3945C15.2446 19.6229 14.7089 18.8012 14.2434 17.938L14.1977 17.8459C13.647 16.9187 13.1904 15.9365 12.8351 14.9146L12.8008 14.8003C12.4421 13.6631 13.5604 12.5585 14.5838 11.9683H14.5941C14.7954 11.8366 15.0372 11.7854 15.2732 11.8244C15.5092 11.8633 15.7229 11.9897 15.8734 12.1794L15.8745 12.1817C15.8745 12.1817 16.5382 12.99 16.8226 13.3901C17.0899 13.7622 17.4497 14.3583 17.6359 14.6907C17.776 14.9178 17.8331 15.1883 17.7969 15.4542C17.7608 15.7202 17.6337 15.9645 17.4383 16.1441L17.4371 16.1452L16.7952 16.6701C16.6951 16.7688 16.6177 16.8889 16.5687 17.0219C16.5198 17.1548 16.5003 17.2972 16.5119 17.4388V17.4353C16.8298 18.517 17.4034 19.5021 18.1823 20.3038C18.9612 21.1055 19.9214 21.6991 20.978 22.0322L21.026 22.045C21.164 22.0561 21.3026 22.0361 21.4321 21.9863C21.5616 21.9365 21.6788 21.8582 21.7753 21.7569L22.2893 21.1014C22.4659 20.9009 22.7064 20.7708 22.968 20.7343C23.2296 20.6977 23.4955 20.7571 23.7183 20.9019L23.7137 20.8996C24.6423 21.4396 25.4453 22.0334 26.1775 22.7064L26.1649 22.6947C26.3507 22.8459 26.4743 23.0627 26.5115 23.3022C26.5487 23.5418 26.4968 23.787 26.366 23.9895L26.3682 23.986L26.3705 23.9883Z"
				fill="white" />
			<path
				d="M30.0634 8.72559C29.3837 8.08988 26.631 6.0463 20.5006 6.01948C20.5006 6.01948 13.2668 5.5774 9.74302 8.87955C7.78295 10.8811 7.09647 13.8124 7.01765 17.4481C6.93884 21.0839 6.85089 27.8981 13.2828 29.7504H13.2885L13.2828 32.572C13.2828 32.572 13.2405 33.7151 13.9761 33.9449C14.8648 34.2295 15.3902 33.3594 16.2412 32.4239C16.7072 31.9095 17.3492 31.156 17.8369 30.5809C20.6319 30.8453 23.4507 30.6256 26.1741 29.9312L26.0027 29.9686C26.8914 29.6734 31.9195 29.0168 32.7328 22.2036C33.5826 15.1701 32.3284 10.733 30.0634 8.72559ZM30.8081 21.6904C30.1148 27.3768 26.0416 27.7383 25.2923 27.9833C23.6566 28.4079 21.7787 28.6505 19.8449 28.6505C19.2898 28.6505 18.7393 28.6307 18.1944 28.591L18.2675 28.5957C18.2675 28.5957 15.4827 32.0238 14.6158 32.915C14.3325 33.2042 14.0207 33.1809 14.0264 32.6035C14.0264 32.2268 14.0481 27.9168 14.0481 27.9168C8.60307 26.3748 8.91833 20.5707 8.9823 17.5391C9.04626 14.5076 9.60367 12.0161 11.2633 10.3434C14.2469 7.58249 20.3886 7.9919 20.3886 7.9919C25.5778 8.01407 28.0622 9.6109 28.6401 10.1463C30.5522 11.8201 31.5266 15.8233 30.8081 21.6893V21.6904ZM23.371 17.272V17.2883C23.3686 17.3792 23.3321 17.4656 23.2691 17.5298C23.2062 17.5939 23.1214 17.631 23.0325 17.6332C22.9435 17.6355 22.8571 17.6027 22.7911 17.5418C22.7251 17.4809 22.6845 17.3964 22.6777 17.3058V17.3047C22.7009 17.0611 22.6722 16.8153 22.5934 16.5843C22.5146 16.3532 22.3876 16.1423 22.2212 15.9662C22.0549 15.7901 21.8531 15.653 21.6298 15.5643C21.4064 15.4756 21.1669 15.4374 20.9278 15.4524H20.9323C20.8436 15.4453 20.7608 15.4038 20.7012 15.3362C20.6416 15.2687 20.6097 15.1804 20.612 15.0895C20.6144 14.9986 20.6508 14.9121 20.7138 14.8479C20.7769 14.7836 20.8616 14.7466 20.9506 14.7443H20.97H20.9689L21.0477 14.7432C21.3666 14.7431 21.6821 14.8099 21.9747 14.9395C22.2672 15.0692 22.5305 15.2588 22.7483 15.4967C22.966 15.7346 23.1336 16.0157 23.2405 16.3225C23.3474 16.6293 23.3915 16.9553 23.3699 17.2802V17.2732L23.371 17.272ZM24.4573 17.8914C24.511 15.5725 23.0923 13.7576 20.3989 13.5546C20.3522 13.5531 20.3062 13.542 20.2638 13.5219C20.2214 13.5018 20.1834 13.4732 20.152 13.4378C20.1207 13.4023 20.0967 13.3608 20.0815 13.3157C20.0662 13.2705 20.0601 13.2227 20.0634 13.1751C20.0667 13.1274 20.0794 13.081 20.1007 13.0385C20.122 12.996 20.1516 12.9583 20.1875 12.9278C20.2234 12.8972 20.265 12.8744 20.3098 12.8606C20.3545 12.8469 20.4016 12.8425 20.448 12.8477H20.4469H20.4663C21.1055 12.8477 21.738 12.9811 22.3248 13.2398C22.9117 13.4984 23.4406 13.8768 23.8791 14.3518C24.3176 14.8267 24.6563 15.3882 24.8746 16.0017C25.0928 16.6152 25.186 17.2678 25.1483 17.9194L25.1495 17.9065C25.1434 17.9969 25.1036 18.0815 25.0383 18.1429C24.973 18.2043 24.8872 18.2378 24.7985 18.2366C24.7098 18.2355 24.6248 18.1996 24.5612 18.1365C24.4975 18.0734 24.4599 17.9877 24.4561 17.8972V17.8879L24.4573 17.8914ZM26.9702 18.6251V18.6274C26.9656 18.7178 26.9272 18.803 26.8631 18.8655C26.7989 18.928 26.7138 18.963 26.6251 18.9635C26.5365 18.9639 26.451 18.9297 26.3863 18.8679C26.3215 18.806 26.2824 18.7212 26.2769 18.6309C26.2494 14.1728 23.3379 11.7455 19.8095 11.7198C19.7641 11.7198 19.7191 11.7107 19.6771 11.6929C19.6351 11.6751 19.5969 11.6491 19.5648 11.6163C19.5327 11.5835 19.5072 11.5445 19.4898 11.5016C19.4724 11.4587 19.4634 11.4128 19.4634 11.3664C19.4634 11.32 19.4724 11.274 19.4898 11.2311C19.5072 11.1882 19.5327 11.1493 19.5648 11.1165C19.5969 11.0836 19.6351 11.0576 19.6771 11.0399C19.7191 11.0221 19.7641 11.0129 19.8095 11.0129C23.7605 11.0409 26.9359 13.8252 26.9679 18.6239L26.9702 18.6251ZM26.3705 23.9883V23.9988C25.7926 25.0381 24.7109 26.1858 23.5972 25.8196L23.5869 25.8032C21.6013 25.0571 19.7401 24.0031 18.0688 22.6784L18.1156 22.7134C17.2839 22.039 16.5295 21.2709 15.8665 20.4237L15.8448 20.3945C15.2446 19.6229 14.7089 18.8012 14.2434 17.938L14.1977 17.8459C13.647 16.9187 13.1904 15.9365 12.8351 14.9146L12.8008 14.8003C12.4421 13.6631 13.5604 12.5585 14.5838 11.9683H14.5941C14.7954 11.8366 15.0372 11.7854 15.2732 11.8244C15.5092 11.8633 15.7229 11.9897 15.8734 12.1794L15.8745 12.1817C15.8745 12.1817 16.5382 12.99 16.8226 13.3901C17.0899 13.7622 17.4497 14.3583 17.6359 14.6907C17.776 14.9178 17.8331 15.1883 17.7969 15.4542C17.7608 15.7202 17.6337 15.9645 17.4383 16.1441L17.4371 16.1452L16.7952 16.6701C16.6951 16.7688 16.6177 16.8889 16.5687 17.0219C16.5198 17.1548 16.5003 17.2972 16.5119 17.4388V17.4353C16.8298 18.517 17.4034 19.5021 18.1823 20.3038C18.9612 21.1055 19.9214 21.6991 20.978 22.0322L21.026 22.045C21.164 22.0561 21.3026 22.0361 21.4321 21.9863C21.5616 21.9365 21.6788 21.8582 21.7753 21.7569L22.2893 21.1014C22.4659 20.9009 22.7064 20.7708 22.968 20.7343C23.2296 20.6977 23.4955 20.7571 23.7183 20.9019L23.7137 20.8996C24.6423 21.4396 25.4453 22.0334 26.1775 22.7064L26.1649 22.6947C26.3507 22.8459 26.4743 23.0627 26.5115 23.3022C26.5487 23.5418 26.4968 23.787 26.366 23.9895L26.3682 23.986L26.3705 23.9883Z"
				stroke="white" stroke-width="0.4" mask="url(#path-3-outside-1_704_28189)" />
		</g>
		<defs>
			<clipPath id="clip0_704_28189">
				<rect width="40" height="40" rx="7" fill="white" />
			</clipPath>
		</defs>
	</symbol>

	<!-- instagram -->
	<symbol id="instagram" viewBox="0 0 40 40">
		<g clip-path="url(#clip0_734_28175)">
			<path
				d="M30.625 0H9.375C4.19733 0 0 4.19733 0 9.375V30.625C0 35.8027 4.19733 40 9.375 40H30.625C35.8027 40 40 35.8027 40 30.625V9.375C40 4.19733 35.8027 0 30.625 0Z"
				fill="url(#paint0_radial_734_28175)" />
			<path
				d="M30.625 0H9.375C4.19733 0 0 4.19733 0 9.375V30.625C0 35.8027 4.19733 40 9.375 40H30.625C35.8027 40 40 35.8027 40 30.625V9.375C40 4.19733 35.8027 0 30.625 0Z"
				fill="url(#paint1_radial_734_28175)" />
			<path
				d="M20.0012 6.99976C16.4706 6.99976 16.0275 7.01523 14.6409 7.07828C13.2569 7.14171 12.3122 7.36076 11.4857 7.68225C10.6305 8.01427 9.90524 8.45847 9.1827 9.18126C8.45951 9.90393 8.0153 10.6292 7.68224 11.4839C7.35984 12.3107 7.14053 13.2558 7.07826 14.6391C7.01625 16.0258 7 16.4691 7 19.9998C7 23.5304 7.0156 23.9721 7.07852 25.3587C7.14222 26.7427 7.36127 27.6874 7.6825 28.5139C8.01478 29.369 8.45899 30.0943 9.18179 30.8168C9.9042 31.54 10.6295 31.9852 11.484 32.3173C12.3112 32.6387 13.256 32.8578 14.6397 32.9212C16.0264 32.9843 16.4692 32.9998 19.9996 32.9998C23.5305 32.9998 23.9723 32.9843 25.3589 32.9212C26.7428 32.8578 27.6886 32.6387 28.5158 32.3173C29.3705 31.9852 30.0948 31.54 30.817 30.8168C31.5402 30.0943 31.9843 29.369 32.3175 28.5143C32.637 27.6874 32.8565 26.7424 32.9215 25.359C32.9837 23.9724 33 23.5304 33 19.9998C33 16.4691 32.9837 16.0261 32.9215 14.6394C32.8565 13.2554 32.637 12.3109 32.3175 11.4843C31.9843 10.6292 31.5402 9.90393 30.817 9.18126C30.094 8.45821 29.3708 8.01401 28.515 7.68238C27.6862 7.36076 26.741 7.14158 25.357 7.07828C23.9703 7.01523 23.5288 6.99976 19.9971 6.99976H20.0012ZM18.8349 9.34246C19.1811 9.34194 19.5674 9.34246 20.0012 9.34246C23.4723 9.34246 23.8836 9.35494 25.2543 9.41721C26.5218 9.47519 27.2098 9.68696 27.668 9.86493C28.2748 10.1005 28.7073 10.3822 29.162 10.8373C29.617 11.2923 29.8986 11.7256 30.1348 12.3323C30.3128 12.7899 30.5248 13.4779 30.5825 14.7453C30.6448 16.1158 30.6583 16.5274 30.6583 19.9968C30.6583 23.4662 30.6448 23.8779 30.5825 25.2482C30.5245 26.5157 30.3128 27.2036 30.1348 27.6614C29.8992 28.2681 29.617 28.7 29.162 29.1548C28.707 29.6098 28.275 29.8914 27.668 30.127C27.2103 30.3058 26.5218 30.517 25.2543 30.575C23.8839 30.6373 23.4723 30.6508 20.0012 30.6508C16.5299 30.6508 16.1185 30.6373 14.7481 30.575C13.4806 30.5165 12.7927 30.3048 12.334 30.1268C11.7274 29.8911 11.294 29.6095 10.839 29.1545C10.384 28.6995 10.1024 28.2673 9.86624 27.6603C9.68827 27.2026 9.47624 26.5146 9.41852 25.2472C9.35625 23.8767 9.34377 23.4651 9.34377 19.9935C9.34377 16.522 9.35625 16.1125 9.41852 14.7421C9.4765 13.4746 9.68827 12.7866 9.86624 12.3284C10.1019 11.7217 10.384 11.2884 10.8392 10.8334C11.2942 10.3784 11.7274 10.0967 12.3342 9.86064C12.7924 9.68189 13.4806 9.47064 14.7481 9.4124C15.9474 9.35819 16.4121 9.34194 18.8349 9.33921V9.34246ZM26.9406 11.501C26.0793 11.501 25.3806 12.1991 25.3806 13.0604C25.3806 13.9217 26.0793 14.6204 26.9406 14.6204C27.8018 14.6204 28.5006 13.9217 28.5006 13.0604C28.5006 12.1992 27.8018 11.5004 26.9406 11.5004V11.501ZM20.0012 13.3237C16.3144 13.3237 13.3251 16.3129 13.3251 19.9998C13.3251 23.6866 16.3144 26.6744 20.0012 26.6744C23.6881 26.6744 26.6763 23.6866 26.6763 19.9998C26.6763 16.313 23.6878 13.3237 20.0009 13.3237H20.0012ZM20.0012 15.6664C22.3943 15.6664 24.3346 17.6064 24.3346 19.9998C24.3346 22.3929 22.3943 24.3331 20.0012 24.3331C17.6079 24.3331 15.6679 22.3929 15.6679 19.9998C15.6679 17.6064 17.6079 15.6664 20.0012 15.6664Z"
				fill="white" />
		</g>
		<defs>
			<radialGradient id="paint0_radial_734_28175" cx="0" cy="0" r="1"
				gradientUnits="userSpaceOnUse"
				gradientTransform="translate(10.625 43.0808) rotate(-90) scale(39.643 36.8711)">
				<stop stop-color="#FFDD55" />
				<stop offset="0.1" stop-color="#FFDD55" />
				<stop offset="0.5" stop-color="#FF543E" />
				<stop offset="1" stop-color="#C837AB" />
			</radialGradient>
			<radialGradient id="paint1_radial_734_28175" cx="0" cy="0" r="1"
				gradientUnits="userSpaceOnUse"
				gradientTransform="translate(-6.70016 2.88141) rotate(78.681) scale(17.7206 73.045)">
				<stop stop-color="#3771C8" />
				<stop offset="0.128" stop-color="#3771C8" />
				<stop offset="1" stop-color="#6600FF" stop-opacity="0" />
			</radialGradient>
			<clipPath id="clip0_734_28175">
				<rect width="40" height="40" fill="white" />
			</clipPath>
		</defs>
	</symbol>

	<!-- e-soc -->
	<symbol id="e-soc" viewBox="0 0 40 40">
		<path
			d="M30.625 0H9.375C4.19733 0 0 4.19733 0 9.375V30.625C0 35.8027 4.19733 40 9.375 40H30.625C35.8027 40 40 35.8027 40 30.625V9.375C40 4.19733 35.8027 0 30.625 0Z"
			fill="#F07C00" />
		<path
			d="M13.0761 32.9366C12.2001 32.7983 11.3575 32.4932 10.5926 32.0374C8.86744 31.031 7.57993 29.2284 7.16675 27.2427C7.00597 26.466 6.9857 25.4845 7.00701 19.4353C7.02723 12.9257 7.01231 13.2616 7.31691 12.1891C7.46811 11.655 7.88878 10.7374 8.19334 10.2749C9.31686 8.57405 10.9696 7.48208 13.0175 7.08671C13.4264 7.00764 14.0185 7.00003 19.4668 7.00003C26.1237 7.00003 25.9043 6.99028 26.9916 7.3402C28.0473 7.68765 29.0105 8.27699 29.807 9.06282C30.6035 9.84865 31.212 10.81 31.5857 11.8728C31.9372 12.8878 31.9542 13.0503 31.9787 15.7239L32 18.1397L31.5836 18.43C30.9894 18.8427 30.2099 19.5783 29.1172 20.7591C27.8585 22.1198 26.5869 23.3807 25.9416 23.9083C24.5476 25.0468 23.2707 25.6968 21.9736 25.9276C21.2985 26.0467 20.1824 26.0001 19.5222 25.8246C18.9333 25.6686 18.9716 25.6426 18.749 26.3273C18.5682 26.8691 18.4544 27.4317 18.4104 28.0021L18.3774 28.443L18.2219 28.4105C16.928 28.1494 15.6458 27.0185 15.1506 25.7023C14.9832 25.2819 14.8895 24.835 14.8737 24.3817L14.8567 24.0134L14.5276 23.7057C13.8418 23.0666 13.3956 22.2845 13.2551 21.473C13.0293 20.1806 13.6171 18.7193 14.8929 17.4041C16.239 16.0142 18.223 14.9234 20.1676 14.5009C20.8683 14.3492 22.1036 14.3091 22.7266 14.4196C23.9385 14.6341 24.9278 15.2571 25.5434 16.1952C25.7372 16.4887 25.7511 16.531 25.7319 16.7964C25.727 16.9915 25.6584 17.1794 25.537 17.3305C25.0418 18.0357 23.569 18.7907 21.9844 19.1504C19.1889 19.7841 17.4116 18.9966 17.6895 17.2449C17.7172 17.0683 17.7321 16.9156 17.7225 16.9058C17.6884 16.8712 17.4105 17.0185 17.1101 17.2308C16.6 17.5926 16.1485 18.2968 15.992 18.9717C15.9536 19.1407 15.9387 19.4115 15.9558 19.6759C15.9771 20.0344 16.0122 20.1677 16.1602 20.4732C16.2582 20.6747 16.4531 20.9607 16.5947 21.1112L16.8503 21.3832L16.7481 21.5153C16.4466 21.9172 16.2038 22.3612 16.0271 22.8337C15.8267 23.4689 15.7882 24.1455 15.9153 24.7999C16.025 25.2994 16.3636 25.9862 16.7023 26.3902C16.96 26.699 17.551 27.2179 17.6458 27.2179C17.6713 27.2179 17.6926 27.1659 17.6926 27.1031C17.6937 26.8539 17.8886 26.049 18.0398 25.6655C18.4903 24.5194 19.4785 23.5423 21.043 22.6973C21.3039 22.5565 22.0568 22.1881 22.717 21.8772C24.1653 21.1948 24.9566 20.7777 25.3911 20.4635C26.6435 19.5611 27.4176 18.2265 27.67 16.5366C27.7616 15.9191 27.7616 14.7664 27.67 14.1457C27.2781 11.5046 25.3325 9.70848 22.5392 9.41162C19.4242 9.07906 15.4595 11.5273 13.0165 15.2907C11.828 17.1215 11.0251 19.1527 10.6875 21.1872C10.5565 21.9758 10.5075 23.4404 10.5884 24.1663C10.794 26.0122 11.4638 27.5007 12.615 28.6685C13.1915 29.258 13.8656 29.7395 14.6064 30.0909C17.1282 31.315 19.9204 31.3421 22.3751 30.1678C23.4358 29.6597 24.4773 28.8721 25.5945 27.7304C26.6807 26.62 27.4155 25.6937 29.4197 22.901C30.5272 21.3594 31.4047 20.3357 31.8392 20.079L31.999 19.9858L31.9787 23.3343C31.9596 26.5766 31.9553 26.7001 31.8477 27.1919C31.2088 30.0931 29.1428 32.2141 26.3154 32.8706L25.817 32.9865L19.667 32.9974C14.6256 33.006 13.4371 32.9952 13.0751 32.9367L13.0761 32.9366Z"
			fill="white" />
	</symbol>

	<!-- check-soc -->
	<symbol id="check-soc" viewBox="0 0 40 40">
		<path
			d="M30.625 0H9.375C4.19733 0 0 4.19733 0 9.375V30.625C0 35.8027 4.19733 40 9.375 40H30.625C35.8027 40 40 35.8027 40 30.625V9.375C40 4.19733 35.8027 0 30.625 0Z"
			fill="#0CBC8D" />
		<g clip-path="url(#clip0_734_28192)">
			<path
				d="M19.3772 32.9861C18.2931 32.9322 17.2197 32.7452 16.1813 32.4293C16.0611 32.3841 15.9398 32.3422 15.8173 32.3036C12.3474 31.1618 9.40508 28.4101 7.98916 24.9825C7.40858 23.5838 7.07855 22.0939 7.01416 20.5809C7.00549 20.4086 7.00116 18.1 7.00007 14.3019C7.00007 7.76937 6.99466 8.23195 7.07591 7.97845C7.24924 7.42704 7.72916 7.05437 8.32608 7.00562C8.78216 6.96879 9.08441 7.10095 10.0627 7.76287C10.6715 8.17454 11.2749 8.60787 12.0083 9.15929C12.3496 9.41604 12.3907 9.44204 12.4157 9.42687L12.7948 9.1777C13.4232 8.76495 13.9973 8.44429 14.6365 8.15395C15.5771 7.7286 16.5653 7.41763 17.5799 7.2277C18.3088 7.08795 19.0489 7.01543 19.791 7.01104C21.026 6.9937 22.0411 7.10962 23.2057 7.40104C27.0515 8.36304 30.2885 11.0963 31.9027 14.746C32.4357 15.9518 32.8181 17.3785 32.9264 18.5615C32.9622 18.958 32.9687 19.0274 32.9838 19.2235C32.9925 19.3372 33.0001 19.6633 33.0001 19.9482C33.0001 20.7965 32.9297 21.649 32.817 22.1842C32.7981 22.2777 32.7815 22.3716 32.7672 22.4659C32.7065 22.8754 32.5353 23.5351 32.3349 24.1288C32.1128 24.7929 31.9373 25.211 31.5939 25.8979C30.8809 27.3011 29.9179 28.5625 28.7523 29.6202C28.2757 30.0492 27.8542 30.384 27.3873 30.7068C26.6864 31.1889 25.9714 31.5865 25.1784 31.9353C24.5284 32.2224 23.6184 32.5192 22.9023 32.6785C22.4811 32.7741 22.0552 32.8472 21.6262 32.8973C20.8803 32.9904 20.128 33.0201 19.3772 32.9861ZM18.7163 26.5728C19.0348 26.5078 19.4508 26.3464 19.6523 26.2077C19.8083 26.1005 20.116 25.8004 21.8883 24.027C22.5205 23.389 23.1575 22.756 23.7993 22.1279C23.8177 22.1279 25.6269 20.3187 25.6269 20.2981C25.6269 20.2765 27.4036 18.5128 27.4263 18.5128C27.4372 18.5128 27.4946 18.4619 27.5542 18.398C28.0601 17.8617 28.293 17.3612 28.3298 16.722C28.358 16.253 28.2648 15.7373 28.0947 15.4264C27.8518 14.9633 27.4826 14.5787 27.0298 14.317C26.7254 14.1405 26.4752 14.0646 26.0678 14.0245C25.7363 13.991 25.3225 14.0245 25.0408 14.1058C24.7776 14.1816 24.3876 14.4026 24.1167 14.6269C24.0712 14.6648 22.7312 15.9973 21.1397 17.5876L18.2462 20.4801L17.0621 19.2993C16.4121 18.6493 15.8487 18.0925 15.8108 18.0621C15.3945 17.7359 14.8892 17.5433 14.3613 17.5096C13.9237 17.4955 13.3755 17.6071 13.0353 17.7805C12.7708 17.9345 12.5302 18.1265 12.3214 18.3503C12.2044 18.4803 12.0105 18.737 12.0072 18.7674C12.004 18.7999 11.9975 18.815 11.9368 18.9407C11.7895 19.2493 11.7069 19.5848 11.6942 19.9265C11.6822 20.1746 11.6833 20.2136 11.7147 20.4585C11.7635 20.8409 11.9747 21.3045 12.2672 21.6664C12.3214 21.7346 13.3181 22.741 14.4816 23.9024C16.1142 25.5328 16.6266 26.0365 16.7284 26.1113C17.0827 26.3713 17.4683 26.5316 17.9212 26.6053C18.1183 26.6378 18.4628 26.6226 18.7163 26.5728Z"
				fill="white" />
		</g>
		<defs>
			<clipPath id="clip0_734_28192">
				<rect width="26" height="26" fill="white" transform="translate(7 7)" />
			</clipPath>
		</defs>
	</symbol>

	<!-- day -->
	<symbol id="day" viewBox="0 0 24 24">
		<path
			d="M11.9993 20.4C12.3176 20.4 12.6229 20.5264 12.8479 20.7515C13.073 20.9765 13.1994 21.2817 13.1994 21.6V22.8C13.1994 23.1183 13.073 23.4235 12.8479 23.6485C12.6229 23.8736 12.3176 24 11.9993 24C11.6811 24 11.3758 23.8736 11.1508 23.6485C10.9257 23.4235 10.7993 23.1183 10.7993 22.8V21.6C10.7993 21.2817 10.9257 20.9765 11.1508 20.7515C11.3758 20.5264 11.6811 20.4 11.9993 20.4ZM19.6366 17.94L20.485 18.7884C20.7036 19.0147 20.8246 19.3178 20.8218 19.6325C20.8191 19.9471 20.6929 20.2481 20.4704 20.4706C20.2479 20.6931 19.9469 20.8193 19.6322 20.822C19.3176 20.8247 19.0144 20.7038 18.7881 20.4852L17.9397 19.6368C17.7211 19.4105 17.6001 19.1074 17.6028 18.7927C17.6056 18.4781 17.7318 18.1771 17.9543 17.9546C18.1768 17.7321 18.4778 17.6059 18.7924 17.6032C19.1071 17.6005 19.4102 17.7214 19.6366 17.94ZM4.36211 17.94C4.57807 17.7248 4.86786 17.5998 5.17262 17.5905C5.47737 17.5812 5.77425 17.6883 6.00294 17.8899C6.23163 18.0915 6.37499 18.3727 6.4039 18.6762C6.43282 18.9797 6.34512 19.2828 6.15861 19.524L6.05901 19.6368L5.21056 20.4852C4.9946 20.7004 4.70481 20.8254 4.40005 20.8347C4.0953 20.844 3.79843 20.7369 3.56973 20.5353C3.34104 20.3337 3.19768 20.0525 3.16877 19.749C3.13985 19.4455 3.22756 19.1424 3.41406 18.9012L3.51367 18.7884L4.36211 17.94ZM2.3988 10.8C2.70468 10.8003 2.99888 10.9175 3.22129 11.1274C3.44371 11.3374 3.57755 11.6243 3.59548 11.9297C3.6134 12.235 3.51406 12.5357 3.31774 12.7702C3.12142 13.0047 2.84294 13.1555 2.53921 13.1916L2.3988 13.2H1.19874C0.892865 13.1997 0.598665 13.0825 0.376249 12.8726C0.153834 12.6626 0.0199897 12.3757 0.00206416 12.0703C-0.0158614 11.765 0.0834847 11.4643 0.279804 11.2298C0.476123 10.9953 0.754597 10.8445 1.05833 10.8084L1.19874 10.8H2.3988ZM22.7999 10.8C23.1182 10.8 23.4235 10.9264 23.6485 11.1515C23.8736 11.3765 24 11.6817 24 12C24 12.3183 23.8736 12.6235 23.6485 12.8485C23.4235 13.0736 23.1182 13.2 22.7999 13.2H21.5999C21.2816 13.2 20.9763 13.0736 20.7513 12.8485C20.5262 12.6235 20.3998 12.3183 20.3998 12C20.3998 11.6817 20.5262 11.3765 20.7513 11.1515C20.9763 10.9264 21.2816 10.8 21.5999 10.8H22.7999ZM3.51367 3.5148C3.72031 3.30819 3.99524 3.18407 4.28689 3.16573C4.57854 3.1474 4.86686 3.2361 5.09775 3.4152L5.21056 3.5148L6.05901 4.3632C6.27424 4.57915 6.39919 4.86892 6.4085 5.17366C6.41781 5.4784 6.31076 5.77526 6.10911 6.00393C5.90746 6.23261 5.62632 6.37597 5.3228 6.40488C5.01927 6.43379 4.71612 6.34609 4.47492 6.1596L4.36211 6.06L3.51367 5.2116C3.28869 4.98657 3.1623 4.6814 3.1623 4.3632C3.1623 4.045 3.28869 3.73983 3.51367 3.5148ZM20.485 3.5148C20.71 3.73983 20.8364 4.045 20.8364 4.3632C20.8364 4.6814 20.71 4.98657 20.485 5.2116L19.6366 6.06C19.5259 6.17461 19.3934 6.26603 19.247 6.32892C19.1006 6.39181 18.9431 6.42492 18.7838 6.4263C18.6244 6.42769 18.4664 6.39732 18.3189 6.33699C18.1715 6.27665 18.0375 6.18755 17.9248 6.07487C17.8121 5.9622 17.723 5.82822 17.6627 5.68075C17.6023 5.53327 17.572 5.37525 17.5733 5.21592C17.5747 5.05658 17.6078 4.89912 17.6707 4.75272C17.7336 4.60631 17.825 4.4739 17.9397 4.3632L18.7881 3.5148C19.0132 3.28983 19.3183 3.16346 19.6366 3.16346C19.9548 3.16346 20.26 3.28983 20.485 3.5148ZM11.9993 0C12.3176 0 12.6229 0.126428 12.8479 0.351472C13.073 0.576515 13.1994 0.88174 13.1994 1.2V2.4C13.1994 2.71826 13.073 3.02348 12.8479 3.24853C12.6229 3.47357 12.3176 3.6 11.9993 3.6C11.6811 3.6 11.3758 3.47357 11.1508 3.24853C10.9257 3.02348 10.7993 2.71826 10.7993 2.4V1.2C10.7993 0.88174 10.9257 0.576515 11.1508 0.351472C11.3758 0.126428 11.6811 0 11.9993 0Z"
			fill="url(#paint0_linear_4025_15903)" />
		<circle cx="12" cy="12" r="6" fill="url(#paint1_linear_4025_15903)" />
		<defs>
			<linearGradient id="paint0_linear_4025_15903" x1="34.6667" y1="39.3333" x2="-8.08929"
				y2="-0.952421" gradientUnits="userSpaceOnUse">
				<stop stop-color="#017AC3" />
				<stop offset="1" stop-color="#65CFF0" />
			</linearGradient>
			<linearGradient id="paint1_linear_4025_15903" x1="23.3333" y1="25.6667" x2="1.95535"
				y2="5.52379" gradientUnits="userSpaceOnUse">
				<stop stop-color="#017AC3" />
				<stop offset="1" stop-color="#65CFF0" />
			</linearGradient>
		</defs>
	</symbol>

	<!-- night -->
	<symbol id="night" viewBox="0 0 24 24">
		<path
			d="M10.5 4.27757C10.5976 4.39618 10.6574 4.54134 10.6717 4.69429C10.6859 4.84724 10.654 5.00095 10.58 5.13557C10.0019 6.19704 9.69993 7.38686 9.702 8.59557C9.702 12.6166 12.98 15.8726 17.02 15.8726C17.547 15.8726 18.06 15.8176 18.553 15.7126C18.7041 15.6798 18.8615 15.6924 19.0056 15.7486C19.1497 15.8048 19.274 15.9021 19.363 16.0286C19.457 16.16 19.5049 16.3188 19.4993 16.4803C19.4937 16.6418 19.4349 16.797 19.332 16.9216C18.5477 17.885 17.5582 18.6613 16.4358 19.1938C15.3134 19.7262 14.0863 20.0015 12.844 19.9996C8.234 19.9996 4.5 16.2856 4.5 11.7096C4.5 8.26557 6.614 5.31157 9.624 4.05957C9.77394 3.9962 9.94039 3.98319 10.0983 4.0225C10.2563 4.06181 10.3973 4.15131 10.5 4.27757Z"
			fill="url(#paint0_linear_4025_15908)" />
		<defs>
			<linearGradient id="paint0_linear_4025_15908" x1="26.1663" y1="30.2214" x2="-2.16877"
				y2="5.19136" gradientUnits="userSpaceOnUse">
				<stop stop-color="#017AC3" />
				<stop offset="1" stop-color="#65CFF0" />
			</linearGradient>
		</defs>
	</symbol>

	<!-- arrow-sl -->
	<symbol id="arrow-sl" viewBox="0 0 24 24">
		<path fill-rule="evenodd" clip-rule="evenodd"
			d="M12.0015 13.6667L19.4049 5.66699C19.7906 5.25121 20.3287 5.00328 20.9062 5.00328C21.1908 5.00328 21.4705 5.06381 21.7287 5.1791C21.9865 5.29424 22.2164 5.46101 22.4073 5.66675C22.7916 6.08102 23 6.63319 23 7.20026C23 7.48203 22.9486 7.76192 22.8477 8.02431C22.7469 8.28669 22.598 8.52811 22.4073 8.73377L13.5033 18.3324C13.3131 18.5391 13.0831 18.7072 12.8252 18.823C12.5668 18.939 12.2866 19 12.0015 19C11.7164 19 11.4362 18.939 11.1779 18.823C10.92 18.7072 10.6903 18.5395 10.5001 18.3329L1.59655 8.7346C1.4048 8.52947 1.25469 8.2878 1.15328 8.02539C1.05178 7.76278 1 7.48246 1 7.20026C1 6.91805 1.05178 6.63774 1.15328 6.37513C1.25463 6.11287 1.40423 5.87175 1.59582 5.66669C1.78598 5.46024 2.01547 5.29275 2.27315 5.17702C2.53155 5.06096 2.81171 5 3.09682 5C3.38193 5 3.6621 5.06096 3.92049 5.17702C4.17839 5.29284 4.40804 5.46052 4.59829 5.6672M4.59829 5.6672L12.0015 13.6667L4.59829 5.6672Z"
			fill="#0587D6" />
	</symbol>

</svg>